<svg width="124" height="32" viewBox="0 0 124 32" fill="none" xmlns="http://www.w3.org/2000/svg">
<path fill-rule="evenodd" clip-rule="evenodd" d="M26.69 31.266H33.0933V9.39435H26.69V31.266ZM29.8608 0C27.8291 0 26.1668 1.52649 26.1668 3.464C26.1668 5.4311 27.8291 6.9576 29.8608 6.9576C31.9235 6.9576 33.5245 5.37247 33.5245 3.464C33.5245 1.52649 31.9235 0 29.8608 0ZM23.4887 3.49332H16.3466L6.71098 15.9412V3.49332H0V31.266H6.71098V17.7319L16.5004 31.266H24.258L13.4219 16.264L23.4887 3.49332ZM45.3762 2.78885H38.9732V21.5778C38.9732 29.2111 41.7746 31.266 47.9006 31.266H50.9486V26.3337H49.9941C46.423 26.3337 45.4377 25.6293 45.3762 21.2257V14.3558H51.4103V9.39435H45.3762V2.78885ZM95.6169 19.0532V31.266H102.02V20.7265C102.02 17.4384 102.204 14.4733 107.53 14.4733H109.254V9.39435H105.683C98.8184 9.39435 95.709 12.5063 95.6169 19.0532ZM55.6277 11.9483V31.266H62.0306V14.3558H68.1568V9.39435H62.0306V9.15952C62.0306 5.95966 64.3088 5.37247 67.8492 5.37247H69.542V0.645567H68.0646C61.0767 0.645567 55.6277 1.37962 55.6277 11.9483ZM85.7964 20.521C85.7964 16.9688 84.9037 13.6218 80.9631 13.6218C76.7458 13.6218 76.1304 17.057 76.1304 20.0807C76.1304 23.6329 77.0228 26.9799 80.9631 26.9799C85.1807 26.9799 85.7964 23.5447 85.7964 20.521ZM92.3227 20.1686C92.4152 27.2147 88.7826 32 80.9631 32C73.2364 32 69.6346 27.3616 69.6039 20.4623C69.5113 13.4165 73.1439 8.63096 80.9631 8.63096C88.6904 8.63096 92.2919 13.2696 92.3227 20.1686ZM117.966 14.3558V21.2257C118.028 25.6293 119.013 26.3337 122.584 26.3337H123.538V31.266H120.491C114.365 31.266 111.563 29.2111 111.563 21.5778V2.78885H117.966V9.39435H124V14.3558H117.966Z" fill="#A6A5B7"/>
</svg>
