<svg width="157" height="32" viewBox="0 0 157 32" fill="none" xmlns="http://www.w3.org/2000/svg">
<path d="M97.8924 29.9805C91.9533 29.9805 87.2355 26.447 85.5959 20.7532C84.4918 16.935 84.6423 13.2843 86.0476 9.91827C87.9381 5.39674 91.3176 2.76755 96.0856 2.11444C96.738 2.03071 97.4072 1.98047 98.043 1.98047C100.837 1.98047 103.547 2.7843 106.308 4.45894C106.91 4.82736 107.495 5.22927 108.064 5.61444C108.332 5.79865 108.6 5.98286 108.867 6.15033L106.759 8.81301C106.441 8.5953 106.107 8.3776 105.772 8.17664C105.036 7.70774 104.333 7.25559 103.581 6.87042C101.757 5.89913 99.8833 5.41348 98.0095 5.41348C97.173 5.41348 96.3198 5.51396 95.4833 5.69817C92.4719 6.38478 90.3472 8.29387 89.1594 11.3752C88.1054 14.1049 88.0218 16.9518 88.9085 19.8656C90.1967 24.069 93.2917 26.447 97.6414 26.5642C97.7418 26.5642 97.8422 26.5642 97.9426 26.5642C100.586 26.5642 103.062 25.6934 105.772 23.801C105.99 23.6503 106.207 23.4996 106.425 23.3321L106.742 23.0977L108.867 25.8274C108.583 26.0116 108.298 26.2125 108.014 26.3967C107.395 26.8154 106.743 27.2508 106.09 27.636C103.898 28.9422 101.606 29.7125 99.2642 29.9135C98.7958 29.947 98.3441 29.9805 97.8924 29.9805Z" fill="#A6A5B7"/>
<path d="M150.067 29.9805H146.684V5.47191H139.867V1.98047H156.867V5.43768H150.067V29.9805Z" fill="#A6A5B7"/>
<path d="M131.427 29.9633H134.867V1.98047C133.839 1.98047 132.844 1.98047 131.832 1.99759C131.731 1.99759 131.613 2.11747 131.528 2.22022C129.033 5.54255 126.554 8.84775 124.059 12.1701C121.209 15.9719 118.342 19.7909 115.493 23.5927C115.442 23.6612 115.391 23.7297 115.273 23.8496V2.01472H111.867V29.9633C111.968 29.9633 112.07 29.9805 112.171 29.9805C113.014 29.9805 113.874 29.9805 114.717 29.9805C114.936 29.9805 115.071 29.912 115.206 29.7407C120.484 22.6851 125.778 15.6465 131.056 8.59087C131.158 8.45386 131.259 8.31686 131.427 8.11136V29.9633Z" fill="#A6A5B7"/>
<path d="M48.4899 20.824H48.1308C44.6381 20.824 41.1453 20.824 37.6525 20.824C37.375 20.824 37.2445 20.9096 37.1302 21.1834C35.9714 24.0074 34.7963 26.8313 33.6211 29.6553C33.4579 29.9634 33.1804 29.9634 33.1804 29.9634H29.8672C29.8672 29.9634 29.9814 29.6553 30.0304 29.5184C33.4089 21.3545 36.7875 13.1907 40.1497 5.02692C40.5251 4.11983 40.9168 3.19563 41.2758 2.28854C41.4227 1.98047 41.7165 1.98047 41.7165 1.98047H43.9689C43.9689 1.98047 44.2953 1.98047 44.4259 2.28854C46.3355 6.89245 48.2451 11.5135 50.1384 16.1174C51.999 20.6186 53.876 25.1198 55.7366 29.6382C55.7856 29.7409 55.8672 29.9805 55.8672 29.9805H52.3744C52.3744 29.9805 52.2602 29.9805 52.1296 29.7066C51.9827 29.3814 51.8684 29.0734 51.7216 28.7482C51.4441 27.9096 48.7511 21.4401 48.4899 20.824ZM47.07 17.3154C45.6826 13.9609 44.3116 10.6406 42.908 7.25186C41.5043 10.6406 40.1334 13.9609 38.746 17.3154H47.07Z" fill="#A6A5B7"/>
<path d="M0.871491 29.9291C1.97801 27.3583 3.06825 24.8218 4.15849 22.3024C6.9085 15.9441 9.65852 9.58567 12.4085 3.24443C12.555 2.88452 12.7014 2.52462 12.8642 2.19898C12.913 2.09615 13.0757 1.99332 13.1733 1.99332C13.9707 1.97618 14.768 1.97618 15.5654 1.99332C15.6793 1.99332 15.842 2.11329 15.8908 2.23326C18.3316 7.85468 20.7562 13.4761 23.1808 19.0975C24.6941 22.5938 26.1911 26.0729 27.7045 29.552C27.7533 29.672 27.8021 29.7919 27.8672 29.9805H25.0521C24.4012 29.9805 24.1246 29.8091 23.8642 29.1921C20.7562 21.9254 17.6157 14.6587 14.4914 7.39195C14.4588 7.30625 14.4263 7.2377 14.3612 7.13487C13.7429 8.5745 13.1408 9.97986 12.5224 11.3852C9.9026 17.4694 7.26649 23.5707 4.63039 29.672C4.50021 29.9633 4.28867 29.9633 4.28867 29.9633H1.00167C1.00167 29.9633 0.838946 29.9633 0.871491 29.9291Z" fill="#A6A5B7"/>
<path d="M65.9792 29.9805H57.8672V13.8727C57.8672 9.41987 59.0932 5.97905 61.4109 3.95504C63.2416 2.3527 65.66 1.71176 68.3976 2.08283C70.4634 2.36956 72.1429 3.33097 73.2514 4.89958C74.6789 6.90672 74.8805 9.43674 74.8133 11.1909C76.2241 11.3596 78.0883 11.8656 79.5495 13.2149C81.0778 14.6148 81.8672 16.5714 81.8672 19.0339C81.8504 25.8818 75.9218 29.9805 65.9792 29.9805ZM61.2934 26.5228H65.9624C69.7076 26.5228 78.4074 25.7975 78.4074 19.0171C78.4074 17.5497 78.0211 16.487 77.2318 15.7618C75.7034 14.345 73.0666 14.5474 73.0498 14.5474L70.7657 14.7498L71.2024 12.4896C71.3871 11.5114 71.6223 8.57653 70.4298 6.88986C69.8756 6.11399 69.0526 5.65858 67.9274 5.50678C66.1639 5.27065 64.7363 5.62485 63.6614 6.56939C62.1163 7.91873 61.2934 10.4487 61.2934 13.8896V26.5228Z" fill="#A6A5B7"/>
</svg>
