<svg width="110" height="32" viewBox="0 0 110 32" fill="none" xmlns="http://www.w3.org/2000/svg">
<g clip-path="url(#clip0_1618_3847)">
<path d="M5.6585 13.5345H20.1489L25.7018 19.3574H32.471L26.8123 13.5345C30.197 13.3247 31.9422 11.6984 31.9422 8.86564V5.14105C31.9422 2.09843 29.8797 0.524658 26.0191 0.524658H0.105614L0.0527344 19.3574H5.60562V13.5345H5.6585ZM5.6585 4.8263H24.9085C25.4902 4.8263 25.9133 4.93122 26.1777 5.14105C26.3893 5.29843 26.495 5.56072 26.495 5.92794V8.0263C26.495 8.86564 26.072 9.23286 25.12 9.23286H5.71138V4.8263H5.6585Z" fill="#A6A5B7"/>
<path d="M99 0.472168H77.8462V19.3574H99C104.923 19.3574 109.736 15.5804 109.736 10.9115V8.91807C109.736 4.24922 104.923 0.472168 99 0.472168ZM104.183 10.964C104.183 13.2197 101.856 15.0033 99 15.0033H83.3991V4.87872H99C101.856 4.87872 104.183 6.71479 104.183 8.91807V10.964Z" fill="#A6A5B7"/>
<path d="M38.9761 5.19328V14.5834C38.9761 17.6785 41.0386 19.3572 44.952 19.3572H70.8655V15.0031H45.8511C44.8992 15.0031 44.4761 14.6359 44.4761 13.849V5.9277C44.4761 5.14082 44.8992 4.82606 45.9568 4.82606C54.2597 4.82606 62.5626 4.82606 70.8126 4.87852V0.524424H44.952C41.0915 0.471965 38.9761 2.0982 38.9761 5.19328Z" fill="#A6A5B7"/>
<path d="M67.6395 11.8032V8.02612C61.0289 8.02612 54.3655 8.02612 47.7549 8.02612V11.8032C54.4183 11.8032 61.0289 11.8032 67.6395 11.8032Z" fill="#A6A5B7"/>
<path d="M31.043 28.3279H28.1873C26.8123 28.3279 26.5479 28.0656 26.5479 27.3312C26.5479 26.5443 26.8123 26.1771 27.9757 26.1771H31.0959C32.3652 26.1771 32.7354 26.6492 32.7354 27.3312H33.4229C33.4229 26.1247 32.6825 25.5476 31.2546 25.5476H27.9757C26.5479 25.5476 25.8604 26.0722 25.8604 27.3312C25.8604 28.3804 26.2834 28.9574 27.9757 28.9574H31.2017C32.418 28.9574 32.7354 29.2722 32.7354 30.1115C32.7354 30.9509 32.2594 31.2656 31.2546 31.2656H28.1873C26.918 31.2656 26.5479 30.7935 26.5479 30.1115H25.8604C25.8604 31.3706 26.6536 31.9476 27.9757 31.9476H31.3075C32.7882 31.9476 33.4229 31.423 33.4229 30.164C33.4229 28.8001 32.6825 28.3279 31.043 28.3279Z" fill="#A6A5B7"/>
<path d="M43.3126 25.4951H40.5097C38.7116 25.4951 38.1299 26.1246 38.1299 27.8033V29.7968C38.1299 31.423 38.7645 32 40.5097 32H43.3126C45.0049 32 45.6395 31.6328 45.6395 29.7968V27.8033C45.6395 25.9148 44.8462 25.4951 43.3126 25.4951ZM44.952 29.7443C44.952 31.0033 44.6347 31.3181 43.3126 31.3181H40.5097C39.2405 31.3181 38.7645 31.0033 38.7645 29.7443V27.6984C38.7645 26.4394 39.2933 26.1246 40.5097 26.1246H43.3126C44.5818 26.1246 44.952 26.4394 44.952 27.6984V29.7443Z" fill="#A6A5B7"/>
<path d="M51.0868 25.5476H50.4521V31.9476H55.9521V31.3181H51.0868V25.5476Z" fill="#A6A5B7"/>
<path d="M67.5866 30.0066C67.5866 30.8984 67.1635 31.3181 65.9472 31.3181H63.0914C61.7164 31.3181 61.3462 30.8984 61.3462 30.0066V25.5476H60.6587V29.7443C60.6587 31.4755 61.3991 31.9476 63.0385 31.9476H65.8414C67.3222 31.9476 68.1683 31.5279 68.1683 29.7443V25.5476H67.4808V30.0066H67.5866Z" fill="#A6A5B7"/>
<path d="M72.6636 26.2296H75.7838V31.9476H76.4713V26.2296H79.5915V25.5476H72.6636V26.2296Z" fill="#A6A5B7"/>
<path d="M85.144 25.5476H84.4565V31.9476H85.144V25.5476Z" fill="#A6A5B7"/>
<path d="M95.5626 25.4951H92.7597C90.9616 25.4951 90.3799 26.1246 90.3799 27.8033V29.7968C90.3799 31.423 91.0145 32 92.7597 32H95.5626C97.2549 32 97.8895 31.6328 97.8895 29.7968V27.8033C97.8895 25.9148 97.1491 25.4951 95.5626 25.4951ZM97.2549 29.7443C97.2549 31.0033 96.9376 31.3181 95.6155 31.3181H92.8126C91.5433 31.3181 91.0674 31.0033 91.0674 29.7443V27.6984C91.0674 26.4394 91.5962 26.1246 92.8126 26.1246H95.6155C96.8847 26.1246 97.2549 26.4394 97.2549 27.6984V29.7443Z" fill="#A6A5B7"/>
<path d="M109.048 31.3181L104.077 25.5476H102.596V31.9476H103.284V26.0722H103.654L108.731 31.9476H109.736V25.5476H109.048V31.3181Z" fill="#A6A5B7"/>
</g>
<defs>
<clipPath id="clip0_1618_3847">
<rect width="110" height="32" fill="white"/>
</clipPath>
</defs>
</svg>
