<svg width="190" height="32" viewBox="0 0 190 32" fill="none" xmlns="http://www.w3.org/2000/svg">
<g clip-path="url(#clip0_1618_3911)">
<path fill-rule="evenodd" clip-rule="evenodd" d="M88.8958 27.9973C90.0808 27.4572 90.1167 26.6517 90.1167 26.1116V19.3684H95V26.389C95 27.301 94.7058 28.3218 92.7425 29.1574C90.155 30.2721 86.1192 30.3158 83.7492 30.3158C81.3822 30.3158 77.348 30.2721 74.7551 29.1574C72.7968 28.3218 72.5003 27.301 72.5003 26.389V19.3684H77.3826V26.1116C77.3826 26.7118 77.4243 27.4403 78.6429 27.9973C80.0135 28.6157 82.2348 28.692 83.7492 28.692C85.1567 28.692 87.5642 28.6157 88.8958 27.9973ZM3.26533 30.3157C2.43184 30.3157 1.48829 30.2385 0.908333 30.0351C0.507872 29.8933 0 29.5972 0 29.1287V19.3684H4.79222V28.0798C4.79222 28.0903 4.79195 28.1014 4.79168 28.1128C4.78864 28.2391 4.78428 28.4207 5.11732 28.5488C5.2619 28.5969 7.5946 28.6743 8.3555 28.6743H20V30.3137L29.5758 20.5884C30.4813 19.678 31.464 19.3684 33.7469 19.3684C35.9246 19.3684 37.0118 19.678 37.9202 20.5884L47.4979 30.3158H42.4549L39.8433 27.5808H27.6173L25.0408 30.3158H20L3.26533 30.3157ZM33.0504 21.6873L33.0212 21.7183L28.8483 26.127H38.6094L34.4742 21.7183L34.4408 21.6831C34.2903 21.5239 34.0506 21.2705 33.7469 21.2705C33.4417 21.2705 33.1995 21.5284 33.0504 21.6873ZM51.8779 30.3158C50.6962 30.3158 48.3328 30.2689 48.3328 29.1879C48.3328 28.5175 49.1805 28.0496 49.9218 27.7188L64.0316 21.5429C64.2545 21.4503 64.4758 21.3238 64.4758 21.2143C64.4758 21.1514 64.3657 21.0117 63.7751 21.0117H49.3312V19.3684H67.9123C69.355 19.3684 70.8327 19.6015 70.8327 20.4951C70.8327 21.1835 70.1211 21.4996 69.3995 21.8201L69.355 21.8399L55.056 28.2187L55.0526 28.2201C54.8698 28.2986 54.6862 28.3774 54.6862 28.5018C54.6862 28.6432 54.9085 28.6731 55.1298 28.6731H70.4255V30.3157L51.8779 30.3158ZM98.5508 19.8063C97.5375 20.2285 97.5 20.7758 97.5 21.2297L97.4992 30.3158H102.283V21.7934C102.283 21.5752 102.283 21.3714 102.789 21.1847C103.186 21.0267 103.551 21.0108 104.058 21.0108H111.811C112.573 21.0108 113.732 21.0108 114.49 21.3388C114.999 21.5581 115.398 21.9967 115.398 22.8562C115.398 23.2328 115.324 24.0128 114.819 24.3586C114.167 24.7971 113.042 24.8431 112.21 24.8431H107.428C106.053 24.8431 105.291 25.1555 105.291 25.5947V25.8438C105.291 26.1554 105.978 26.5463 106.485 26.7661L114.819 30.3157H120.832L111.198 26.453V26.3741H114.459C117.351 26.3741 118.587 25.7813 119.238 25.25C120.253 24.4352 120.325 23.5751 120.325 22.7793C120.325 21.9805 120.253 21.1205 119.056 20.3687C117.573 19.4132 115.398 19.3684 113.623 19.3684H101.593C100.656 19.3684 99.4608 19.4291 98.5508 19.8063ZM126.668 19.3684H122.501V30.3158H126.668V19.3684ZM137.587 21.0087V30.3158H142.467V21.0087H151.668V19.3684H128.334V21.0087H137.587Z" fill="#A6A5B7"/>
<path d="M190 0H158.333V32H190V0Z" fill="#A6A5B7"/>
<path fill-rule="evenodd" clip-rule="evenodd" d="M166.308 21.9201C166.308 22.5327 166.328 23.1448 166.348 23.6516L166.413 25.2632H167.393L167.15 21.0527H165.841L165.367 22.4516C165.222 22.9203 165.072 23.4765 164.946 23.9634H164.926C164.827 23.4701 164.689 22.9449 164.552 22.458L164.117 21.0528H162.782L162.5 25.2633H163.427L163.506 23.6642C163.528 23.3081 163.545 22.8948 163.561 22.488C163.568 22.295 163.577 22.1033 163.584 21.9201H163.598C163.703 22.4706 163.856 23.0699 163.998 23.5638L164.473 25.1943H165.256L165.794 23.5512C165.967 23.0575 166.151 22.458 166.288 21.9201H166.308ZM168.838 23.4825H170.577V22.7083H168.838V21.8338H170.683V21.0527H167.769V25.2633H170.779V24.4822H168.838V23.4825ZM174.178 21.0527V21.819H172.183V22.5365C172.337 22.5175 172.552 22.506 172.735 22.506C173.195 22.506 173.673 22.6106 174.017 22.8457C174.334 23.0559 174.543 23.3831 174.543 23.8409C174.543 24.2494 174.375 24.5642 174.112 24.7807C173.673 25.1395 172.959 25.2633 172.263 25.2633C171.758 25.2633 171.386 25.2321 171.156 25.201V21.0527H174.178ZM172.174 24.5343C172.29 24.5517 172.432 24.558 172.574 24.558C172.823 24.558 173.073 24.484 173.242 24.3415C173.376 24.2313 173.462 24.0635 173.462 23.8596C173.462 23.6498 173.368 23.495 173.221 23.3898C173.039 23.26 172.782 23.2035 172.539 23.2035C172.424 23.2035 172.303 23.2108 172.174 23.2288V24.5343ZM176.232 23.4825H177.752V22.7083H176.232V21.8338H177.844V21.0527H175.296V25.2633H177.93V24.4822H176.232V23.4825ZM181.693 21.0527V25.2019H180.81V21.8223H179.919V22.8075C179.919 23.8721 179.791 24.6906 179.197 25.0601C178.999 25.1771 178.731 25.2633 178.417 25.2633L178.307 24.5055C178.498 24.4814 178.657 24.3948 178.755 24.2845C178.993 24.0262 179.051 23.4969 179.051 22.8689V21.0527H181.693ZM183.734 22.4993V21.0527H182.822V25.201C183.027 25.2321 183.363 25.2633 183.813 25.2633C184.443 25.2633 185.12 25.1395 185.509 24.7316C185.707 24.5145 185.833 24.2188 185.833 23.8223C185.833 22.895 185.097 22.4687 184.227 22.4687C184.053 22.4687 183.86 22.487 183.734 22.4993ZM184.07 24.558C183.938 24.558 183.832 24.5517 183.729 24.5343V23.2164C183.843 23.2036 183.949 23.1916 184.083 23.1916C184.52 23.1916 184.874 23.3898 184.874 23.8657C184.874 24.3364 184.513 24.558 184.07 24.558Z" fill="white"/>
</g>
<defs>
<clipPath id="clip0_1618_3911">
<rect width="190" height="32" fill="white"/>
</clipPath>
</defs>
</svg>
