<svg width="125" height="32" viewBox="0 0 125 32" fill="none" xmlns="http://www.w3.org/2000/svg">
<path fill-rule="evenodd" clip-rule="evenodd" d="M13.7748 3.51425L0.0812329 3.45788L0.0406164 16.676L0 29.8941H13.6935C20.7066 29.8941 26.3136 24.4339 26.3136 16.6507C26.3156 7.55939 20.7879 3.51425 13.7748 3.51425ZM13.0785 24.4261H5.03064C5.03064 24.4261 5.99769 20.0991 5.99769 16.6818C5.99769 13.2646 5.09833 8.93757 5.09833 8.93757H13.1539C17.2001 8.93757 20.6641 11.3168 20.6641 16.6624C20.668 21.5784 17.1247 24.4261 13.0785 24.4261ZM39.0962 24.4261H42.1038V29.9038H30.4507V24.4261H33.4621V9.12418L28.946 11.9583V6.292L33.4621 3.45788H39.1001L39.0962 24.4261ZM53.9638 24.3542V29.9077H52.7627V26.5857L51.1342 29.3207H50.5675L48.9351 26.6401V29.9038H47.734V24.3542H48.7939L50.8692 27.7987L52.9058 24.3542H53.9638ZM56.6154 28.8755H59.623V29.9077H55.3428V24.3542H59.5205V25.3864H56.6193V26.5915H59.1859V27.5907H56.6154V28.8755ZM64.9824 26.9317C64.6343 26.6518 64.1263 26.5118 63.4584 26.5118H61.9265V25.3689H65.1159V24.3542H60.6558V29.9077H63.2765C63.9857 29.9077 64.5357 29.7542 64.9263 29.447C65.118 29.2949 65.2706 29.0989 65.3716 28.8753C65.4725 28.6518 65.5188 28.4073 65.5066 28.1622C65.5208 27.9312 65.4804 27.7002 65.3886 27.488C65.2969 27.2758 65.1563 27.0885 64.9786 26.9414L64.9824 26.9317ZM63.9554 28.757C63.7316 28.8988 63.4692 28.9668 63.205 28.9514H61.9265V27.4643H63.205C63.8781 27.4643 64.2165 27.7073 64.2165 28.1933C64.2228 28.303 64.2023 28.4126 64.1568 28.5125C64.1113 28.6125 64.0421 28.6997 63.9554 28.7667V28.757ZM67.754 28.8678H70.7616V29.9H66.4833V24.3542H70.661V25.3864H67.7598V26.5915H70.3264V27.5907H67.756L67.754 28.8678ZM72.4752 24.3542H76.7303V29.9077H75.4653V25.398H73.5699L73.5312 26.5643C73.5215 27.05 73.4847 27.5348 73.421 28.0164C73.3766 28.3859 73.2862 28.7483 73.1521 29.0952C73.0531 29.3627 72.8808 29.5965 72.6551 29.7697C72.4204 29.9292 72.1413 30.0096 71.8582 29.9991C71.7578 29.9991 71.6576 29.9913 71.5584 29.9758C71.4579 29.9602 71.3476 29.9388 71.2258 29.9136L71.3051 28.827C71.3802 28.847 71.4575 28.8574 71.5352 28.8581C71.6347 28.8605 71.7331 28.8378 71.8215 28.792C71.9096 28.7469 71.9848 28.68 72.04 28.5976C72.1811 28.36 72.2701 28.0949 72.3011 27.82C72.3594 27.4182 72.3937 27.0131 72.4036 26.6071L72.4752 24.3542ZM82.0104 24.3542H83.2095V29.9077H81.9466V26.298L79.3104 29.9077H78.1035V24.3542H79.3742V27.9697L82.0104 24.3542ZM64.6536 14.6816C64.3781 14.4191 64.0533 14.2142 63.6982 14.079C62.9232 13.7939 62.0729 13.7939 61.2979 14.079C60.9399 14.2153 60.6115 14.4199 60.3309 14.6816C60.0583 14.9396 59.8405 15.2504 59.6907 15.5952C59.3967 16.3279 59.3967 17.1466 59.6907 17.8792C59.8395 18.2222 60.0537 18.5326 60.3212 18.7928C60.6014 19.0552 60.9299 19.2599 61.2883 19.3954C61.6774 19.5409 62.0897 19.6133 62.5048 19.6093C62.9118 19.6136 63.316 19.5411 63.6963 19.3954C64.0501 19.2614 64.3747 19.0594 64.6517 18.8006C64.9247 18.543 65.1426 18.2322 65.2919 17.887C65.4466 17.5235 65.5243 17.1316 65.5201 16.7363C65.5251 16.352 65.4505 15.9709 65.301 15.6171C65.1515 15.2634 64.9304 14.9448 64.6517 14.6816H64.6536ZM64.0927 17.4594C64.0115 17.6705 63.8877 17.8624 63.7291 18.0231C63.5718 18.181 63.3843 18.3053 63.1779 18.3885C62.9618 18.4739 62.7313 18.5168 62.499 18.5149C62.2636 18.5168 62.03 18.4739 61.8105 18.3885C61.6037 18.306 61.4161 18.1816 61.2593 18.0231C61.1034 17.8602 60.98 17.6689 60.8956 17.4594C60.8095 17.2289 60.7668 16.9844 60.7699 16.7382C60.766 16.4914 60.8087 16.246 60.8956 16.0151C60.9809 15.8048 61.1071 15.6138 61.267 15.4533C61.4222 15.2955 61.6078 15.1712 61.8124 15.0879C62.2547 14.9191 62.7433 14.9191 63.1856 15.0879C63.391 15.1698 63.5769 15.2943 63.7311 15.4533C63.8897 15.6129 64.0129 15.8043 64.0927 16.0151C64.2727 16.4795 64.2727 16.9949 64.0927 17.4594ZM88.8494 14.6816C88.5739 14.4191 88.2491 14.2142 87.894 14.079C87.119 13.7939 86.2687 13.7939 85.4937 14.079C85.1357 14.2153 84.8073 14.4199 84.5267 14.6816C84.2546 14.9396 84.0375 15.2504 83.8884 15.5952C83.5924 16.3275 83.5924 17.147 83.8884 17.8792C84.0366 18.2226 84.2509 18.5331 84.5189 18.7928C84.7991 19.0552 85.1276 19.2599 85.486 19.3954C85.8751 19.541 86.2874 19.6135 86.7026 19.6093C87.1095 19.6133 87.5136 19.5408 87.894 19.3954C88.2479 19.2614 88.5724 19.0594 88.8494 18.8006C89.1219 18.543 89.3391 18.2321 89.4877 17.887C89.643 17.5236 89.7214 17.1317 89.7178 16.7363C89.7228 16.352 89.6482 15.9709 89.4987 15.6171C89.3492 15.2634 89.1281 14.9448 88.8494 14.6816ZM88.2885 17.4594C88.2082 17.6694 88.0858 17.8607 87.9288 18.0211C87.7703 18.18 87.5815 18.3049 87.3737 18.3885C87.1575 18.4739 86.9271 18.5168 86.6948 18.5149C86.4594 18.5168 86.2258 18.4739 86.0063 18.3885C85.7999 18.3053 85.6124 18.181 85.4551 18.0231C85.2998 17.8597 85.1765 17.6685 85.0914 17.4594C85.0065 17.2286 84.9639 16.9843 84.9657 16.7382C84.9618 16.4914 85.0045 16.246 85.0914 16.0151C85.1766 15.8042 85.3029 15.6126 85.4628 15.4514C85.6186 15.2948 85.8041 15.1712 86.0082 15.0879C86.4505 14.9191 86.9391 14.9191 87.3814 15.0879C87.5867 15.1679 87.7722 15.2919 87.9249 15.4514C88.0844 15.6113 88.2083 15.8035 88.2885 16.0151C88.4685 16.4795 88.4685 16.9949 88.2885 17.4594ZM95.4738 13.9605H91.2187L91.1568 15.6982C91.1414 16.0948 91.1149 16.4622 91.0775 16.8004C91.0536 17.1009 91.0012 17.3983 90.9209 17.6887C90.8666 17.9036 90.764 18.1031 90.6211 18.2719C90.568 18.3341 90.502 18.3839 90.4277 18.4177C90.3545 18.4525 90.2746 18.4704 90.1936 18.4702H89.979V20.6687H91.1626V19.514H95.0618V20.6609H96.2455V18.4663H95.4718L95.4738 13.9605ZM94.2108 18.4663H91.7351C91.786 18.407 91.8295 18.3417 91.8647 18.2719C91.9693 18.072 92.0467 17.8588 92.0949 17.6382C92.1551 17.3614 92.1971 17.0809 92.2206 16.7985C92.2515 16.4913 92.2767 16.1667 92.2922 15.8265L92.3154 15.0179H94.2108V18.4663ZM101.017 13.9605H102.216V19.514H100.953V15.9043L98.3131 19.514H97.1062V13.9605H98.3769V17.5779L101.017 13.9605ZM103.025 13.9605H107.815V15.0082H106.048V19.514H104.785V15.0082H103.023L103.025 13.9605ZM109.885 18.4838H112.894V19.516H108.614V13.9605H112.792V14.9926H109.891V16.19H112.451V17.1892H109.885V18.4838ZM114.604 13.9624H118.859V19.514H117.596V15.0082H115.701L115.662 16.1745C115.652 16.6602 115.616 17.145 115.552 17.6265C115.504 17.9937 115.411 18.3535 115.275 18.6976C115.176 18.9651 115.004 19.1989 114.778 19.3721C114.544 19.5325 114.265 19.6129 113.981 19.6015C113.881 19.6015 113.781 19.5937 113.682 19.5782C113.581 19.5626 113.471 19.5412 113.349 19.516L113.428 18.4293C113.502 18.4503 113.579 18.4608 113.656 18.4604C113.756 18.4631 113.856 18.4404 113.945 18.3944C114.033 18.3493 114.108 18.2824 114.163 18.2C114.304 17.9623 114.392 17.6972 114.422 17.4224C114.481 17.0205 114.515 16.6155 114.525 16.2095L114.604 13.9624ZM124.457 16.2386C124.093 15.938 123.577 15.787 122.909 15.7857H121.503V13.9605H120.232V19.514H122.727C123.438 19.514 123.993 19.3501 124.393 19.0222C124.797 18.6937 125 18.2136 125 17.5779C125 16.9805 124.819 16.5335 124.457 16.2367V16.2386ZM123.429 18.3166C123.211 18.4916 122.935 18.5794 122.656 18.5635H121.495V16.7382H122.656C122.929 16.7215 123.2 16.7937 123.429 16.9443C123.528 17.0211 123.606 17.1218 123.656 17.237C123.706 17.3522 123.726 17.4782 123.714 17.6032C123.722 17.7359 123.701 17.8688 123.652 17.9923C123.603 18.1157 123.527 18.2265 123.429 18.3166ZM82.7821 15.397C82.7908 15.1882 82.7459 14.9808 82.6518 14.7946C82.5576 14.6083 82.4173 14.4496 82.2444 14.3337C81.8885 14.0849 81.3876 13.9605 80.7455 13.9605H78.1692V19.514H80.8925C81.5926 19.514 82.1245 19.3766 82.4881 19.1019C82.667 18.9703 82.811 18.7965 82.9075 18.5959C83.0039 18.3952 83.0499 18.1738 83.0413 17.9512C83.0521 17.7424 83.0107 17.5343 82.9208 17.3459C82.8309 17.1574 82.6955 16.9946 82.5268 16.8723C82.3689 16.759 82.193 16.6735 82.0065 16.6196C82.1006 16.5745 82.1906 16.5212 82.2754 16.4602C82.4401 16.3383 82.5725 16.1776 82.6609 15.9922C82.7492 15.8068 82.7909 15.6024 82.7821 15.397ZM79.4438 14.9129H80.6352C80.8593 14.8959 81.0822 14.9577 81.2658 15.0879C81.3389 15.1475 81.3965 15.2242 81.4336 15.3112C81.4706 15.3983 81.4861 15.4931 81.4785 15.5875C81.4848 15.6828 81.4688 15.7783 81.4319 15.8664C81.3949 15.9545 81.3381 16.0327 81.2658 16.0948C81.0797 16.2188 80.858 16.2776 80.6352 16.262H79.4438V14.9129ZM81.5191 18.3885C81.3195 18.5165 81.0843 18.5772 80.848 18.5615H79.4438V17.162H80.848C81.0846 17.1459 81.3201 17.2073 81.5191 17.3369C81.5974 17.3964 81.6594 17.4748 81.6993 17.5649C81.7392 17.655 81.7558 17.7538 81.7474 17.852C81.7558 17.954 81.7395 18.0564 81.6997 18.1506C81.66 18.2447 81.598 18.3277 81.5191 18.3924V18.3885ZM76.9295 17.2067C77.0763 17.4222 77.1564 17.6766 77.1595 17.9378C77.1626 18.199 77.0886 18.4553 76.9469 18.6743C76.7991 18.8901 76.6047 19.0695 76.3783 19.1991C76.1195 19.3469 75.8396 19.4537 75.5485 19.516C75.2219 19.5858 74.8881 19.6151 74.5544 19.6034C74.1998 19.5918 73.8476 19.5409 73.5042 19.4518C73.1497 19.3565 72.81 19.2126 72.4945 19.0242L72.8814 18.1028C73.1184 18.2472 73.3733 18.3596 73.6395 18.4371C73.8996 18.5094 74.1669 18.5518 74.4364 18.5635C74.6763 18.572 74.9161 18.5452 75.1482 18.4838C75.3371 18.4388 75.5127 18.3496 75.6607 18.2233C75.7238 18.1682 75.7739 18.0997 75.8074 18.0227C75.8408 17.9457 75.8568 17.8621 75.8541 17.7782C75.8593 17.6835 75.8375 17.5893 75.7913 17.5066C75.745 17.424 75.6762 17.3563 75.593 17.3116C75.38 17.1969 75.14 17.1424 74.8987 17.1542H73.5448V16.19H74.8C75.0118 16.2034 75.2221 16.1474 75.3996 16.0306C75.4707 15.9813 75.528 15.9143 75.5659 15.8363C75.6073 15.7601 75.628 15.6742 75.6259 15.5875C75.6302 15.515 75.6183 15.4425 75.5912 15.3753C75.5641 15.308 75.5225 15.2477 75.4692 15.1987C75.3476 15.0935 75.2022 15.0201 75.0456 14.9849C74.847 14.9361 74.6426 14.9152 74.4383 14.9227C74.2 14.9301 73.9635 14.9673 73.7343 15.0335C73.4932 15.103 73.2604 15.1988 73.04 15.3192L72.6531 14.3278C73.0074 14.1403 73.3884 14.0091 73.7827 13.9391C74.165 13.8659 74.5557 13.8475 74.9431 13.8846C75.2916 13.9099 75.6332 13.9954 75.9527 14.1373C76.23 14.2526 76.4759 14.4325 76.6703 14.6622C76.851 14.8799 76.9465 15.1563 76.9391 15.4397C76.9428 15.6903 76.8714 15.9361 76.7341 16.1453C76.5896 16.3553 76.3883 16.5192 76.1539 16.6177H76.1423C76.1971 16.6365 76.2506 16.6586 76.3028 16.6838C76.5587 16.7905 76.7783 16.9694 76.9353 17.1989L76.9295 17.2067ZM70.3535 19.514V15.9043L67.7134 19.514H66.5065V13.9605H67.7772V17.5779L70.4134 13.9605H71.6145V19.514H70.3535ZM55.4318 17.9823H56.5458C56.9825 17.9933 57.4166 17.9125 57.8204 17.7451C58.1585 17.5983 58.4467 17.3558 58.6501 17.0473C58.8414 16.7216 58.9422 16.3504 58.9422 15.9723C58.9422 15.5942 58.8414 15.223 58.6501 14.8974C58.4479 14.5896 58.159 14.3494 57.8204 14.2073C57.417 14.0332 56.9808 13.949 56.542 13.9605H54.1572V19.514H55.4356L55.4318 17.9823ZM55.4318 15.0082H56.4781C56.7933 14.9837 57.1068 15.0734 57.362 15.2609C57.4577 15.3523 57.5322 15.4638 57.58 15.5874C57.6278 15.7111 57.6478 15.8439 57.6386 15.9762C57.6455 16.1086 57.6229 16.2408 57.5724 16.3633C57.5218 16.4857 57.4447 16.5952 57.3465 16.6838C57.0913 16.8713 56.7779 16.9609 56.4627 16.9365H55.4202L55.4318 15.0082ZM49.0144 19.514H47.7417V13.9605H52.7704V19.514H51.5074V15.0082H49.0144V19.514ZM79.1324 9.12418H77.9255V3.57062H79.1963V7.18811L81.8325 3.57062H83.0316V9.12418H81.7686V5.51447L79.1324 9.12418ZM78.9429 2H79.819C79.8155 2.08017 79.8284 2.16023 79.857 2.23515C79.8856 2.31007 79.9293 2.37825 79.9854 2.43542C80.1263 2.54014 80.2999 2.59049 80.4747 2.57732C80.647 2.58965 80.8179 2.53928 80.9563 2.43542C81.0134 2.37875 81.0582 2.31079 81.0878 2.23585C81.1174 2.1609 81.1313 2.0806 81.1284 2L82.0085 2C82.0144 2.16889 81.9828 2.33698 81.9159 2.49201C81.8489 2.64704 81.7484 2.7851 81.6216 2.89611C81.3741 3.10734 80.9873 3.21296 80.4612 3.21296C79.9351 3.21296 79.5483 3.10734 79.3007 2.89611C79.1799 2.78179 79.0854 2.64242 79.0236 2.48767C78.9618 2.33292 78.9342 2.16652 78.9429 2ZM103.456 9.12418H102.249V3.57062H103.52V7.18811L106.156 3.57062H107.355V9.12418H106.092V5.51447L103.456 9.12418ZM103.266 2H104.142C104.139 2.08017 104.152 2.16023 104.18 2.23515C104.209 2.31007 104.253 2.37825 104.309 2.43542C104.45 2.54014 104.623 2.59049 104.798 2.57732C104.97 2.58965 105.141 2.53928 105.28 2.43542C105.337 2.37875 105.382 2.31079 105.411 2.23585C105.441 2.1609 105.455 2.0806 105.452 2L106.328 2C106.334 2.1689 106.303 2.33704 106.236 2.49209C106.169 2.64714 106.068 2.78519 105.941 2.89611C105.694 3.10734 105.307 3.21296 104.781 3.21296C104.255 3.21296 103.868 3.10734 103.62 2.89611C103.5 2.78176 103.406 2.64228 103.344 2.48747C103.283 2.33266 103.257 2.16628 103.266 2ZM99.6089 5.51447L96.9708 9.12418H95.7639V3.57062H97.0346V7.18811L99.6728 3.57062H100.872V9.12418H99.6089V5.51447ZM91.3909 9.12418H90.1201V3.57062H91.3909V5.81576H92.3115L93.7602 3.57062H95.114L93.3056 6.25312L95.1605 9.12418H93.7099L92.2709 6.88682H91.3889L91.3909 9.12418ZM84.2501 7.49718C84.0988 7.13287 84.0238 6.74116 84.0296 6.34643C84.0241 5.95173 84.0991 5.56009 84.2501 5.19568C84.3979 4.84905 84.6152 4.53673 84.8884 4.27818C85.162 4.0217 85.4844 3.82336 85.8361 3.69503C86.2191 3.54647 86.6266 3.47195 87.0372 3.47538C87.4819 3.46821 87.9232 3.55427 88.333 3.72807C88.714 3.88731 89.0501 4.13832 89.3117 4.45896L88.4897 5.22094C88.3167 5.01579 88.1016 4.85067 87.8592 4.73693C87.6222 4.62456 87.363 4.56742 87.101 4.56976C86.8578 4.56717 86.6163 4.6107 86.3892 4.69805C86.1789 4.77823 85.9878 4.90209 85.8283 5.06155C85.6693 5.2234 85.5431 5.41488 85.457 5.62526C85.37 5.85548 85.3273 6.10021 85.3313 6.34643C85.3274 6.59328 85.37 6.83864 85.457 7.06954C85.5398 7.28051 85.6626 7.47329 85.8187 7.63714C85.9781 7.7966 86.1693 7.92046 86.3796 8.00064C86.6067 8.08799 86.8482 8.13152 87.0913 8.12893C87.3525 8.13091 87.611 8.07655 87.8495 7.96954C88.0926 7.84997 88.3076 7.67966 88.48 7.46997L89.302 8.22029C89.0399 8.54234 88.7041 8.79579 88.3233 8.95895C87.9112 9.13399 87.4672 9.22072 87.0198 9.21359C86.6135 9.21566 86.2101 9.14524 85.8283 9.0056C85.4755 8.87058 85.1532 8.66566 84.8806 8.40301C84.6124 8.1464 84.398 7.8384 84.2501 7.49718ZM72.6454 9.12418H71.4385V3.57062H72.7092V7.18811L75.3493 3.57062H76.5484V9.12418H75.2855V5.51447L72.6454 9.12418ZM67.1293 9.01338C66.7791 8.87831 66.4589 8.67482 66.1874 8.41468C65.9183 8.15535 65.7033 7.84478 65.5549 7.50107C65.4037 7.13675 65.3286 6.74504 65.3344 6.35032C65.3289 5.95562 65.404 5.56398 65.5549 5.19956C65.7034 4.85324 65.9207 4.54101 66.1934 4.28197C66.4661 4.02294 66.7885 3.82256 67.1409 3.69309C67.5219 3.54757 67.9267 3.47505 68.3343 3.47926C68.7787 3.47058 69.2201 3.55533 69.6301 3.72807C70.0111 3.88731 70.3472 4.13832 70.6088 4.45896L69.7887 5.22094C69.6151 5.0157 69.3993 4.85059 69.1563 4.73693C68.9193 4.62456 68.6601 4.56742 68.3981 4.56976C68.155 4.56763 67.9136 4.61114 67.6863 4.69805C67.4766 4.77826 67.2861 4.90214 67.1274 5.06155C66.9675 5.22272 66.8412 5.41438 66.756 5.62526C66.5859 6.09151 66.5859 6.60329 66.756 7.06954C66.8412 7.28043 66.9675 7.47208 67.1274 7.63325C67.2861 7.79266 67.4766 7.91654 67.6863 7.99675C67.9136 8.08366 68.155 8.12717 68.3981 8.12504C68.6592 8.12702 68.9178 8.07267 69.1563 7.96565C69.3996 7.84551 69.6151 7.67531 69.7887 7.46608L70.6068 8.22029C70.3451 8.54273 70.0092 8.79626 69.6282 8.95895C69.216 9.13399 68.772 9.22072 68.3246 9.21359C67.9188 9.21815 67.5154 9.15037 67.1332 9.01338H67.1293ZM59.9383 7.49718C59.787 7.13287 59.7119 6.74116 59.7178 6.34643C59.7123 5.95173 59.7873 5.56009 59.9383 5.19568C60.0868 4.84935 60.304 4.53712 60.5767 4.27809C60.8494 4.01905 61.1718 3.81867 61.5242 3.6892C61.9053 3.54368 62.31 3.47116 62.7176 3.47538C63.1649 3.46683 63.6091 3.55293 64.0212 3.72807C64.3979 3.88896 64.7299 4.13985 64.9882 4.45896L64.1682 5.22094C63.994 5.01627 63.7784 4.85127 63.5357 4.73693C63.2993 4.62485 63.0408 4.56771 62.7795 4.56976C62.5363 4.56717 62.2948 4.6107 62.0677 4.69805C61.8572 4.77776 61.666 4.90168 61.5068 5.06155C61.3469 5.22272 61.2207 5.41438 61.1355 5.62526C60.9654 6.09151 60.9654 6.60329 61.1355 7.06954C61.2202 7.28181 61.3465 7.47483 61.5068 7.63714C61.666 7.79701 61.8572 7.92093 62.0677 8.00064C62.2948 8.08799 62.5363 8.13152 62.7795 8.12893C63.04 8.13087 63.2979 8.07651 63.5357 7.96954C63.779 7.8494 63.9945 7.6792 64.1682 7.46997L64.9882 8.22029C64.7265 8.54273 64.3906 8.79626 64.0096 8.95895C63.5981 9.134 63.1547 9.22073 62.7079 9.21359C62.301 9.21564 61.897 9.14523 61.5146 9.0056C61.1626 8.86983 60.8411 8.66499 60.5688 8.40301C60.3026 8.14544 60.0897 7.83762 59.9421 7.49718H59.9383ZM53.9174 8.40301C54.1972 8.66578 54.5258 8.87054 54.8844 9.0056C55.2729 9.15103 55.6846 9.2235 56.099 9.21943C56.5066 9.22364 56.9114 9.15112 57.2924 9.0056C57.6454 8.87276 57.9693 8.67204 58.2459 8.41468C58.5189 8.15708 58.7368 7.84621 58.8861 7.50107C59.0408 7.13755 59.1185 6.74566 59.1143 6.35032C59.1193 5.96603 59.0447 5.58491 58.8952 5.23118C58.7457 4.87746 58.5246 4.55887 58.2459 4.29568C57.9712 4.03291 57.647 3.82803 57.2924 3.69309C56.5175 3.40797 55.6671 3.40797 54.8922 3.69309C54.5335 3.82815 54.2049 4.03291 53.9251 4.29568C53.6525 4.55363 53.4347 4.86441 53.2849 5.20928C53.1347 5.57121 53.0597 5.96015 53.0644 6.35226C53.0599 6.74372 53.1349 7.13199 53.2849 7.4933C53.4337 7.83675 53.6487 8.14724 53.9174 8.4069V8.40301ZM54.486 5.62526C54.5708 5.41472 54.6971 5.22362 54.8573 5.06349C55.0122 4.90617 55.197 4.78187 55.4008 4.69805C55.8432 4.52924 56.3317 4.52924 56.774 4.69805C56.9803 4.77827 57.1665 4.90302 57.3195 5.06349C57.4781 5.22343 57.6019 5.41473 57.6831 5.62526C57.7747 5.85507 57.82 6.10084 57.8165 6.34837C57.8199 6.59526 57.7745 6.84036 57.6831 7.06954C57.6024 7.2809 57.4785 7.47293 57.3195 7.63325C57.1614 7.79121 56.9733 7.9155 56.7663 7.99869C56.5505 8.0852 56.3198 8.12813 56.0874 8.12504C55.8527 8.12698 55.6197 8.0841 55.4008 7.99869C55.1958 7.91573 55.0091 7.79286 54.8515 7.63714C54.6962 7.4742 54.5735 7.28284 54.4899 7.07343C54.3197 6.60718 54.3197 6.0954 54.4899 5.62915L54.486 5.62526ZM49.0202 7.59243H50.1342C50.5728 7.60395 51.0089 7.52317 51.4146 7.35528C51.758 7.20976 52.0492 6.96252 52.2492 6.6465C52.4493 6.33047 52.5488 5.96068 52.5345 5.58639C52.545 5.20571 52.4434 4.83038 52.2424 4.50756C52.0402 4.1998 51.7513 3.95957 51.4127 3.81749C51.0093 3.6434 50.5731 3.55918 50.1342 3.57062H47.7417V9.12418H49.0221L49.0202 7.59243ZM49.0202 4.61835H50.0627C50.3782 4.59324 50.6922 4.68368 50.9466 4.873C51.0456 4.96249 51.1233 5.07329 51.1739 5.19714C51.2245 5.32099 51.2466 5.4547 51.2386 5.58833C51.2458 5.72044 51.2233 5.85248 51.1727 5.97464C51.1222 6.0968 51.0449 6.20594 50.9466 6.29395C50.6918 6.48247 50.3781 6.57283 50.0627 6.54859H49.0221L49.0202 4.61835Z" fill="#A6A5B7"/>
</svg>
