<svg width="210" height="32" viewBox="0 0 210 32" fill="none" xmlns="http://www.w3.org/2000/svg">
<path d="M14.3816 2.12891H131.039L119.678 28.234C119.102 29.5827 117.982 30.1289 116.63 30.1289H0.0390625L11.4333 3.91235C11.8877 2.80884 12.9518 2.12891 14.3816 2.12891Z" fill="#A6A5B7"/>
<path d="M135.28 2.12891H209.039L197.769 28.234C197.186 29.5827 196.086 30.1289 194.732 30.1289H121.039L132.364 3.91235C132.815 2.80884 133.871 2.12891 135.28 2.12891Z" fill="#A6A5B7"/>
<path d="M202.308 7.32352L201.975 7.33489L201.776 8.06303H202.119C202.363 8.05166 202.674 8.01752 202.762 7.69896C202.829 7.41452 202.563 7.32352 202.308 7.32352ZM202.452 7.05047C202.84 7.05047 203.195 7.28939 203.106 7.72172C203.028 8.04028 202.796 8.26783 202.474 8.29059L202.707 9.25765H202.297L202.108 8.32472H201.709L201.454 9.28041H201.044L201.642 7.06185L202.452 7.05047ZM203.782 8.17681C203.782 7.9379 203.727 7.69897 203.638 7.4828C203.55 7.26664 203.428 7.07322 203.261 6.91394C203.095 6.74328 202.906 6.61813 202.685 6.52711C202.474 6.44747 202.252 6.40197 202.008 6.40197C201.776 6.41334 201.554 6.45885 201.343 6.54987C201.132 6.64089 200.955 6.76603 200.8 6.93669C200.633 7.10735 200.5 7.31214 200.412 7.53969C200.334 7.75585 200.29 7.9834 200.29 8.22233C200.29 8.44987 200.345 8.67742 200.434 8.89358C200.523 9.09837 200.656 9.29179 200.822 9.46245C200.988 9.63311 201.177 9.75826 201.399 9.84927C201.609 9.94029 201.831 9.97442 202.053 9.97442C202.286 9.97442 202.507 9.92891 202.718 9.82652C202.929 9.7355 203.128 9.61035 203.295 9.42831C203.461 9.26903 203.583 9.07562 203.66 8.85944C203.749 8.64328 203.782 8.41574 203.782 8.17681ZM201.997 6.12891C202.274 6.12891 202.529 6.17442 202.773 6.27681C203.028 6.37921 203.239 6.52711 203.439 6.72052C203.627 6.91394 203.771 7.1301 203.882 7.3804C203.982 7.6307 204.037 7.881 204.037 8.15406C204.048 8.43849 204.004 8.70017 203.904 8.95046C203.816 9.20076 203.672 9.41693 203.483 9.61034C203.283 9.81513 203.073 9.97442 202.818 10.0768C202.585 10.1906 202.33 10.2475 202.064 10.2475C201.798 10.2588 201.543 10.202 201.299 10.0996C201.055 9.99717 200.833 9.84926 200.645 9.65586C200.445 9.46244 200.301 9.24628 200.19 8.99597C200.09 8.74567 200.035 8.49538 200.035 8.22232C200.024 7.94927 200.068 7.68759 200.179 7.42592C200.279 7.17561 200.423 6.94808 200.611 6.74328C200.789 6.53849 200.999 6.39058 201.232 6.28818C201.465 6.18578 201.72 6.14028 201.997 6.12891ZM142.967 7.06184C140.971 11.5217 139.019 16.0271 137.19 20.4756C139.807 20.5097 142.446 20.4756 145.062 20.4187C144.33 21.9888 143.654 23.5588 143.022 25.1289C138.509 25.0493 133.952 25.0493 129.362 25.1289C132.079 19.1103 134.673 13.0918 137.157 7.06183C139.086 7.09596 141.015 7.09597 142.967 7.06184ZM159.088 7.06184C156.405 13.0918 153.799 19.1103 151.293 25.1289C149.398 25.1175 147.457 25.1175 145.506 25.1289C148.189 19.1559 150.795 13.1373 153.3 7.06184C155.23 7.10735 157.159 7.10735 159.088 7.06184ZM180.487 7.06184C177.826 13.0235 175.232 19.0421 172.693 25.1289C170.719 25.1061 168.757 25.1061 166.805 25.1289C166.251 22.1481 165.619 19.1559 164.909 16.175C164.831 15.8678 164.721 15.2648 164.721 14.9235C164.643 15.2648 164.399 15.8678 164.266 16.175C162.947 19.1559 161.683 22.1481 160.463 25.1289C158.534 25.1061 156.593 25.1061 154.653 25.1289C157.314 19.1103 159.92 13.0918 162.448 7.06184C164.399 7.10735 166.339 7.10735 168.28 7.06184C168.901 10.0427 169.577 13.0235 170.298 16.0044C170.364 16.2774 170.475 16.8008 170.475 17.1079C170.564 16.778 170.752 16.2888 170.874 16.0044C172.194 13.0576 173.458 10.0768 174.677 7.06184C176.629 7.09597 178.569 7.09597 180.487 7.06184ZM184.922 17.9726C184.556 18.769 184.246 19.5882 183.902 20.4187C187.162 20.4528 190.422 20.4528 193.67 20.4187C192.961 21.9888 192.285 23.5588 191.641 25.1289C186.441 25.072 181.252 25.072 176.052 25.1289C178.746 19.1445 181.341 13.1145 183.858 7.06183C188.947 7.14147 194.059 7.14147 199.192 7.06183C198.482 8.63189 197.806 10.2019 197.163 11.772C193.981 11.7265 190.81 11.7151 187.628 11.772C187.284 12.5229 186.918 13.3079 186.597 14.0474C189.335 14.093 192.129 14.0588 194.868 14.0247C194.269 15.3444 193.693 16.6756 193.149 17.9953C190.411 17.9726 187.661 17.9385 184.922 17.9726Z" fill="#F7F7F8"/>
<path d="M40.916 13.8654C43.056 13.8768 45.1959 13.8768 47.3358 13.8654C45.6615 17.5971 44.0649 21.3516 42.5459 25.1289C40.406 25.0947 38.2661 25.0947 36.1262 25.1289C37.7782 21.3744 39.3638 17.6199 40.916 13.8654Z" fill="#F7F7F8"/>
<path d="M56.4831 7.03906C55.7402 8.72289 55.0306 10.4067 54.3432 12.0906C43.1779 12.0564 32.0127 12.045 20.8474 12.0906C19.6499 12.1019 19.3506 13.8313 20.1156 13.8426C22.7877 13.8768 25.4709 13.8768 28.1431 13.8426C31.7244 13.8426 33.1547 16.448 31.8463 19.5199C30.2497 23.263 27.8326 25.1061 23.7413 25.1061C18.8184 25.0492 13.9176 25.0492 9.03906 25.1061C9.80411 23.4223 10.5248 21.7385 11.1901 20.0546C15.6806 20.1001 20.1711 20.1001 24.6726 20.0546C26.0586 20.0205 26.4134 18.3253 25.4044 18.3025C22.5549 18.2798 19.7054 18.2798 16.8559 18.3025C12.9974 18.3025 12.8643 14.9121 14.0063 12.2385C15.3923 8.97319 18.0977 7.03906 21.6457 7.03906C33.2766 7.07319 44.8854 7.07319 56.4831 7.03906Z" fill="#F7F7F8"/>
<path d="M69.7772 13.8426C70.0211 13.2624 70.2428 12.6822 70.4757 12.0906C68.5353 12.0678 66.595 12.0678 64.6547 12.0906C63.3796 12.0906 62.3595 12.6708 61.8828 13.8995C60.2418 17.6313 58.6563 21.3744 57.1262 25.1061C54.9863 25.072 52.8463 25.0834 50.7064 25.1061C52.4472 21.1468 54.1214 17.1648 55.7513 13.1486C57.2814 9.36 59.8205 7.03905 64.3331 7.03905C69.2339 7.08456 74.1457 7.08456 79.0464 7.03905C76.4187 13.0576 73.8574 19.0875 71.3627 25.1061C69.2228 25.0834 67.0939 25.0834 64.954 25.1061C65.8854 22.9672 66.8278 20.8169 67.7259 18.678C65.6858 18.6438 63.6013 18.6438 61.5612 18.678C62.1378 17.3355 62.7143 16.0043 63.2576 14.6732C63.5459 14.0361 63.9672 13.8426 64.6547 13.8426C66.3622 13.854 68.0918 13.854 69.7772 13.8426Z" fill="#F7F7F8"/>
<path d="M80.4546 25.1061C82.2286 20.7373 84.0691 16.3912 85.9762 12.0906C88.7814 12.0678 91.5865 12.0564 94.3917 12.0906C95.445 12.1133 94.8907 13.8654 93.8595 13.8426C91.3759 13.8882 89.0586 13.8882 86.5749 13.8426C86.7856 17.5971 86.9297 21.3516 87.0184 25.1061C89.369 25.072 91.7196 25.072 94.0813 25.1061C93.7708 23.2516 93.5047 21.3971 93.2941 19.5313C93.2608 19.2696 93.2164 18.8714 93.0834 18.5869C93.2941 18.7349 93.671 18.7462 93.8928 18.7349C97.1193 18.6097 99.1151 17.0965 100.49 14.6618C102.297 11.4876 101.466 7.03905 96.6869 7.03905C91.1985 7.09593 87.2069 7.09593 81.7075 7.03905C79.2127 13.0576 76.6626 19.0875 74.0348 25.1061C76.1636 25.0834 78.3036 25.0834 80.4546 25.1061Z" fill="#F7F7F8"/>
<path d="M108.185 13.8654C110.325 13.8995 112.465 13.8995 114.604 13.8654C112.964 17.6199 111.367 21.3744 109.815 25.1289C107.675 25.1175 105.535 25.1175 103.395 25.1289C105.058 21.3744 106.655 17.6199 108.185 13.8654Z" fill="#F7F7F8"/>
<path d="M104.992 7.06181C111.245 7.09594 117.498 7.09594 123.752 7.06181C123.009 8.74564 122.299 10.4295 121.612 12.1133C115.358 12.0337 109.094 12.0337 102.841 12.1133C103.594 10.4522 104.315 8.75702 104.992 7.06181Z" fill="#F7F7F8"/>
</svg>
