<svg width="190" height="32" viewBox="0 0 190 32" fill="none" xmlns="http://www.w3.org/2000/svg">
<path d="M9.75643 25.6C7.31732 25.6 5.2615 25.0839 3.58897 24.0516C1.91644 22.9964 0.720118 21.5283 0 19.6473L4.80853 16.8946C5.78417 19.1197 7.49155 20.2323 9.93065 20.2323C12.1375 20.2323 13.2409 19.5785 13.2409 18.271C13.2409 17.5369 12.8808 16.9864 12.1607 16.6194C11.4173 16.1835 10.0933 15.7133 8.18843 15.2086C6.23715 14.681 4.58785 13.924 3.24053 12.9376C1.75383 11.7448 1.01049 10.0588 1.01049 7.87957C1.01049 5.65448 1.81191 3.8767 3.41475 2.54624C5.04082 1.21577 6.96888 0.550537 9.19892 0.550537C11.1967 0.550537 12.9621 1.02079 14.4953 1.96129C16.0284 2.87885 17.2364 4.22079 18.1191 5.9871L13.4151 8.70538C12.5324 6.84731 11.127 5.91828 9.19892 5.91828C8.38589 5.91828 7.74707 6.09032 7.28248 6.43441C6.81789 6.77849 6.58559 7.21434 6.58559 7.74194C6.58559 8.31541 6.86435 8.83154 7.42186 9.29032C8.02583 9.7491 9.21054 10.2308 10.976 10.7355L13.2409 11.4581C13.8216 11.6416 14.4953 11.9513 15.2618 12.3871C16.0981 12.8 16.7253 13.2473 17.1434 13.729C18.2585 14.9219 18.816 16.4129 18.816 18.2022C18.816 20.4731 17.9797 22.2853 16.3072 23.6387C14.6346 24.9462 12.4511 25.6 9.75643 25.6Z" fill="#A6A5B7"/>
<path d="M31.1269 7.91398V12.8688H27.538V18.9591C27.538 19.6244 27.8051 20.0602 28.3394 20.2667C28.8737 20.4502 29.8029 20.5075 31.1269 20.4387V25.1183C27.8283 25.4624 25.5286 25.1527 24.2277 24.1892C22.9501 23.2029 22.3113 21.4595 22.3113 18.9591V12.8688H19.5238V7.91398H22.3113V4.64516L27.538 3.09677V7.91398H31.1269Z" fill="#A6A5B7"/>
<path d="M48.6594 22.9849C46.8939 24.7283 44.7104 25.6 42.1086 25.6C39.5069 25.6 37.3233 24.7283 35.5579 22.9849C33.7692 21.2186 32.8749 19.0624 32.8749 16.5161C32.8749 13.9928 33.7692 11.848 35.5579 10.0817C37.3466 8.31541 39.5302 7.43226 42.1086 7.43226C44.6871 7.43226 46.8707 8.31541 48.6594 10.0817C50.4481 11.848 51.3424 13.9928 51.3424 16.5161C51.3424 19.0624 50.4481 21.2186 48.6594 22.9849ZM38.1015 16.5161C38.1015 17.709 38.4848 18.6839 39.2514 19.4409C40.018 20.1978 40.9704 20.5763 42.1086 20.5763C43.2469 20.5763 44.1993 20.1978 44.9659 19.4409C45.7325 18.6839 46.1157 17.709 46.1157 16.5161C46.1157 15.3233 45.7325 14.3484 44.9659 13.5914C44.1993 12.8344 43.2469 12.4559 42.1086 12.4559C40.9704 12.4559 40.018 12.8344 39.2514 13.5914C38.4848 14.3484 38.1015 15.3233 38.1015 16.5161Z" fill="#A6A5B7"/>
<path d="M69.2121 22.9849C67.4467 24.7283 65.2631 25.6 62.6614 25.6C60.0597 25.6 57.8761 24.7283 56.1106 22.9849C54.322 21.2186 53.4276 19.0624 53.4276 16.5161C53.4276 13.9928 54.322 11.848 56.1106 10.0817C57.8993 8.31541 60.0829 7.43226 62.6614 7.43226C65.2399 7.43226 67.4235 8.31541 69.2121 10.0817C71.0008 11.848 71.8952 13.9928 71.8952 16.5161C71.8952 19.0624 71.0008 21.2186 69.2121 22.9849ZM58.6543 16.5161C58.6543 17.709 59.0376 18.6839 59.8042 19.4409C60.5707 20.1978 61.5231 20.5763 62.6614 20.5763C63.7996 20.5763 64.7521 20.1978 65.5186 19.4409C66.2852 18.6839 66.6685 17.709 66.6685 16.5161C66.6685 15.3233 66.2852 14.3484 65.5186 13.5914C64.7521 12.8344 63.7996 12.4559 62.6614 12.4559C61.5231 12.4559 60.5707 12.8344 59.8042 13.5914C59.0376 14.3484 58.6543 15.3233 58.6543 16.5161Z" fill="#A6A5B7"/>
<path d="M80.0781 25.1183H74.8515V0H80.0781V25.1183Z" fill="#A6A5B7"/>
<path d="M104.635 13.1785H116.831V14.6237C116.831 17.7663 115.739 20.3814 113.555 22.4688C111.372 24.5333 108.48 25.5656 104.879 25.5656C101.162 25.5656 98.0845 24.3613 95.6454 21.9527C93.2296 19.4982 92.0216 16.5391 92.0216 13.0753C92.0216 9.61147 93.2296 6.6638 95.6454 4.23226C98.0845 1.80072 101.139 0.584945 104.81 0.584945C107.04 0.584945 109.107 1.12401 111.012 2.20215C112.94 3.28029 114.392 4.67957 115.367 6.4L112.58 8.0172C111.883 6.70968 110.826 5.66595 109.409 4.88602C107.992 4.08315 106.447 3.68172 104.775 3.68172C101.964 3.68172 99.6758 4.58781 97.9103 6.4C96.1216 8.21219 95.2273 10.4373 95.2273 13.0753C95.2273 15.7133 96.1216 17.9384 97.9103 19.7505C99.7222 21.5398 102.057 22.4344 104.914 22.4344C107.307 22.4344 109.258 21.8609 110.768 20.714C112.301 19.5441 113.242 17.9957 113.59 16.0688H104.635V13.1785Z" fill="#A6A5B7"/>
<path d="M123.489 7.91398V10.8043C124.488 8.67097 126.3 7.6043 128.925 7.6043V10.7355C127.438 10.6667 126.161 11.0566 125.092 11.9054C124.023 12.7541 123.489 14.119 123.489 16V25.1183H120.458V7.91398H123.489Z" fill="#A6A5B7"/>
<path d="M145.643 22.9505C143.877 24.6939 141.705 25.5656 139.127 25.5656C136.548 25.5656 134.376 24.6939 132.611 22.9505C130.845 21.2072 129.963 19.0624 129.963 16.5161C129.963 13.9699 130.845 11.8251 132.611 10.0817C134.376 8.33835 136.548 7.46667 139.127 7.46667C141.705 7.46667 143.877 8.33835 145.643 10.0817C147.431 11.848 148.326 13.9928 148.326 16.5161C148.326 19.0394 147.431 21.1842 145.643 22.9505ZM139.127 22.6409C140.869 22.6409 142.332 22.0559 143.517 20.886C144.702 19.7161 145.294 18.2595 145.294 16.5161C145.294 14.7728 144.702 13.3161 143.517 12.1462C142.332 10.9763 140.869 10.3914 139.127 10.3914C137.408 10.3914 135.956 10.9763 134.771 12.1462C133.586 13.3161 132.994 14.7728 132.994 16.5161C132.994 18.2595 133.586 19.7161 134.771 20.886C135.956 22.0559 137.408 22.6409 139.127 22.6409Z" fill="#A6A5B7"/>
<path d="M163.921 17.0323V7.91398H166.952V25.1183H163.921V22.6409C162.713 24.5907 160.831 25.5656 158.276 25.5656C156.232 25.5656 154.594 24.9348 153.363 23.6731C152.132 22.3885 151.516 20.6566 151.516 18.4774V7.91398H154.547V18.3054C154.547 19.6817 154.931 20.7599 155.697 21.5398C156.464 22.3197 157.521 22.7097 158.868 22.7097C160.425 22.7097 161.656 22.2394 162.562 21.2989C163.468 20.3355 163.921 18.9133 163.921 17.0323Z" fill="#A6A5B7"/>
<path d="M181.184 7.46667C183.623 7.46667 185.703 8.34982 187.422 10.1161C189.141 11.8824 190 14.0158 190 16.5161C190 19.0394 189.141 21.1842 187.422 22.9505C185.726 24.6939 183.647 25.5656 181.184 25.5656C178.304 25.5656 176.109 24.4301 174.599 22.1591V32H171.567V7.91398H174.599V10.8731C176.109 8.60215 178.304 7.46667 181.184 7.46667ZM180.801 22.6753C182.543 22.6753 184.007 22.0903 185.191 20.9204C186.376 19.7047 186.969 18.2366 186.969 16.5161C186.969 14.7728 186.376 13.3161 185.191 12.1462C184.007 10.9534 182.543 10.357 180.801 10.357C179.036 10.357 177.561 10.9534 176.376 12.1462C175.191 13.3161 174.599 14.7728 174.599 16.5161C174.599 18.2366 175.191 19.7047 176.376 20.9204C177.561 22.0903 179.036 22.6753 180.801 22.6753Z" fill="#A6A5B7"/>
</svg>
