<svg width="117" height="90" viewBox="0 0 117 90" fill="none" xmlns="http://www.w3.org/2000/svg">
<path d="M31.0867 82.2406C31.0897 84.6231 31.2595 86.5383 29.5051 88.3869C26.2592 91.5625 20.7682 89.7884 20.0078 85.3434C19.835 84.3333 19.872 83.1897 19.8715 82.1622L19.8729 64.1362H31.0841L31.0867 82.2406Z" fill="url(#paint0_linear_1618_1590)"/>
<path d="M88.0935 70.0857C88.9025 70.0288 89.2716 70.3122 89.8282 70.8706L97.6174 78.7052C98.3223 79.4259 100.102 80.9809 100.454 81.9258C100.803 82.8653 100.052 84.0094 98.9868 84.2359C97.2774 84.2676 95.8439 82.1235 94.6415 80.9336C92.0923 78.4105 89.5595 75.8831 87.0744 73.2989C85.9387 72.1174 86.3255 70.3711 88.0935 70.0857Z" fill="url(#paint1_linear_1618_1590)"/>
<path d="M74.6572 11.8762C76.0858 11.7356 76.8674 12.6041 76.8693 13.9911L76.8656 69.0079C76.8614 70.1492 76.5889 72.9219 74.7138 72.3008C69.7986 70.6726 64.8404 69.1525 59.8948 67.6103L40.4214 61.5195C39.2732 61.1687 37.8799 60.6983 36.7278 60.4867C36.678 59.8414 36.7244 58.4857 36.7248 57.7921L36.7278 52.2225C38.158 52.7699 39.6568 53.4397 41.0782 54.0357L47.9627 56.87C50.7614 57.9494 52.4961 54.8644 48.9541 53.3004C44.9422 51.5291 40.8283 49.8596 36.7278 48.297C36.6639 47.4108 36.725 45.565 36.7255 44.5935L36.7278 36.9464C40.8959 35.4023 45.9596 33.1472 49.9386 31.1636C51.4385 30.5256 50.905 26.7524 47.7398 28.1994C44.1033 29.8615 40.3376 31.3621 36.7278 33.0564V25.1595C38.5984 24.426 40.2408 23.8805 42.1122 23.2273L61.7655 16.3498C65.6518 14.9972 70.7342 12.8066 74.6572 11.8762Z" fill="url(#paint2_linear_1618_1590)"/>
<path fill-rule="evenodd" clip-rule="evenodd" d="M18.276 25.6299C19.6934 25.5664 21.6675 25.6275 23.1148 25.6277L32.8016 25.6299C32.8596 29.457 32.8016 33.4303 32.8016 37.2707V60.4869L22.5747 60.4884C20.8979 60.491 19.1767 60.7308 17.6441 60.0472C13.7207 58.2971 14.4898 54.0807 14.492 50.4742L14.4911 33.2041C14.4914 29.7083 14.1124 26.6056 18.276 25.6299ZM19.8729 49.6254C18.0174 49.8344 17.5595 51.9537 18.8945 53.0219C19.5328 53.5324 21.627 53.382 22.488 53.3817L27.5449 53.3771C29.6599 52.9723 29.756 49.754 27.4106 49.6667C26.4138 49.6295 25.5091 49.6221 24.5461 49.6214L19.8729 49.6254ZM28.5035 40.7534C27.2014 39.8263 21.5645 40.4365 19.7769 40.2551C17.9919 40.7675 17.3301 43.0398 19.1302 43.8693C19.3893 43.9884 26.466 44.1238 27.7779 43.9643C29.3715 43.7753 29.789 41.6684 28.5035 40.7534ZM27.7413 31.3575C27.0023 31.2293 25.6516 31.2893 24.8594 31.2886L19.8729 31.2928C17.5283 31.6065 17.5255 34.6979 19.8477 34.874C20.7371 34.9415 21.6459 34.9193 22.5389 34.9186L27.5449 34.9151C29.7951 34.6402 29.7231 31.7015 27.7413 31.3575Z" fill="url(#paint3_linear_1618_1590)"/>
<path d="M100.169 50.9356C101.584 50.8083 107.293 52.9872 108.889 53.5049L113.208 54.9222C113.85 55.1363 115.166 55.5153 115.717 55.8572C117.147 56.7444 116.833 58.68 115.154 59.1688C113.992 59.2154 112.578 58.5891 111.466 58.2166L101.923 55.1102C101.341 54.915 99.7958 54.4752 99.3777 54.1714C97.9412 53.1261 98.5188 51.3118 100.169 50.9356Z" fill="url(#paint4_linear_1618_1590)"/>
<path d="M80.7688 28.3943C82.5786 28.625 85.3322 30.1609 86.6957 31.4087C92.8695 37.0583 93.1198 45.7727 87.5824 51.9225C85.4463 53.9414 83.6657 55.1492 80.7688 55.7557C80.7367 55.1513 80.7666 54.2881 80.7666 53.6623L80.7675 30.7392C80.7657 30.285 80.7077 28.7084 80.7688 28.3943Z" fill="url(#paint5_linear_1618_1590)"/>
<path d="M8.2601 33.0564C9.09687 33.0471 9.94925 33.0559 10.7874 33.0564V50.9355C8.41228 51.3993 5.97506 51.0665 3.99287 49.6251C2.25076 49.1074 0.303779 45.5836 0.0885866 43.8503C-0.581932 38.449 2.59387 33.6141 8.2601 33.0564Z" fill="url(#paint6_linear_1618_1590)"/>
<path d="M115.154 25.1594C117.052 24.8112 117.037 26.6611 116.986 27.9777C115.974 28.8852 113.644 29.2689 112.314 29.6918L106.059 31.6615C104.833 32.0538 102.288 32.9824 101.108 33.0564C99.312 33.2937 98.7095 31.3203 99.5508 30.2021C100.025 29.5714 102.601 28.9029 103.394 28.6612L112.386 25.9007C113.125 25.676 114.437 25.2304 115.154 25.1594Z" fill="url(#paint7_linear_1618_1590)"/>
<path d="M98.9868 0.0333925C99.8646 -0.135989 100.576 0.352471 100.84 1.19319C101.314 2.69998 99.8326 3.61308 98.8562 4.54247L95.3679 7.86131C93.9856 9.17329 89.6079 13.9012 88.0935 14.2228C86.4949 14.3914 85.4989 12.4968 86.4922 11.2889C87.0068 10.6631 87.7653 10.0141 88.3598 9.44495L92.2969 5.70842C93.648 4.42053 97.4258 0.206827 98.9868 0.0333925Z" fill="url(#paint8_linear_1618_1590)"/>
<defs>
<linearGradient id="paint0_linear_1618_1590" x1="106.47" y1="1.38829e-06" x2="29.1745" y2="110.422" gradientUnits="userSpaceOnUse">
<stop stop-color="#EB5858"/>
<stop offset="0.491918" stop-color="#A05ED4"/>
<stop offset="1" stop-color="#6124C5"/>
</linearGradient>
<linearGradient id="paint1_linear_1618_1590" x1="106.47" y1="1.38829e-06" x2="29.1745" y2="110.422" gradientUnits="userSpaceOnUse">
<stop stop-color="#EB5858"/>
<stop offset="0.491918" stop-color="#A05ED4"/>
<stop offset="1" stop-color="#6124C5"/>
</linearGradient>
<linearGradient id="paint2_linear_1618_1590" x1="106.47" y1="1.38829e-06" x2="29.1745" y2="110.422" gradientUnits="userSpaceOnUse">
<stop stop-color="#EB5858"/>
<stop offset="0.491918" stop-color="#A05ED4"/>
<stop offset="1" stop-color="#6124C5"/>
</linearGradient>
<linearGradient id="paint3_linear_1618_1590" x1="106.47" y1="1.38829e-06" x2="29.1745" y2="110.422" gradientUnits="userSpaceOnUse">
<stop stop-color="#EB5858"/>
<stop offset="0.491918" stop-color="#A05ED4"/>
<stop offset="1" stop-color="#6124C5"/>
</linearGradient>
<linearGradient id="paint4_linear_1618_1590" x1="106.47" y1="1.38829e-06" x2="29.1745" y2="110.422" gradientUnits="userSpaceOnUse">
<stop stop-color="#EB5858"/>
<stop offset="0.491918" stop-color="#A05ED4"/>
<stop offset="1" stop-color="#6124C5"/>
</linearGradient>
<linearGradient id="paint5_linear_1618_1590" x1="106.47" y1="1.38829e-06" x2="29.1745" y2="110.422" gradientUnits="userSpaceOnUse">
<stop stop-color="#EB5858"/>
<stop offset="0.491918" stop-color="#A05ED4"/>
<stop offset="1" stop-color="#6124C5"/>
</linearGradient>
<linearGradient id="paint6_linear_1618_1590" x1="106.47" y1="1.38829e-06" x2="29.1745" y2="110.422" gradientUnits="userSpaceOnUse">
<stop stop-color="#EB5858"/>
<stop offset="0.491918" stop-color="#A05ED4"/>
<stop offset="1" stop-color="#6124C5"/>
</linearGradient>
<linearGradient id="paint7_linear_1618_1590" x1="106.47" y1="1.38829e-06" x2="29.1745" y2="110.422" gradientUnits="userSpaceOnUse">
<stop stop-color="#EB5858"/>
<stop offset="0.491918" stop-color="#A05ED4"/>
<stop offset="1" stop-color="#6124C5"/>
</linearGradient>
<linearGradient id="paint8_linear_1618_1590" x1="106.47" y1="1.38829e-06" x2="29.1745" y2="110.422" gradientUnits="userSpaceOnUse">
<stop stop-color="#EB5858"/>
<stop offset="0.491918" stop-color="#A05ED4"/>
<stop offset="1" stop-color="#6124C5"/>
</linearGradient>
</defs>
</svg>
