<svg width="86" height="90" viewBox="0 0 86 90" fill="none" xmlns="http://www.w3.org/2000/svg">
<path d="M23.2128 24.7724C23.4332 24.4125 23.7457 24.0286 24.0135 23.694C25.6174 21.6904 27.1639 19.5734 28.7801 17.6004C29.2257 17.6093 29.726 17.6657 30.1785 17.6896L35.9168 17.9617C36.5076 17.9834 37.3087 17.9891 37.8754 18.0657C37.0142 19.1035 32.8825 24.8261 32.3917 25.1641C31.3508 24.9733 29.7043 25.0514 28.5935 25.0097L25.4513 24.8636C24.6832 24.8227 23.9872 24.7714 23.2128 24.7724Z" fill="url(#paint0_linear_1618_1595)"/>
<path d="M23.2719 26.1076C23.6974 26.1154 24.1898 26.191 24.6167 26.2529C27.1733 26.6235 29.5362 26.2235 32.0722 26.6205C32.2871 27.012 32.7523 28.1383 32.9576 28.5435L35.3563 33.7549C35.6325 34.2791 35.8942 34.8628 36.1104 35.394C34.7709 35.1756 28.0583 34.533 27.5169 34.2793C27.5169 34.2793 26.2724 31.8878 25.7537 30.9018L24.3109 28.0983C23.9629 27.4103 23.6599 26.7797 23.2719 26.1076Z" fill="url(#paint1_linear_1618_1595)"/>
<path d="M38.894 18.9428C38.6225 19.2694 38.3588 19.6908 38.1274 20.0538C36.7419 22.2276 34.8967 23.7523 33.5448 25.9276C33.7023 26.3454 34.2554 27.4315 34.4297 27.8509L36.7468 32.8844C36.9653 33.4351 37.3713 34.3028 37.6343 34.8127C38.3417 33.658 42.1795 28.0547 42.3397 27.4801C42.3397 27.4801 41.3327 24.9799 40.9212 23.9449L39.7302 21.0262C39.434 20.3145 39.1521 19.6743 38.894 18.9428Z" fill="url(#paint2_linear_1618_1595)"/>
<path d="M46.6331 20.5865C48.4668 21.1465 58.6791 28.0813 61.0364 29.4402C61.4387 29.672 61.751 29.9693 61.8364 30.4523C60.9793 31.0566 57.711 32.0677 56.5267 32.46C57.3408 33.7111 60.6281 38.2001 61.0148 39.338L60.8197 39.6272C59.9364 40.2547 59.0995 40.7715 58.1798 41.3415C56.6625 39.1925 55.0067 36.4238 53.5779 34.1663C52.7502 35.0307 50.1425 38.5409 49.2031 38.5205C48.6507 37.9824 48.5669 36.4625 48.49 35.6543C48.0143 30.6553 46.9941 25.5801 46.6331 20.5865Z" fill="url(#paint3_linear_1618_1595)"/>
<path d="M33.1671 78.2504C35.2403 77.7959 37.3982 78.4962 38.8059 80.0804C40.2132 81.665 40.65 83.8849 39.9466 85.8818C39.2435 87.8787 37.5106 89.3395 35.4186 89.699C32.2841 90.2375 29.2923 88.1826 28.6805 85.0716C28.0686 81.9602 30.061 78.9314 33.1671 78.2504Z" fill="url(#paint4_linear_1618_1595)"/>
<path d="M33.7357 82.2591C34.3668 82.0135 35.0823 82.1319 35.5998 82.5676C36.1173 83.0036 36.3537 83.6867 36.2161 84.3482C36.0785 85.0094 35.5886 85.5423 34.9399 85.7368C33.9906 86.0217 32.9854 85.5085 32.6621 84.5746C32.3388 83.6407 32.8127 82.6188 33.7357 82.2591Z" fill="url(#paint5_linear_1618_1595)"/>
<path d="M68.0042 78.43C71.1716 77.845 74.2181 79.9221 74.8194 83.0771C75.4203 86.232 73.3503 89.2781 70.188 89.8915C67.0057 90.5088 63.9268 88.4295 63.3216 85.2545C62.7168 82.0795 64.8163 79.0192 68.0042 78.43Z" fill="url(#paint6_linear_1618_1595)"/>
<path d="M68.4045 82.4654C69.0243 82.2217 69.7274 82.3301 70.2444 82.7485C70.7617 83.1671 71.0122 83.831 70.9004 84.4856C70.7889 85.1399 70.3316 85.6837 69.7049 85.908C68.756 86.2479 67.7095 85.7654 67.3541 84.825C66.9991 83.8843 67.4667 82.834 68.4045 82.4654Z" fill="url(#paint7_linear_1618_1595)"/>
<path fill-rule="evenodd" clip-rule="evenodd" d="M68.1479 10.8498C67.692 10.7661 67.2213 10.8671 66.8394 11.1306C66.4574 11.3941 66.1954 11.7985 66.1111 12.2548L63.8849 24.2998C63.8006 24.7561 63.9008 25.2271 64.1635 25.609C64.4262 25.9909 64.8298 26.2524 65.2857 26.3362L79.0357 28.8616C79.4915 28.9453 79.9622 28.8443 80.3441 28.5808C80.7261 28.3173 80.9881 27.9129 81.0724 27.4566L83.2986 15.4116C83.3829 14.9553 83.2827 14.4843 83.0201 14.1025C82.7574 13.7206 82.3537 13.459 81.8979 13.3752L68.1479 10.8498ZM71.2272 16.4236C71.2767 16.2626 71.3631 16.1154 71.4794 15.9936C71.5958 15.8719 71.7389 15.779 71.8974 15.7224C72.0559 15.6658 72.2254 15.647 72.3923 15.6676C72.5592 15.6881 72.719 15.7475 72.8588 15.8408C73.2576 16.1062 74.0947 16.6923 75.1294 17.5744C75.8574 18.1898 76.5488 18.8472 77.2001 19.5435C77.3145 19.6666 77.3984 19.8149 77.4453 19.9764C77.4922 20.1379 77.5007 20.3082 77.4701 20.4737C77.4395 20.6392 77.3707 20.7953 77.2691 20.9296C77.1676 21.0639 77.0361 21.1725 76.8853 21.247C76.0279 21.6655 75.147 22.0336 74.2469 22.3494C73.3496 22.6742 72.4342 22.9462 71.5053 23.1641C71.3413 23.2019 71.1707 23.2007 71.0073 23.1607C70.8439 23.1207 70.6922 23.043 70.5643 22.9337C70.4364 22.8245 70.3359 22.6867 70.2708 22.5315C70.2056 22.3764 70.1777 22.208 70.1892 22.04C70.2584 21.0886 70.3812 20.1417 70.557 19.204C70.8036 17.8696 71.0856 16.8824 71.2272 16.4236Z" fill="url(#paint8_linear_1618_1595)"/>
<path d="M46.2712 6.99358C46.3667 7.30309 46.6959 7.47682 47.0063 7.38162L48.7653 6.84227C48.762 7.1466 48.6866 7.44869 48.5411 7.72265C48.3013 8.17418 47.8914 8.51234 47.4016 8.66256C46.9117 8.81277 46.3821 8.76265 45.9291 8.52355C45.4762 8.28444 45.137 7.87594 44.9863 7.38758C44.8356 6.89924 44.8859 6.37128 45.1257 5.91975C45.2713 5.6458 45.4796 5.41389 45.7302 5.2401L46.2712 6.99358Z" fill="url(#paint9_linear_1618_1595)"/>
<path d="M46.8545 4.89534C47.1598 4.89869 47.4629 4.97378 47.7377 5.11886C48.0125 5.26393 48.2451 5.47158 48.4195 5.72144L47.2227 6.08841L46.8545 4.89534Z" fill="url(#paint10_linear_1618_1595)"/>
<path fill-rule="evenodd" clip-rule="evenodd" d="M54.7023 0.0893733C55.7667 -0.237029 56.8951 0.358617 57.2225 1.41979L60.4833 11.9876C60.8107 13.0487 60.2132 14.1736 59.1487 14.5L47.5154 18.0671C46.4509 18.3935 45.3225 17.7978 44.9951 16.7367L41.7344 6.16888C41.4069 5.10772 42.0045 3.98287 43.0689 3.65646L54.7023 0.0893733ZM49.7178 11.8958C49.4074 11.991 49.2331 12.3191 49.3286 12.6286L50.0696 15.0304C50.1651 15.3399 50.4942 15.5136 50.8047 15.4184C51.1152 15.3232 51.2895 14.9951 51.194 14.6856L50.4529 12.2839C50.3574 11.9744 50.0283 11.8007 49.7178 11.8958ZM51.386 8.75531C51.0756 8.85051 50.9013 9.17861 50.9968 9.4881L52.4789 14.2916C52.5744 14.6011 52.9035 14.7749 53.214 14.6797C53.5245 14.5845 53.6988 14.2564 53.6033 13.9469L52.1211 9.14335C52.0256 8.83388 51.6965 8.66015 51.386 8.75531ZM53.9806 8.617C53.6701 8.7122 53.4959 9.04029 53.5914 9.34979L54.8882 13.5529C54.9837 13.8624 55.3128 14.0361 55.6233 13.9409C55.9338 13.8457 56.1081 13.5176 56.0126 13.2081L54.7157 9.00504C54.6202 8.69557 54.2911 8.52183 53.9806 8.617ZM56.0194 6.67736C55.7089 6.77255 55.5346 7.10065 55.6301 7.41015L57.2975 12.8141C57.393 13.1236 57.7221 13.2974 58.0326 13.2022C58.343 13.1069 58.5173 12.7789 58.4219 12.4694L56.7544 7.0654C56.6589 6.75593 56.3298 6.58219 56.0194 6.67736ZM45.9194 3.85902C45.1314 4.10066 44.4717 4.64447 44.0859 5.37083C43.7 6.0972 43.6196 6.94673 43.862 7.73233C44.1044 8.51795 44.6498 9.17552 45.3785 9.56016C46.1072 9.94481 46.9593 10.025 47.7474 9.78339C48.5355 9.54173 49.1951 8.99795 49.581 8.27158C49.9668 7.5452 50.0473 6.69567 49.8049 5.91007C49.5625 5.12447 49.017 4.46688 48.2883 4.08224C47.5597 3.6976 46.7075 3.61739 45.9194 3.85902Z" fill="url(#paint11_linear_1618_1595)"/>
<path fill-rule="evenodd" clip-rule="evenodd" d="M2.76201 18.9361C7.25191 18.9717 11.7424 18.9907 16.2323 18.9466C17.503 18.9461 18.828 19.8298 19.2299 21.074C20.2457 24.2178 21.0601 27.5848 21.9196 30.7784L45.873 31.0539L47.3854 39.7651C47.3854 39.7651 47.8135 40.3901 48.2257 40.6027C48.6931 40.8437 49.5607 40.771 49.57 40.7702L53.6032 37.4198L57.6363 43.6181L63.3498 39.9326L59.1487 33.6332L64.1901 30.9132L78.1303 31.0539C80.1412 31.0603 86.6444 30.2443 85.9481 33.6332C85.4332 36.1386 84.4718 38.9968 83.7303 41.4871L79.4455 56.2551C78.9767 57.962 77.907 63.8697 75.9786 64.0171C63.3052 64.9857 50.4912 64.7955 37.7868 65.508C35.377 65.7695 32.3006 65.3804 29.9625 65.8555C25.9584 66.6691 26.0141 70.8488 29.3084 72.7943C32.9679 73.0227 38.0081 72.9023 41.7533 72.9196L65.1918 73.0345C68.381 73.0601 71.6643 73.037 74.8462 73.0462C78.3326 73.0569 77.9661 76.9063 75.5598 77.0268C73.4969 77.1298 70.9205 77.0489 68.8067 77.0389L39.0987 76.8969C37.4795 76.8897 29.1368 77.0346 27.9742 76.5288C21.8411 73.861 21.1044 67.0013 26.5661 62.6811C23.0576 49.4212 19.0462 36.1816 15.6346 22.9426C13.298 22.9148 1.85295 23.3383 0.619748 22.3392C0.26001 22.0477 0.0494837 21.5356 0.00893957 21.0851C-0.0434541 20.5036 0.133225 19.8777 0.5715 19.4714C1.17647 18.9108 1.9931 18.959 2.76201 18.9361ZM74.1212 36.519C73.4849 36.3884 72.8629 36.7966 72.7318 37.4309L68.5008 57.9166C68.3698 58.5509 68.7796 59.171 69.4159 59.3016C70.0522 59.4321 70.6742 59.024 70.8052 58.3897L75.0359 37.904C75.1669 37.2697 74.7574 36.6497 74.1212 36.519ZM63.0456 45.4706C62.4007 45.3922 61.814 45.8499 61.7353 46.4927L60.3398 57.9012C60.2611 58.5441 60.7202 59.129 61.3651 59.2074C62.01 59.2857 62.5964 58.8281 62.675 58.1852L64.0709 46.7764C64.1495 46.1336 63.6904 45.549 63.0456 45.4706ZM52.9713 43.3183C52.3217 43.3184 51.795 43.8434 51.795 44.491V57.8927C51.795 58.5403 52.3217 59.0653 52.9713 59.0653C53.621 59.0653 54.1477 58.5403 54.1477 57.8927V44.491C54.1477 43.8434 53.621 43.3183 52.9713 43.3183ZM43.8765 44.1327C43.7808 43.4922 43.1823 43.0502 42.5397 43.1456C41.8971 43.241 41.4538 43.8377 41.5495 44.4782L43.5555 57.9055C43.6512 58.546 44.2498 58.988 44.8923 58.8926C45.5349 58.7972 45.9782 58.2005 45.8826 57.56L43.8765 44.1327ZM31.188 38.1164C31.0121 37.493 30.3624 37.1299 29.737 37.3053C29.1117 37.4807 28.7475 38.128 28.9234 38.7514L34.336 57.9365C34.5119 58.5599 35.1613 58.9232 35.7867 58.748C36.412 58.5726 36.7765 57.9249 36.6006 57.3015L31.188 38.1164Z" fill="url(#paint12_linear_1618_1595)"/>
<defs>
<linearGradient id="paint0_linear_1618_1595" x1="78.26" y1="1.38829e-06" x2="-3.90645" y2="86.2798" gradientUnits="userSpaceOnUse">
<stop stop-color="#EB5858"/>
<stop offset="0.491918" stop-color="#A05ED4"/>
<stop offset="1" stop-color="#6124C5"/>
</linearGradient>
<linearGradient id="paint1_linear_1618_1595" x1="78.26" y1="1.38829e-06" x2="-3.90645" y2="86.2798" gradientUnits="userSpaceOnUse">
<stop stop-color="#EB5858"/>
<stop offset="0.491918" stop-color="#A05ED4"/>
<stop offset="1" stop-color="#6124C5"/>
</linearGradient>
<linearGradient id="paint2_linear_1618_1595" x1="78.26" y1="1.38829e-06" x2="-3.90645" y2="86.2798" gradientUnits="userSpaceOnUse">
<stop stop-color="#EB5858"/>
<stop offset="0.491918" stop-color="#A05ED4"/>
<stop offset="1" stop-color="#6124C5"/>
</linearGradient>
<linearGradient id="paint3_linear_1618_1595" x1="78.26" y1="1.38829e-06" x2="-3.90645" y2="86.2798" gradientUnits="userSpaceOnUse">
<stop stop-color="#EB5858"/>
<stop offset="0.491918" stop-color="#A05ED4"/>
<stop offset="1" stop-color="#6124C5"/>
</linearGradient>
<linearGradient id="paint4_linear_1618_1595" x1="78.26" y1="1.38829e-06" x2="-3.90645" y2="86.2798" gradientUnits="userSpaceOnUse">
<stop stop-color="#EB5858"/>
<stop offset="0.491918" stop-color="#A05ED4"/>
<stop offset="1" stop-color="#6124C5"/>
</linearGradient>
<linearGradient id="paint5_linear_1618_1595" x1="78.26" y1="1.38829e-06" x2="-3.90645" y2="86.2798" gradientUnits="userSpaceOnUse">
<stop stop-color="#EB5858"/>
<stop offset="0.491918" stop-color="#A05ED4"/>
<stop offset="1" stop-color="#6124C5"/>
</linearGradient>
<linearGradient id="paint6_linear_1618_1595" x1="78.26" y1="1.38829e-06" x2="-3.90645" y2="86.2798" gradientUnits="userSpaceOnUse">
<stop stop-color="#EB5858"/>
<stop offset="0.491918" stop-color="#A05ED4"/>
<stop offset="1" stop-color="#6124C5"/>
</linearGradient>
<linearGradient id="paint7_linear_1618_1595" x1="78.26" y1="1.38829e-06" x2="-3.90645" y2="86.2798" gradientUnits="userSpaceOnUse">
<stop stop-color="#EB5858"/>
<stop offset="0.491918" stop-color="#A05ED4"/>
<stop offset="1" stop-color="#6124C5"/>
</linearGradient>
<linearGradient id="paint8_linear_1618_1595" x1="78.26" y1="1.38829e-06" x2="-3.90645" y2="86.2798" gradientUnits="userSpaceOnUse">
<stop stop-color="#EB5858"/>
<stop offset="0.491918" stop-color="#A05ED4"/>
<stop offset="1" stop-color="#6124C5"/>
</linearGradient>
<linearGradient id="paint9_linear_1618_1595" x1="78.26" y1="1.38829e-06" x2="-3.90645" y2="86.2798" gradientUnits="userSpaceOnUse">
<stop stop-color="#EB5858"/>
<stop offset="0.491918" stop-color="#A05ED4"/>
<stop offset="1" stop-color="#6124C5"/>
</linearGradient>
<linearGradient id="paint10_linear_1618_1595" x1="78.26" y1="1.38829e-06" x2="-3.90645" y2="86.2798" gradientUnits="userSpaceOnUse">
<stop stop-color="#EB5858"/>
<stop offset="0.491918" stop-color="#A05ED4"/>
<stop offset="1" stop-color="#6124C5"/>
</linearGradient>
<linearGradient id="paint11_linear_1618_1595" x1="78.26" y1="1.38829e-06" x2="-3.90645" y2="86.2798" gradientUnits="userSpaceOnUse">
<stop stop-color="#EB5858"/>
<stop offset="0.491918" stop-color="#A05ED4"/>
<stop offset="1" stop-color="#6124C5"/>
</linearGradient>
<linearGradient id="paint12_linear_1618_1595" x1="78.26" y1="1.38829e-06" x2="-3.90645" y2="86.2798" gradientUnits="userSpaceOnUse">
<stop stop-color="#EB5858"/>
<stop offset="0.491918" stop-color="#A05ED4"/>
<stop offset="1" stop-color="#6124C5"/>
</linearGradient>
</defs>
</svg>
