<svg width="108" height="90" viewBox="0 0 108 90" fill="none" xmlns="http://www.w3.org/2000/svg">
<path d="M106.696 11.4523L73.179 0.204368H72.0618L35.3791 11.2649L2.42064 0.204368C1.86202 -0.170561 1.3034 0.0169037 0.744831 0.391833C0.372416 0.766763 0 1.32916 0 1.89155V76.8775C0 77.6273 0.558623 78.3772 1.30351 78.5646L34.8209 89.8125C35.0071 89.8125 35.1933 89.9999 35.3795 89.9999H35.9382L72.6208 78.7521L105.579 89.8125C105.766 89.8125 105.952 90 106.138 90C106.51 90 106.883 89.8125 107.255 89.6251C107.814 89.2501 108 88.6878 108 88.1254V13.1394C108 12.3896 107.441 11.6397 106.696 11.4523ZM33.517 85.5012L3.7238 75.5656V4.51612L33.517 14.4517V85.5012ZM67.0345 65.6305C67.0345 66.3804 66.4758 67.1302 65.7309 67.3176L43.386 74.8162C43.1998 75.0037 43.0136 75.0037 42.8274 75.0037C42.455 75.0037 42.0826 74.8162 41.7101 74.6287C41.3377 74.2538 40.9653 73.6914 40.9653 73.129V54.3825C40.9653 53.6327 41.5239 52.8828 42.2688 52.6954L64.6138 45.1968C65.1724 45.0094 65.731 45.0094 66.2896 45.3843C66.8481 45.7592 67.0344 46.3216 67.0344 46.884L67.0345 65.6305ZM67.0345 35.6361C67.0345 36.386 66.4758 37.1358 65.7309 37.3232L43.386 44.8218C43.1998 45.0093 43.0136 45.0093 42.8274 45.0093C42.455 45.0093 42.0826 44.8218 41.7101 44.6344C41.3377 44.2594 40.9653 43.697 40.9653 43.1346V24.3882C40.9653 23.6383 41.5239 22.8884 42.2688 22.701L64.6138 15.2025C65.1724 15.015 65.731 15.015 66.2896 15.3899C66.8481 15.7648 67.0344 16.3272 67.0344 16.8896L67.0345 35.6361ZM104.276 85.5012L74.4828 75.5656V4.51612L104.276 14.4517V85.5012Z" fill="url(#paint0_linear_1618_1585)"/>
<path fill-rule="evenodd" clip-rule="evenodd" d="M104.276 85.5012L74.4828 75.5656V4.51612L104.276 14.4517V85.5012ZM97.9444 74.816L79.3236 67.3174C78.3925 66.9424 78.0201 65.8177 78.2063 65.0678C78.5786 63.9431 79.6959 63.5681 80.627 63.9431L99.2477 71.4417C100.365 71.8165 100.737 72.9413 100.365 73.8786C100.179 74.6285 99.434 75.0034 98.6892 75.0034C98.3168 75.0034 98.1306 74.816 97.9444 74.816ZM97.9444 65.4421L79.3236 57.9435C78.3925 57.5686 78.0201 56.4439 78.2063 55.694C78.5786 54.5692 79.6959 54.1943 80.627 54.5692L99.2477 62.0678C100.365 62.4426 100.737 63.5675 100.365 64.5048C100.179 65.2547 99.434 65.6296 98.6892 65.6296C98.3168 65.6296 98.1306 65.4421 97.9444 65.4421ZM97.9444 56.0695L79.3236 48.5709C78.3925 48.196 78.0201 47.0712 78.2063 46.3214C78.5786 45.1966 79.6959 44.8217 80.627 45.1966L99.2477 52.6952C100.365 53.07 100.737 54.1948 100.365 55.1322C100.179 55.882 99.434 56.2569 98.6892 56.2569C98.3168 56.2569 98.1306 56.0695 97.9444 56.0695ZM97.9444 44.8216L79.3236 37.323C78.5787 37.1356 78.2064 36.3857 78.2064 35.6359V16.8894C78.2064 16.327 78.5788 15.7646 79.1374 15.3897C79.5097 15.0147 80.2546 15.0147 80.8132 15.2022L99.434 22.7008C100.179 22.8882 100.551 23.6381 100.551 24.3879V43.1344C100.551 43.6968 100.365 44.2592 99.8064 44.6341C99.434 44.8216 99.0616 45.0091 98.6892 45.0091C98.3168 45.0091 98.1306 44.8216 97.9444 44.8216Z" fill="url(#paint1_linear_1618_1585)"/>
<path fill-rule="evenodd" clip-rule="evenodd" d="M33.517 85.5012L3.7238 75.5656V4.51612L33.517 14.4517V85.5012ZM10.0543 15.2016L28.675 22.7001C29.6061 23.0751 29.9785 24.1998 29.7923 25.3246C29.6061 26.0744 28.8613 26.4494 28.1165 26.4494C27.7441 26.4494 27.5579 26.2619 27.3717 26.2619L8.75087 18.7633C7.63363 18.3885 7.26121 17.2637 7.63363 16.3263C8.00592 15.2016 9.12323 14.8266 10.0543 15.2016ZM10.0543 24.5754L28.675 32.074C29.6061 32.4489 29.9785 33.5736 29.7923 34.6984C29.6061 35.4483 28.8613 35.8232 28.1165 35.8232C27.7441 35.8232 27.5579 35.6358 27.3717 35.6358L8.75087 28.1372C7.63363 27.7624 7.26121 26.6375 7.63363 25.7002C8.00592 24.5754 9.12323 24.2005 10.0543 24.5754ZM10.0543 33.948L28.675 41.4466C29.6061 41.8216 29.9785 42.9463 29.7923 44.0711C29.6061 44.8209 28.8613 45.1959 28.1165 45.1959C27.7441 45.1959 27.5579 45.0084 27.3717 45.0084L8.75087 37.5098C7.63363 37.135 7.26121 36.0101 7.63363 35.0728C8.00592 33.948 9.12323 33.5731 10.0543 33.948ZM10.0543 45.1959L28.675 52.6945C29.4199 52.8819 29.7924 53.6318 29.7924 54.3816V73.1281C29.7924 73.6905 29.6061 74.2529 29.0475 74.6278C28.6751 74.8153 28.3027 75.0028 27.9303 75.0028C27.5579 75.0028 27.3717 74.8153 27.1854 74.8153L8.56466 67.3167C7.81983 67.1293 7.44742 66.3794 7.44742 65.6296V46.8831C7.44742 46.3207 7.81983 45.7583 8.37846 45.3834C8.75075 45.0085 9.49565 45.0085 10.0543 45.1959Z" fill="url(#paint2_linear_1618_1585)"/>
<defs>
<linearGradient id="paint0_linear_1618_1585" x1="98.28" y1="1.38829e-06" x2="19.0658" y2="104.458" gradientUnits="userSpaceOnUse">
<stop stop-color="#EB5858"/>
<stop offset="0.491918" stop-color="#A05ED4"/>
<stop offset="1" stop-color="#6124C5"/>
</linearGradient>
<linearGradient id="paint1_linear_1618_1585" x1="98.28" y1="1.38829e-06" x2="19.0658" y2="104.458" gradientUnits="userSpaceOnUse">
<stop stop-color="#EB5858"/>
<stop offset="0.491918" stop-color="#A05ED4"/>
<stop offset="1" stop-color="#6124C5"/>
</linearGradient>
<linearGradient id="paint2_linear_1618_1585" x1="98.28" y1="1.38829e-06" x2="19.0658" y2="104.458" gradientUnits="userSpaceOnUse">
<stop stop-color="#EB5858"/>
<stop offset="0.491918" stop-color="#A05ED4"/>
<stop offset="1" stop-color="#6124C5"/>
</linearGradient>
</defs>
</svg>
