<svg xmlns="http://www.w3.org/2000/svg" width="101" height="50" fill="none" viewBox="0 0 101 50"><g clip-path="url(#a)"><path fill="#464547" d="M6.057 8.134c0 .399-.079.718-.236 1.037s-.315.478-.55.717l-.709.479c-.236.08-.55.16-.865.16v.717H2.36v-.718c-.393-.08-.787-.16-1.101-.319-.315-.16-.551-.319-.708-.558-.158-.24-.315-.478-.394-.797C.08 8.532 0 8.214 0 7.815v-2.95c0-.4.079-.718.236-1.037.079-.24.315-.479.472-.638.236-.24.472-.32.787-.479.314-.16.55-.16.865-.16v-.478h1.416v.479c.314 0 .55.08.865.16q.354.118.708.478c.236.16.393.478.55.717.158.32.237.638.237 1.037v3.19zM2.36 3.668c-.315.08-.55.16-.787.32a1.36 1.36 0 0 0-.236.797v3.508c0 .16 0 .32.079.479.079.16.157.239.236.319s.236.16.315.239c.157.08.235.08.393.08zm2.438 1.117c0-.32-.078-.559-.314-.798-.158-.16-.394-.24-.708-.319V9.33c.078 0 .236-.08.314-.08.158-.08.236-.16.315-.239.079-.08.157-.16.236-.319.079-.16.079-.24.079-.399V4.785zm8.259 4.067c0 .797-.157 1.435-.55 1.834-.394.398-.944.638-1.652.638-.787 0-1.337-.16-1.652-.559-.315-.398-.55-.957-.55-1.674V4.466c0-.32.078-.718.157-.957.078-.32.236-.559.393-.798q.236-.359.708-.478c.315-.08.63-.16 1.023-.16s.786.08 1.022.16c.236 0 .472.16.63.398.157.24.314.479.393.798.078.319.078.638.078 1.037zm-1.416-4.546c0-.24-.078-.478-.157-.718-.079-.239-.315-.319-.63-.319-.156 0-.314 0-.393.08-.157.16-.235.24-.235.399-.08.08-.08.24-.08.399V9.17c0 .239.08.478.158.637.079.16.315.32.63.32.314 0 .472-.08.629-.32.157-.159.157-.398.157-.717V4.306zm7.081 6.938V7.257H17.07v3.987h-1.338v-9.17h1.416V5.9H18.8V2.073h1.416v9.17zm4.798 0V13h-1.18v-2.95l.55-.08c.236-.24.394-.559.472-.878.08-.319.158-.797.158-1.356l.157-5.582h4.09v7.895h.551v3.03h-1.18v-1.754H23.52zm1.258-3.588c0 .558-.078.957-.078 1.355-.079.4-.158.718-.315.957h1.967V3.43h-1.416zm12.035-5.662c.393 0 .708.08.944.16s.472.239.708.398c.157.16.314.4.393.638a2.9 2.9 0 0 1 .157.878l-1.337.318a2 2 0 0 0-.157-.797c-.158-.24-.315-.319-.63-.319-.157 0-.314 0-.393.08l-.236.239c-.078.08-.078.24-.078.319v5.343c0 .08.078.24.078.319l.236.24c.079.079.236.079.393.079.551 0 .787-.399.787-1.117.236.08.472.08.708.08s.472.08.708.08c0 .718-.236 1.276-.55 1.675-.394.398-.866.638-1.574.638-.786 0-1.337-.16-1.652-.559-.393-.398-.55-.957-.55-1.674V4.466c0-.319 0-.638.078-.957.079-.319.236-.558.394-.797.157-.24.393-.399.707-.558.08-.08.394-.16.866-.16m8.81 6.858c0 .797-.158 1.435-.55 1.834-.394.398-.945.638-1.653.638-.786 0-1.337-.16-1.652-.559-.314-.398-.55-.957-.55-1.674V4.466c0-.32.078-.718.157-.957.079-.32.236-.559.393-.798q.237-.359.708-.478c.315-.08.63-.16 1.023-.16s.786.08 1.023.16c.314.08.471.239.708.478.157.24.314.479.393.798zm-1.416-4.546c0-.24-.079-.478-.157-.718-.08-.239-.315-.319-.63-.319-.157 0-.314 0-.393.08l-.236.24c-.079.08-.079.239-.157.398v5.024c0 .24.078.479.157.638.157.16.315.319.63.319.314 0 .471-.08.629-.319.157-.16.157-.399.157-.718zm4.72 6.938V13h-1.18v-2.95l.55-.08c.236-.24.394-.559.472-.878.08-.319.158-.797.158-1.356l.157-5.582h4.09v7.895h.551v3.03h-1.18v-1.754h-3.618zm1.258-3.588c0 .558-.078.957-.078 1.355-.079.4-.158.718-.315.957h1.966V3.43h-1.415zm5.821 3.588v-9.17h4.011v1.355h-2.595V5.9h2.28v1.356h-2.28v2.631h2.596v1.356zm9.597-5.742-1.888 5.742h-1.337v-9.17h1.337v5.82l1.888-5.82h1.337v9.17h-1.416zM63.873 0c0 .08 0 .16.078.319.079.08.079.16.157.319l.236.24c.079.079.236.079.315.079.157 0 .236 0 .314-.08l.237-.239c.078-.08.157-.16.157-.319 0-.08.078-.16.078-.319h1.023c0 .16-.079.399-.157.638.078.16-.079.399-.236.558-.158.16-.315.32-.55.479-.237.08-.473.16-.788.16-.314 0-.629-.08-.865-.16s-.393-.24-.55-.479c-.158-.16-.236-.399-.315-.558-.079-.24-.157-.479-.157-.638zm7.944 1.994c.393 0 .708.08.944.16s.472.239.708.398c.157.16.314.4.393.638a2.9 2.9 0 0 1 .157.878l-1.337.318a2 2 0 0 0-.157-.797c-.158-.24-.315-.319-.63-.319-.157 0-.314 0-.393.08l-.236.239c-.079.08-.079.24-.079.319v5.343c0 .08.079.24.079.319l.236.24c.079.079.236.079.393.079.55 0 .787-.399.787-1.117.236.08.472.08.708.08s.472.08.708.08c0 .718-.236 1.276-.55 1.675-.394.398-.866.638-1.574.638-.787 0-1.337-.16-1.652-.559-.393-.398-.55-.957-.55-1.674V4.466c0-.319 0-.638.078-.957.079-.319.236-.558.394-.797.157-.24.393-.399.707-.558.08-.08.472-.16.866-.16m6.764 1.435v7.815h-1.416V3.429h-1.494V2.073h4.326V3.43zm6.923 3.031c.393.159.707.398.786.717.157.399.236.797.236 1.276 0 .957-.236 1.675-.63 2.073-.392.479-1.022.638-1.887.638H82.12v-9.09h1.967c.786 0 1.416.238 1.73.637.393.399.55 1.037.55 1.834 0 .4-.078.798-.235 1.117 0 .319-.315.558-.63.797m-.394-1.835c0-.399-.079-.718-.236-.877s-.472-.24-.786-.24h-.472V5.9h.472c.393 0 .629-.08.786-.319q.236-.479.236-.957m.079 3.668q0-.597-.236-.957c-.157-.239-.393-.319-.787-.319h-.55v2.871h.55c.236 0 .394-.08.55-.16a.62.62 0 0 0 .316-.318c.078-.16.157-.32.157-.479zm7.239-2.79-1.888 5.742h-1.337v-9.17h1.337v5.82h.079l1.888-5.82h1.337v9.17h-1.416zm3.776 5.742.472-2.87c.079-.32.157-.559.315-.798.157-.24.314-.478.55-.558a1.7 1.7 0 0 1-.865-.798c-.157-.319-.236-.797-.236-1.276 0-.877.236-1.595.63-2.073.393-.478 1.022-.718 1.809-.718h2.045v9.171h-1.416V7.337h-.393c-.236 0-.472.08-.708.319-.236.16-.315.558-.472 1.036l-.394 2.552zm2.753-7.815c-.393 0-.708.16-.865.399s-.236.558-.236 1.037.079.717.315.957c.236.16.472.239.786.239h.55V3.429zM4.248 18.82l-2.36 7.098H.236V14.594h1.73v7.177h.08l2.36-7.177h1.73v11.324h-1.81zm10.305 7.098v-4.945h-1.967v4.945h-1.73V14.594h1.73v4.705h2.045v-4.705h1.73v11.324zm10.382 0v-4.945H22.89v4.945h-1.73V14.594h1.73v4.705h2.045v-4.705h1.73v11.324zm11.956-2.872c0 .957-.235 1.755-.629 2.233-.472.479-1.101.718-2.124.718-.944 0-1.651-.24-2.045-.718s-.63-1.196-.63-2.073v-5.662c0-.479.08-.877.158-1.196q.118-.599.472-.957c.236-.24.472-.479.865-.638.315-.16.787-.24 1.259-.24.55 0 .944.08 1.337.24.315.16.63.319.865.558q.355.36.472.957c.08.399.158.797.158 1.276v5.502zm-1.73-5.661c0-.32-.079-.559-.236-.878-.157-.239-.393-.398-.787-.398-.236 0-.393.08-.472.16-.157.079-.236.238-.314.318-.079.16-.158.319-.158.479s-.078.319-.078.478v5.742c0 .319.078.558.236.797.157.24.393.319.786.319.394 0 .63-.16.787-.399s.236-.558.236-.877zm10.619 2.631c.473.16.866.479 1.023.957.158.479.315.957.315 1.595 0 1.196-.236 2.074-.787 2.632-.472.558-1.258.797-2.28.797h-2.36V14.594h2.438c1.023 0 1.73.239 2.124.797.472.558.708 1.276.708 2.313 0 .558-.079.957-.236 1.355a1.5 1.5 0 0 1-.944.878zm-.471-2.312c0-.558-.079-.877-.315-1.117-.236-.239-.55-.319-1.022-.319h-.551v2.871h.55c.473 0 .787-.16 1.023-.398.236-.16.315-.559.315-1.037m.079 4.625c0-.558-.08-.957-.315-1.196-.157-.24-.55-.399-1.023-.399h-.629v3.509h.708c.315 0 .472-.08.708-.16a.95.95 0 0 0 .393-.398c.079-.16.158-.4.158-.638zm10.539 3.589-.472-2.393H53.41l-.236 1.196-.236 1.197h-1.81c.394-1.914.788-3.828 1.102-5.662.394-1.914.787-3.748 1.101-5.662h1.967l2.281 11.324zm-1.573-8.693c-.079.798-.236 1.595-.315 2.313-.157.797-.236 1.595-.393 2.392h1.573l-.708-4.705zm12.979-2.631v9.729h.708v3.827h-1.494v-2.153h-4.72V14.594h1.73v9.729h1.967v-9.73zm8.889 4.226-2.36 7.098H72.21V14.594h1.73v7.177l2.36-7.177h1.73v11.324H76.3zm6.135 7.098.63-3.589c.078-.399.157-.718.393-1.037q.236-.479.708-.717c-.55-.24-.865-.559-1.101-.957-.158-.479-.315-.957-.315-1.595 0-1.117.236-1.994.787-2.552.55-.558 1.258-.877 2.202-.877h2.596v11.324h-1.73v-4.865h-.472c-.315 0-.551.08-.866.32-.236.238-.472.637-.55 1.275l-.551 3.19h-1.73zm3.462-9.65c-.551 0-.866.16-1.102.479s-.314.718-.314 1.276.157.957.393 1.116c.236.24.63.32 1.022.32h.708v-3.19zm10.541 7.177-.787-2.073-.708-1.994h-.079v6.54h-1.73V14.592h1.73l1.259 3.19.865 2.472h.079l.944-2.552 1.18-3.19h1.651v11.324h-1.73v-6.539h-.079l-.708 1.994-.786 2.073h-1.102z" opacity="0.75"/><path fill="#EA2227" d="M100.843 29.346c-24.306 24.083-72.918 19.936-90.538 0H.236C13.53 43.62 32.644 49.043 48.691 49.76c1.652.08 3.304.08 4.877.08 10.383-.16 21.946-2.472 32.015-7.895 5.742-3.03 11.012-7.177 15.26-12.6"/><path fill="#25A8E0" d="M100.843 29.346q0 .12 0 0c-.393.319-.787.558-1.101.797-26.509 17.943-63.322 14.434-79.133-.797H10.305c17.62 19.936 66.232 24.162 90.538 0"/><path fill="#fff" stroke="#D7D7D7" d="M30.95 29.846c5.987 5.787 17.004 9.49 30.802 9.41 9.932-.08 21.26-2.15 33.284-6.83-12.248 6.957-26.225 9.737-39.127 9.209-13.735-.562-26.186-4.867-34.016-11.79z"/></g><defs><clipPath id="a"><path fill="#fff" d="M0 0h101v50H0z"/></clipPath></defs></svg>