<svg xmlns="http://www.w3.org/2000/svg" width="154" height="33" fill="none" viewBox="0 0 154 33"><g clip-path="url(#a)"><path fill="#1D1C1E" d="M153.391 16.672q0 2.228-.598 4.304a16.3 16.3 0 0 1-1.64 3.867 16.2 16.2 0 0 1-2.571 3.277 17 17 0 0 1-3.325 2.556 16.3 16.3 0 0 1-3.923 1.617q-2.106.59-4.366.59t-4.367-.59a16.8 16.8 0 0 1-3.923-1.617 17 17 0 0 1-3.324-2.556 17 17 0 0 1-2.594-3.277 17 17 0 0 1-1.662-3.867 16 16 0 0 1-.576-4.304q0-2.228.576-4.304A16.5 16.5 0 0 1 122.76 8.5a17 17 0 0 1 2.594-3.277 16.4 16.4 0 0 1 3.324-2.535 16.8 16.8 0 0 1 3.923-1.616q2.106-.59 4.367-.59 2.26 0 4.366.59 2.106.567 3.923 1.616a16.4 16.4 0 0 1 3.325 2.535 16.2 16.2 0 0 1 2.571 3.277 15.8 15.8 0 0 1 1.64 3.867q.598 2.075.598 4.304m-6.316 0q0-2.054-.798-3.867a9.8 9.8 0 0 0-2.172-3.168 10 10 0 0 0-3.214-2.141 9.9 9.9 0 0 0-3.923-.787 9.9 9.9 0 0 0-3.946.787 10.3 10.3 0 0 0-3.213 2.14 9.8 9.8 0 0 0-2.172 3.169 9.5 9.5 0 0 0-.798 3.867q0 2.053.798 3.867a10.2 10.2 0 0 0 2.172 3.146 10.3 10.3 0 0 0 3.213 2.14 9.9 9.9 0 0 0 3.946.787 9.9 9.9 0 0 0 3.923-.786 10 10 0 0 0 3.214-2.141 10.2 10.2 0 0 0 2.172-3.146 9.5 9.5 0 0 0 .798-3.867M25.847 32.806H.432L14.445 6.891H.432V.406h25.415L11.88 26.322h13.967zm91.845-9.716q0 2.012-.779 3.774a10 10 0 0 1-2.129 3.095 10 10 0 0 1-3.114 2.08 9.6 9.6 0 0 1-3.824.767H91.429V.406h16.417q2.037 0 3.824.768a9.9 9.9 0 0 1 3.114 2.102 9.7 9.7 0 0 1 2.129 3.073 9.2 9.2 0 0 1 .779 3.773q0 .903-.252 1.853a9 9 0 0 1-.71 1.83 8 8 0 0 1-1.099 1.604 6.2 6.2 0 0 1-1.42 1.197 5 5 0 0 1 1.443 1.175 8 8 0 0 1 1.786 3.457q.252.949.252 1.853M98 26.323h9.846q.687 0 1.282-.249a3.2 3.2 0 0 0 1.74-1.717q.252-.587.252-1.265t-.252-1.265a3 3 0 0 0-.71-1.017 3 3 0 0 0-1.03-.7 3.3 3.3 0 0 0-1.282-.25H98zm0-12.947h9.846q.687 0 1.282-.248a3.21 3.21 0 0 0 1.992-3.005q0-.678-.252-1.266a3 3 0 0 0-.71-1.016 3 3 0 0 0-1.03-.7 3.3 3.3 0 0 0-1.282-.25H98zM42.853 6.89q-1.35 0-2.564.52a6.5 6.5 0 0 0-2.084 1.379 6.7 6.7 0 0 0-1.42 2.078 6.3 6.3 0 0 0-.503 2.508v6.485h13.706l6.571-.011v12.957h-6.571v-6.484H36.282v6.484h-6.549v-19.43q0-2.69 1.03-5.04a13.2 13.2 0 0 1 2.794-4.134 13.3 13.3 0 0 1 4.167-2.779Q40.13.406 42.855.406H74.84q1.808 0 3.48.475 1.671.452 3.114 1.31a12.4 12.4 0 0 1 2.656 2.034 12.3 12.3 0 0 1 2.06 2.62 12.4 12.4 0 0 1 1.329 3.096q.48 1.65.48 3.434 0 1.673-.435 3.254a12.6 12.6 0 0 1-1.213 3.005 12.4 12.4 0 0 1-1.924 2.62 13 13 0 0 1-2.564 2.08l3.64 8.472H78.48l-2.862-6.53-8.231.046v6.484h-6.572V19.85l6.572.01h7.453q1.35 0 2.541-.496a6.8 6.8 0 0 0 2.084-1.401 6.4 6.4 0 0 0 1.396-2.056 6.2 6.2 0 0 0 .527-2.53q0-1.334-.527-2.509a6.3 6.3 0 0 0-1.396-2.078 6.5 6.5 0 0 0-2.084-1.379 6.3 6.3 0 0 0-2.541-.52z"/><path fill="url(#b)" d="M40.052 13.38c0-1.657 1.362-3 3.043-3h31.652c1.681 0 3.044 1.343 3.044 3s-1.363 3-3.044 3H40.052z"/></g><defs><linearGradient id="b" x1="77.7909" x2="45.6224" y1="10.4749" y2="27.1573" gradientUnits="userSpaceOnUse"><stop stop-color="#E94309"/><stop offset="0.480328" stop-color="#E92A6E"/><stop offset="1" stop-color="#A204E8"/></linearGradient><clipPath id="a"><path fill="#fff" d="M0 0h154v33H0z"/></clipPath></defs></svg>