<svg xmlns="http://www.w3.org/2000/svg" width="228" height="44" fill="none" viewBox="0 0 228 44"><g clip-path="url(#a)"><g clip-path="url(#b)"><path fill="#073A69" fill-rule="evenodd" d="M159.985 6.039c-.831-.12-1.604.475-1.723 1.366V9.66a9.7 9.7 0 0 0-4.037-1.247c-3.443.06-5.225 1.782-5.225 5.287v4.572c0 3.622 1.722 5.463 5.166 5.404a9.7 9.7 0 0 0 4.037-1.247v4.215c-.058.95.713 1.782 1.663 1.782.95.06 1.782-.713 1.782-1.663v-4.334a11.9 11.9 0 0 0 4.037 1.247c3.445 0 5.166-1.782 5.166-5.404V13.7c0-3.504-1.721-5.226-5.226-5.285-1.424 0-2.85.416-4.037 1.247v-1.84a1.535 1.535 0 0 0-1.306-1.725c0-.118-.12-.118-.297-.06zm-5.76 14.073c-.89.119-1.663-.535-1.78-1.366V13.64a1.537 1.537 0 0 1 1.305-1.724h4.453v8.195zm13.3-1.84c.12.83-.474 1.662-1.305 1.78h-4.513v-8.194h4.037c.832-.12 1.604.416 1.723 1.247v.416l.059 4.75zm16.568-9.917a21.3 21.3 0 0 0-6.65 1.247c-.357-.653-.95-1.128-1.663-1.247a1.534 1.534 0 0 0-1.723 1.306v16.923a1.53 1.53 0 0 0 1.307 1.722h.416c.831.119 1.663-.475 1.722-1.366v-4.572a20.9 20.9 0 0 0 6.591 1.247c3.088.06 5.7-2.375 5.819-5.463v-3.86c.178-3.028-2.079-5.7-5.166-5.878-.178-.06-.416-.06-.653-.06m2.375 9.322c-.06 1.307-1.069 2.316-2.375 2.435h-6.591v-8.195h6.591c1.247.06 2.256 1.07 2.375 2.316zm20.308-9.322c-.832-.12-1.604.475-1.782 1.306v10.39h-7.006a1.557 1.557 0 0 1-1.782-1.364v-8.61c-.06-.95-.831-1.722-1.781-1.663-.89.06-1.663.772-1.663 1.663v8.135c0 3.622 1.722 5.403 5.166 5.403 2.435-.06 4.81-.475 7.066-1.247.12.772.891 1.366 1.663 1.247a1.535 1.535 0 0 0 1.721-1.306V10.136a1.535 1.535 0 0 0-1.306-1.722c0-.06-.118-.06-.296-.06m16.923 1.722v9.975h-7.007a1.56 1.56 0 0 1-1.781-1.365v-8.61a1.72 1.72 0 0 0-1.722-1.665 1.72 1.72 0 0 0-1.722 1.665v8.135c0 3.622 1.781 5.403 5.166 5.403a24.3 24.3 0 0 0 7.125-1.247c.119.772.831 1.366 1.663 1.247h.06a1.533 1.533 0 0 0 1.721-1.306V10.077c-.059-.95-.831-1.722-1.781-1.663-.95.06-1.722.772-1.722 1.663" clip-rule="evenodd" opacity="0.75"/></g><g fill="#073A69" clip-path="url(#c)" opacity="0.75"><path d="M130.219 19.476c-.238-.178-.475-.296-.653-.475-.772-.594-1.544-1.247-2.257-1.84a4.8 4.8 0 0 1-.771-.772c-.534-.535-1.01-1.129-1.485-1.663-.178-.178-.296-.416-.653-.416-.059 0-.119-.059-.178-.118-.416.356-.772.712-1.188 1.068a3 3 0 0 0-.178-.415c-.475.237-.831.534-1.247.831-.416.238-.831.534-1.247.831-.059-.059-.119-.118-.119-.237-.119.06-.237.06-.297.119-.058.059-.177.059-.118.178l-.356.356c-.654.535-1.307 1.01-1.901 1.544-.356.297-.356.297-.059.713.772.95 1.603 1.9 2.376 2.85l.177.178h.535c.178.237.356.475.475.653.712 1.01 1.484 2.078 2.197 3.088.06.118.238.237.178.415-.118-.059-.178-.059-.297-.118-.356-.178-.713-.416-1.068-.594-.179-.119-.416-.178-.654-.238-.296-.06-.593-.06-.95-.119.357.416.831.594 1.188.95-.06 0-.119.06-.119.06-1.069-.178-2.078-.416-3.147-.594-.238-.06-.475-.178-.773-.119.298.12.535.238.832.238.534.178 1.069.356 1.662.534.654.178 1.188.535 1.782.891-.356 0-.713.06-1.009.06-.357 0-.713-.06-1.069.059.06.06.06.06.118.06h2.02c.237 0 .474.059.712-.06.119-.178 0-.297-.06-.416-.178-.297-.415-.653-.593-.95l.119-.119c.237.12.534.238.772.416.237.119.416.238.653.297l.534.356c-.119.297-.89 1.9-1.187 2.316-.06-.06-.06-.119-.06-.178 0-.06-.059-.119-.059-.238-.06.297-.119.475-.238.713-4.513.237-9.025.475-13.656.712.415-.297.831-.297 1.128-.534-.416-.178-.832-.178-1.247-.297.119.178.177.238.236.356-.177.178-.415.297-.652.416-.179.119-.416.238-.653.416.118.118.177.237.237.356a.76.76 0 0 1 .059.356c.06.594.119 1.247.238 1.84 0 .18.119.357.178.476.178.356.416.713.593 1.069-.117.06-.177.119-.296.119s-.178 0-.297.059c-.771.178-.535.119-1.128-.297-.416-.297-.772-.653-1.188-.95-.237-.178-.356-.356-.416-.594-.297-.89-.533-1.84-.831-2.731a1.35 1.35 0 0 0-.356-.713 1.86 1.86 0 0 1-.475-.89c-.059-.297-.178-.535-.237-.832.119-.178.296-.297.534-.415.118-.06.237-.12.356-.238.357.06.653.06 1.009.119.238 0 .476.06.654.237.119.12.237.12.415.12.119 0 .238 0 .357-.06.535 0 .712 0 1.128-.238h-.593c-.06 0-.119-.06-.238-.119 1.9-.356 3.8-.653 5.7-1.009.178.178.297.416.416.594.059.297.297.237.534.178l-.415-.416a8 8 0 0 1 .771-.653c.297-.237.535-.475.831-.653.595.119 1.069.416 1.663.475 0-.06.06-.119.06-.178 0-.357 0-.416-.357-.475-.415-.06-.831-.178-1.247-.238a1.84 1.84 0 0 1-.771-.356c-.891-.772-1.782-1.544-2.732-2.256-.357-.297-.593-.594-.712-1.07v-.059a.65.65 0 0 1 0-.475c.178-.356.415-.772.593-1.187.06-.119.119-.178 0-.297-.059 0-.119 0-.119.06-.296.355-.593.712-.89 1.128-.06.059-.06.178-.06.237 0 .119.06.297.06.416.059.178.119.415.119.593-.06 0-.119.06-.179.06 0-.178-.178-.238-.237-.297-.891-.653-1.781-1.366-2.673-2.019-.117-.06-.177-.178-.296-.238a.8.8 0 0 1 .179-.237c.533-.772 1.009-1.485 1.543-2.256.237-.357.416-.713.653-1.07.119-.118.179-.296.297-.474h1.306q.356 0 .713-.178c.238-.12.416-.238.653-.357.059-.06.119-.06.178-.118 0-.06 0-.06-.059-.06h-1.603v-.119c.356-.296.712-.653 1.128-1.01.119 0 .356 0 .594-.058.356-.476.772-.95 1.128-1.426.416 0 1.068.179 1.544.416-.712.356-1.544.594-2.256 1.01.237.059.533.059.771 0 .594-.238 1.128-.535 1.722-.772.06 0 .119-.06.179-.12-.119-.296-.119-.593-.06-.89.06-.297.237-.534.356-.831-.237 0-.415 0-.653-.06.06-.118.06-.237.119-.356.534-.831 1.009-1.603 1.425-2.494.06-.118.119-.237.119-.297-.178-.178-.356 0-.535 0l-.059-.059s-.06-.06-.06-.119c-.059-.653-.059-1.365-.118-2.019.118-.059.178.06.178.12.238.415.416.83.653 1.246.059.06.059.178.237.119.06-.356 0-.713 0-1.128-.178-.12-.415-.179-.415-.416 0-.06-.119-.178-.178-.238-.475-.534-.891-1.068-1.366-1.543-.416-.06-7.838-.06-8.61 0-.297.296-.594.653-.89 1.01-.06.118-.179.177-.238.296-.119.06-.178.06-.297 0-.119-.119-.297-.119-.416-.119-.059-.06-.177-.119-.296-.178.059-.119.059-.297.119-.416-.06 0-.119-.059-.179 0a2.8 2.8 0 0 0-.891.357c-.237.178-.534.297-.831.415h-.119c-.178-.415.06-.653.357-.95-.119 0-.179-.06-.238 0-.178.119-.357.178-.534.297-.119.119-.297.178-.475.356.119-.534.356-.95.475-1.365.06-.238.237-.475.415-.653 0 .118.06.237.06.415a7 7 0 0 1 .178-.594c.059-.059.119-.178.238-.237.237-.119.533-.178.771-.238.059 0 .178.06.297.06.06-.178.178-.238.357-.238.296 0 .652-.06.95-.06.237 0 .534-.059.771-.177.238-.119.535-.178.832-.178 0-.238-.238-.179-.297-.297l.059-.06c.653 0 1.247-.059 1.9-.059.476 0 .95-.06 1.485-.06-.119.179-.297.179-.416.238-.237.06-.475.06-.712.297.237.06.475 0 .712-.06 1.366-.296 2.672-.534 4.038-.83.178-.06.297-.06.475-.06.178.119 0 .237.06.416.119.118.296 0 .415 0-.06-.238-.06-.475-.119-.713q.603.295 1.128.713c.059 0 .119-.06.178-.06.179.238.06.653.357.831h.059c.119-.356-.059-.653 0-1.068.179.178.297.356.416.534h1.603c.119.119.238.238.297.356.772.832 1.485 1.722 2.197 2.554l.356.534c.772.238 1.663.416 2.494.653.298.89.416 1.841.713 2.732h.356c-.059-.416-.059-.832-.119-1.247a.9.9 0 0 1 .178-.772c.357-.416.772-.89 1.129-1.307.178-.178.297-.296.534-.356.594-.06 1.188-.178 1.781-.297.119.119.238.178.357.238.534.475 1.069.95 1.663 1.425.355.297.474.712.653 1.069v.118c-.119.535-.06 1.129-.476 1.544-.059.06-.059.12-.118.178.118.297.059.654 0 1.01 0 .119-.059.178-.119.297-.534.653-1.069 1.247-1.603 1.9 0 0-.06 0-.06.06-.059-.06-.178-.06-.237-.12-.357-.237-.712-.534-1.069-.83-.178-.12-.297-.12-.475-.12-.297.06-.653.12-1.01.238 0-.238.297-.238.297-.356-.297-.06-.356-.06-1.009.178-.237.06-.475.06-.772.119.119-.297.297-.475.416-.654.059-.059.119-.178.059-.296 0 0 .059 0 .059-.06l-.059.06c-.178.118-.297.178-.475.296l-.178.179c-.356.712-.772 1.306-1.247 1.9h-1.96c-.119.297-.237.475-.297.772-.059.118-.058.237-.058.415l-.06.06v-.06c.178-.06.237-.237.296-.415.119-.178.179-.357.298-.535h1.306c.119 0 .297.06.416-.06.119 0 .237 0 .356-.059l.416-.415c.356-.356.653-.713.949-1.01h.595c.355.06.652.179 1.009.238.119 0 .238.06.297.178.296.534.653 1.01.89 1.603-.118.06-.178.178-.237.238 0 .06 0 .06.059.119.119.118.238.296.476.296.059 0 .118.12.178.179.653.653 1.247 1.306 1.9 2.018-.238.238-.119.476-.06.713.06.238.06.475.238.713.178-.06.238-.297.356-.416.119.06.178.119.237.297.06.237.119.475.297.772a3.4 3.4 0 0 0-.356-1.247c0-.06 0-.178.059-.238.119-.178.238-.297.416-.415.297-.238.476-.594.654-.95.415-.772.712-1.604 1.009-2.494.119-.297.178-.594.356-.832h.119c.475.06 1.009.06 1.484.12v.177c0 .06-.059.119-.059.238h.238c-.06.178-.06.356-.179.534-.771 1.84-1.544 3.682-2.315 5.582-.119.237-.238.534-.357.772-.178.059-.415.119-.593.237 0 .178.059.357.059.594-.297.119-.535.238-.832.356-.118-.06-.118-.178-.118-.297-.059-.178-.059-.356-.119-.593-.297 0-.534-.12-.832 0 .238-.06.238.059.238.118m-8.372-4.987c0-.06.059-.06.059-.12.297-.118.297-.118.357-.415-.178.119-.357.177-.357.415-.059 0-.059.001-.059.12-.06 0-.119 0-.178.059-.06.06-.119.06-.179.119v.059l.06.06.119-.12q.088-.178.178-.178zm-1.247.95c0 .059-.06.059-.06.118.06 0 .06-.059.119-.059l.119-.119c.178-.06.297-.237.415-.415 0 0 .06 0 .06-.06l.059-.06v-.118l-.059.06-.118.118a.72.72 0 0 0-.416.416c0 .06-.06.119-.119.119m-8.61 3.978c0-.06.059-.06.059-.119 0 0 0-.06-.059-.06h-.06l-.118.12c0 .059-.06.118-.06.178.178 0 .238-.06.238-.119m5.344-1.722c.06-.06.119-.06.237-.119h.119s0-.06.059-.06h-.059c-.06 0-.06.06-.119.06-.118.059-.177.059-.237.119h-.119s0 .06-.059.06h.059c.06 0 .06 0 .119-.06M104.092 3.622c-.059 0-.118.06-.177.06l-.119.118c.059 0 .059 0 .119.06.059-.06.177-.12.236-.179 0-.059.06-.059.06-.118-.06.06-.119.059-.119.059m3.564-1.128c.177-.178.236-.475.296-.713l-.06-.059h-.119c-.117.297-.117.534-.117.772l-.06.06s0 .059.06.059zm10.212 9.679c-.356-.12-.712-.297-1.069-.357-.356.357-.356.357-.475.594h.059c.06 0 .119 0 .179-.06.356-.237.713-.237 1.068-.118h.06c.475.119.951.238 1.544.297-.475-.119-.89-.238-1.366-.356m1.723-.653c-.298-.238-.654-.416-.95-.594-.119-.06-.238-.119-.357-.119-.178 0-.238 0-.535.119.595.237 1.128.534 1.723.772.178.118.356.237.652.237-.118-.237-.355-.356-.533-.415m-.179-5.404c-.237-.119-.416-.178-.712-.119.237.238.475.238.712.297.06 0 .179.06.238.06.415.118.831.178 1.128.534 0 .06.119 0 .238 0-.178-.534-.297-1.069-.535-1.544-.534-.95-1.009-1.84-1.544-2.79-.296-.535-.653-.95-1.009-1.366h-.119c.059.118.119.237.237.356.355.52.654 1.078.891 1.662.475.95.891 1.96 1.425 2.85.06.06.06.12.06.238-.416-.06-.713-.178-1.01-.178m-2.494 11.817a2 2 0 0 0-.712.356c.237.118.415.237.653.297.059.059.178.059.238-.06 0-.178-.06-.415-.179-.593M121.669 5.7c-.179.416-.238.832-.357 1.247 0 .06.059.12.178.238.119-.535.119-1.01.179-1.485m-4.275-2.79c.059-.416-.06-.772-.119-1.07l-.06-.059c-.059 0-.118.06-.118.06 0 .356.118.653.297 1.069m.89 19.357c.475.119.891 0 1.425 0-.832-.119-1.068-.119-1.425 0m2.078-8.847c-.119.118-.178.297-.238.534.238-.06.298-.237.357-.356s0-.178-.119-.178m-7.541 8.847c-.356-.119-.356-.119-.772 0 .297.06.535.06.772 0m-5.522-20.486c-.059.06-.059.12-.059.238h.059zm24.286 16.092v.06s.059 0 0-.06q.088 0 0 0m-91.443-7.6c.179-.06.357-.12.535-.12a22.7 22.7 0 0 1 3.978-.89c1.07-.119 2.197-.178 3.266.06 1.663.356 2.91 1.306 3.8 2.73.297.535.475 1.07.475 1.723v4.75c0 1.07-.356 1.96-.89 2.791-.653.95-1.603 1.603-2.672 2.019-.357.119-.832.178-1.247.238a13.9 13.9 0 0 1-5.166-.416c-.535-.119-1.07-.357-1.663-.535-.119-.059-.178-.059-.356-.118 0 .178-.06.297-.06.415v3.207c0 .178 0 .356-.059.594a1.74 1.74 0 0 1-1.722 1.425c-.89-.06-1.544-.713-1.603-1.544V11.163c0-.237 0-.475.06-.653.177-.713.652-1.128 1.365-1.247.712-.119 1.247.178 1.663.713.118 0 .178.178.296.297m.06 2.256c0 .119-.06.238-.06.356v7.185c0 .119 0 .178.06.297h6.176c.83 0 1.543-.356 2.078-1.01.296-.356.534-.771.534-1.306v-3.325c0-.178-.06-.356-.119-.534-.297-.95-1.01-1.485-1.96-1.663-.356-.06-.712 0-1.068 0zm45.422 4.631c-.416.06-.831.12-1.306.179-.891.119-1.841.237-2.791.237-.713 0-1.366-.06-2.079-.119-.593-.059-1.187-.178-1.84-.237h-.416c-.119.178-.06.356-.06.534v4.276c-.059.89-.771 1.603-1.662 1.603s-1.662-.713-1.722-1.603V10.807c.06-.89.772-1.603 1.663-1.603.89 0 1.662.712 1.662 1.603v3.503c.119.178.297.12.416.12h8.016c0-.179.06-.298.06-.417v-2.85c0-.237 0-.475.059-.653a1.73 1.73 0 0 1 1.663-1.187c.771 0 1.425.534 1.603 1.246.06.179.06.416.06.594v10.63c0 .177 0 .296-.06.474-.06.713-.713 1.485-1.782 1.425-.89-.06-1.543-.772-1.603-1.662v-4.276c.178-.237.178-.415.119-.594M7.897 23.633H4.216c-.713 0-1.425-.119-2.078-.416-.95-.415-1.544-1.128-1.841-2.137C.059 20.308 0 19.595 0 18.823V13.42c0-.712.178-1.365.416-2.018.237-.653.712-1.128 1.247-1.485.712-.415 1.484-.653 2.315-.653h7.66c.357 0 .653.06 1.01.119.89.237 1.544.713 1.96 1.544.474.831.652 1.781.593 2.731-.06.832-.653 1.425-1.484 1.425-.238 0-.475 0-.713-.059-.653-.178-1.069-.713-1.128-1.366 0-.237 0-.475-.06-.653-.059-.416-.356-.713-.712-.89-.297-.179-.653-.179-1.01-.179H4.632c-.832.119-1.366.653-1.426 1.485v5.936c0 .238 0 .535.12.773.237.593.652.89 1.246.95h5.463c.238 0 .534 0 .772-.06.594-.178.95-.594 1.01-1.187v-.475c0-.713.653-1.425 1.484-1.425h.416c.771.059 1.365.593 1.425 1.365.06.95-.12 1.9-.594 2.791q-.802 1.425-2.494 1.603c-.297.06-.653.06-.95.06-1.01-.12-2.138-.119-3.207-.119M21.788 12.47v9.085c0 .237 0 .475-.06.653-.059.712-.772 1.484-1.722 1.425-.83 0-1.544-.713-1.662-1.544V11.045c0-.238 0-.476.06-.654.177-.653.652-1.068 1.305-1.187.654-.119 1.188.119 1.604.653.119.119.178.238.297.416.118 0 .178-.06.237-.06.95-.356 1.9-.534 2.91-.712 1.365-.238 2.79-.297 4.156-.357.535 0 1.07 0 1.544.12.89.237 1.603.712 2.138 1.484.534.712.772 1.543.831 2.434.119 2.85.06 5.76.06 8.61v.238a1.767 1.767 0 0 1-1.722 1.603c-.713 0-1.604-.475-1.723-1.603v-7.125c0-.416 0-.832-.118-1.188-.119-.238-.178-.535-.356-.772-.297-.416-.654-.654-1.188-.654h-6.176c.06.12-.178.12-.415.179m45.133 7.897c.06-.178.06-.415.06-.594v-8.61c0-.237 0-.475.059-.653.119-.89.95-1.425 1.781-1.425.832.06 1.544.713 1.603 1.603v10.927c0 .237 0 .474-.059.652q-.267.981-1.247 1.247c-.712.178-1.247-.06-1.722-.593-.119-.12-.178-.238-.297-.357h-.178c-1.01.357-2.019.594-3.088.713-1.425.178-2.91.356-4.394.356q-.713 0-1.425-.178c-.89-.238-1.544-.772-2.078-1.484-.475-.654-.713-1.426-.772-2.257-.119-1.603-.06-3.147-.06-4.75v-3.92c0-.177 0-.356.06-.534.178-.831.831-1.425 1.663-1.365.89 0 1.603.712 1.662 1.425 0 .178.06.415.06.653v6.65c0 .416 0 .832.118 1.188.06.237.179.416.297.594.297.475.772.772 1.366.772h6.354c.059 0 .118 0 .237-.06"/><path d="M101.123 12.53v9.678c-.059.89-.772 1.603-1.663 1.603-1.07 0-1.722-.89-1.722-1.603v-9.62c-.118-.178-.296-.118-.415-.118-1.366-.12-2.732-.238-4.098-.535a12 12 0 0 1-1.96-.534 1.8 1.8 0 0 1-.474-.238 1.015 1.015 0 0 1-.297-1.187c.178-.475.475-.713.95-.772h15.676c.594 0 .95.356 1.069.89a1.12 1.12 0 0 1-.594 1.247c-.178.06-.296.12-.475.18-.891.295-1.841.474-2.731.652-1.01.178-2.019.237-3.088.297-.059 0-.118 0-.178.06m3.504 14.903c-.119.06-.238.12-.356.238 0-.12-.06-.179-.179-.12-.237.06-.535.12-.771.238h-.357c-.059 0-.119.06-.238.06h-1.187v-.178c.238-.178.475-.416.712-.594-.058-.06-.058-.06-.118-.119.06-.06.06-.119.118-.178 1.841-2.138 3.741-4.216 5.642-6.294.178.118.356.178.474.237.654.356 1.247.713 1.901 1.07.119.058.297.118.416.237 0 0 .059-.06.118-.06q-.088.09 0 .178c.178.12.356.238.594.357-.178.297-.475.415-.653.653-.416.356-.832.712-1.247 1.128-.178.06-.297.178-.356.416.237-.06.356-.179.474-.357.416-.356.892-.712 1.307-1.069.237-.118.356-.356.594-.415.178.297.297.594.416.95-.119.06-.178.178-.297.237-1.128.772-2.316 1.485-3.444 2.257-.535.356-1.01.653-1.544 1.01h-.119c0-.12-.06-.238-.06-.357-.593 0-1.128.12-1.663.356a.7.7 0 0 0-.177.12m3.682-2.078-.119.12c-.119 0-.238.058-.238.177l-.119.118c-.119 0-.178 0-.178.12h-.059s0-.06.059-.06c.119 0 .178 0 .238-.119l.119-.119c.118 0 .178-.118.178-.237.059.12.119.06.119 0 .058 0 .118 0 .058-.06zm.296-.178c.178-.06.356-.178.475-.475-.297.06-.416.237-.475.475-.06 0-.06 0-.119.06.059-.06.119-.06.119-.06"/><path d="M102.728 27.849c.059-.06.119-.06.237-.06h.357l.534 1.426c.059.178.119.297.178.475-.178.119-.296.178-.474.297-1.128.653-2.316 1.365-3.444 2.019-.12.059-.297.118-.357.296-.12-.06-.178 0-.237.12h-.119c-.238.059-.416.118-.535.296-.06 0-.06.06-.118.06-1.366.77-2.672 1.603-4.038 2.375-.119.059-.238.237-.475.178.06-.12.06-.238.118-.357-.178-.118-.356-.06-.474.12-.238.355-.535.712-.772 1.009a6 6 0 0 1-.594.712l-.238.238c.06-.238.06-.416.06-.594.118-.653.178-1.306.297-1.96.059-.237.118-.415.356-.534.772-.475 1.544-.95 2.316-1.484a5 5 0 0 1 .594-.357v.178l-1.247 1.604c-.06.118-.119.178-.179.297.238.118.357.059.476-.12l1.068-1.424c.179-.238.298-.416.475-.653l-.178-.18c.06-.058.06-.117.119-.117.712-.594 1.306-1.307 1.959-1.96.298-.297.534-.594.831-.89.18-.18.357-.297.595-.357q1.107-.196 2.197-.475c.356 0 .593 0 .712-.178m-11.998 9.44c.356-.177.594-.415 1.01-.533v.178c-.416 1.247-.891 2.553-1.307 3.8-.534.06-1.306.06-1.722 0 .06-.297.06-.594.119-.89l.178-1.07c0-.237.119-.415.297-.474.119-.06.237-.178.415-.297 0-.594-.178-1.188-.118-1.841.712-.297 1.484-.594 2.197-.772 0 0 .06 0 .118.06-.415.652-.95 1.187-1.365 1.84-.12.06-.238.178-.178.297h-.06l.06-.06c.178 0 .237-.118.356-.237m43.05-25.77h-.118c.058-.06.058-.178 0-.237-.119-.178-.238-.297-.357-.475-.059-.06-.059-.178-.059-.238.297 0 .593-.118.831-.296h-.415c-.178 0-.357 0-.535.059v-.594c0-.534 0-.534.357-1.07a.54.54 0 0 1 .178.417c0 .119-.059.237-.059.356 0 .06.117.119.177.178a9 9 0 0 0 .237-1.068c.238 0 .416.118.595.178.178.06.355.237.593.178.059.119.119.119.238.119 0 0 .059-.06.059-.12h.119c0 .06-.059.179 0 .179.119.06.297.119.416.178l.059-.06c-.059.12-.118.298-.237.357-.06.06-.179.119-.238.238.178-.06.416-.06.593-.12 0 0 .06 0 .06.06v.06c0 .059-.06.118-.06.178-.236.475-.534.95-.771 1.425-.416 0-.831-.06-1.307-.06-.178.06-.297.06-.356.179M93.103 37.707v-.12c.357-.474.713-.95 1.129-1.424.118-.12.177-.237.296-.356l3.029-1.782.119.12c-1.306 1.246-2.672 2.434-4.157 3.443-.119.119-.297.178-.416.297zM88.71 42.16c.773-.357 1.367-.535 1.723-.595-.06.357-.653 1.96-.95 2.435-.06 0-.119-.06-.119-.06-.237-.178-.475-.296-.653-.474zm2.376-1.545c-.118-.356-.06-.712.06-1.07.237-.652.415-1.305.593-1.958.357-.06.654-.178 1.01-.238 0 .06.06.12.06.12a53 53 0 0 1-1.723 3.146"/><path d="M101.067 32.184c-.713.534-1.425 1.068-2.138 1.543 0 0-.06 0-.118.06 0-.356.176-.654.176-1.01v-.12a.96.96 0 0 0 .536-.177c.059-.06.178 0 .118-.118.12.058.238.058.238-.12.06.06.118.12.179.06.296-.118.653-.237.95-.297 0 .06 0 .12.059.178m4.565-27.495c.179 0 .298 0 .416.12 0 .12-.059.178-.118.297-.238.356-.476.772-.714 1.128 0 0-.059 0-.118.06-.119-.357-.238-.654 0-1.01l.178-.356c.059-.179.178-.239.356-.239m29.696 3.504c-.178.12-.357.178-.594 0-.059-.297.119-1.128.297-1.603.119 0 .297.06.475.06-.059.237-.119.475-.119.712-.059.178-.059.416-.118.594 0 .12.059.178.059.237"/><path d="M135.566 9.026h-.416c0-.12.06-.297.06-.416v-.416c.059-.06.119-.118.119-.237l.178-.713c.238 0 .238 0 .416.12q-.167.781-.416 1.543c.178.06.119.06.059.119m-1.43-1.841a1 1 0 0 1 .416.06c0 .355-.059.712-.118 1.068-.119 0-.238 0-.357.06-.059-.416.059-.773.059-1.188M102.668 5.7c-.178-.118-.178-.237-.118-.356.177-.297.355-.653.593-.95.178.238.178.475.06.653a1.9 1.9 0 0 1-.535.653m33.371 3.623c-.059-.357.119-.713.238-1.01.178-.12.297 0 .415.119-.059.297-.177.594-.237.89zm-2.256 2.197c.06-.12.179-.12.238-.12.416 0 .831.06 1.306.06 0 .06-.059.119-.059.178-.475 0-.95-.06-1.485-.118m-2.555 4.928c.178.356.236.772.355 1.247-.236-.297-.236-.534-.296-.772-.059-.12-.059-.237-.238-.297q0-.179.179-.178m1.899-6.116c.178 0 .357 0 .535-.06.118 0 .237-.06.415 0-.238.179-.534.238-.831.297-.059-.06-.059-.118-.119-.237m-35.39 23.81-.118-.118c.179-.178.357-.297.595-.356-.12.238-.297.356-.476.475m3.331-1.958c-.059-.06-.119-.12-.119-.18.119-.058.238-.117.297-.177h.179c-.119.238-.119.238-.357.357M90.735 37.29q-.09.178-.356.178c0-.178.06-.237.178-.297.06.06.119.119.178.119m44.706-25.236h-.238c0-.06.059-.12.059-.238h.119c.06.12.06.179.06.238M101.598 27.73v.178c-.059.06-.119.06-.178-.06 0-.06.119-.118.178-.118m-5.522 4.69v-.177c.06 0 .12-.06.178-.06v.12c-.12.059-.178.059-.178.118m-2.972 5.286v.178c-.06 0-.06.06-.12.06l-.06-.06zm42.339-25.652v-.178c.119.06.119.06 0 .178M123.51 26.543l-.119-.12c.059-.06.119 0 .119.12m-24.528 6.116c.06 0 .06.059 0 .118h-.12c0-.06.06-.06.12-.118m31.18-13.183q.09.09 0 0M94.352 35.27v.06h-.06s.06 0 .06-.06"/><path d="M92.985 37.943s-.06 0-.06.06c0-.06 0-.06.06-.06m30.647-25.652v.12c-.118.118-.237.059-.415.059h-1.307c-.119.178-.178.356-.297.534-.059.119-.119.297-.297.416 0-.119 0-.297.059-.416.06-.237.179-.475.298-.772h1.009c.297 0 .594.059.95.059m-1.784 15.083c0 .06.059.119.059.178h-2.02s-.058-.06-.117-.06c.355-.118.712-.059 1.068-.059.356-.06.712-.06 1.01-.06zm-4.1-15.024.179-.177c.416.06.89.237 1.365.475-.594-.06-1.128-.12-1.544-.298m-.352-9.44a4.2 4.2 0 0 1-.296-1.07s.06-.059.119-.059c0 0 .058 0 .058.06.06.297.179.653.119 1.069m-10.334 24.939c0-.06.238-.06.06-.238l.059-.06h.178c.06.06.119.06.238.12h.594c-.416.178-.653.178-1.129.178M119.41 6.116v.178c-.238-.06-.535-.06-.713-.297.238-.06.475 0 .713.119m-11.758-3.622c-.059-.238 0-.535.118-.772 0 0 .06-.06.119 0l.06.06c-.06.296-.06.534-.297.712m10.627 19.773c.356-.119.594-.119 1.425 0-.534 0-.95.119-1.425 0m2.081-8.847q.177 0 .177.178c-.059.178-.118.297-.355.356q0-.355.178-.534m-6.829 13.716c.06-.06.06-.119.119-.178l.416.416c-.297 0-.475.06-.535-.238m4.931-1.306v.178c-.297 0-.533-.119-.831-.237.357-.178.594 0 .831.059m1.007-14.192.119-.119q.267.09.534.357c-.238 0-.475-.12-.653-.238m1.727 3.385a1.4 1.4 0 0 1-.415.416l-.06-.06a1.4 1.4 0 0 1 .415-.415c.06 0 .06.06.06.06zm.71-.653c0-.238.178-.297.356-.416 0 .238 0 .238-.356.416m-9.086 7.897c-.238.06-.474 0-.771 0 .474-.119.474-.119.771 0m8.903-7.719c-.059.06-.059.119-.119.119 0 0-.059 0-.059-.06v-.06c0 .06.059 0 .178 0zm-14.424-12.47c.033 0 .06-.08.06-.178s-.027-.178-.06-.178-.059.08-.059.178.026.178.059.178m-3.149 1.604c-.06.059-.179.118-.238.178v-.178c.059 0 .119-.06.178-.06 0 0 0 .06.06.06m13.358 13.894c.06 0 .06-.06.119-.06h.06s0 .06-.06.06c-.059.06-.059.06-.119 0m-.231.119c.059-.06.118-.06.178-.119v.06s-.06.059-.178.059"/><path d="m117.334 17.695-.06.06h-.059s0-.06.059-.06zm14.25.178q.088 0 0 0m-10.332-3.028.059-.06v.12l-.059.06c.059-.06.059-.06 0-.12m-9.326 4.453.118-.118h.06l.059.06c0 .06-.059.06-.059.118-.119 0-.178 0-.178-.06m-4.271-16.804v.18l-.059-.06c0-.06.059-.06.059-.12m13.007 13.004c-.06 0-.06.06-.119.06 0-.06.059-.06.059-.12zM104.09 3.622h.119c0 .06-.059.06-.059.12-.06-.06-.06-.12-.06-.12"/><path d="m120.776 15.439-.118.118-.06-.06c.06-.06.119-.118.178-.06-.059-.058 0-.058 0 0zm1.128-1.07c0 .06-.06.06-.06.12l-.059-.06c.059-.06.059-.06.119-.06M103.916 3.682v.179c-.06 0-.06 0-.119-.06z"/><path d="m121.848 14.488-.119.12-.059-.06c.059-.06.059-.12.178-.06q-.088-.09 0 0m-9.856 4.929c-.06.06-.06.119-.119.06 0 0 0-.12.059-.18 0 .06.06.06.06.12m9.263-4.572v.119l-.059.059-.059-.06c.059-.06.118-.06.118-.118m4.214-4.988.06-.06s-.06 0-.06.06m-16.862 15.26c.119-.178.237-.297.475-.415-.119.297-.297.356-.475.415m.825-.831.119.119c-.119.178-.238.237-.475.356.059-.297.237-.356.356-.475m-1.241 1.188c0 .118-.06.237-.179.237-.059-.178.06-.237.179-.237m-.535.416c.06-.12.119-.12.178-.12 0 .06-.059.12-.178.12"/><path d="m107.889 25.77.119-.118c-.06.06-.119.06-.119.118m.419-.415c0 .06-.059.12-.119.12zm0 0 .059-.06c.059.06-.059.06-.059.06m.293-.178c-.06 0-.06.06-.119.06.059-.06.059-.119.119-.06q0-.088 0 0m-9.08 7.303c-.178.12-.297.178-.535.178a.63.63 0 0 1 .535-.296zm.297-.237c0 .178-.06.178-.238.12.06-.12.12-.12.238-.12"/><path d="M99.52 32.48v-.118h.118c0 .118-.06.118-.118.118m35.683-23.454h.297c0 .06 0 .12-.059.12-.119 0-.179 0-.238-.12m-13.295 16.982-.06-.06h.06z"/><path d="M121.906 25.95c.059 0 .119 0 .119.06-.06.057-.06.057-.119.117q.088-.09 0-.178"/></g></g><defs><clipPath id="a"><path fill="#fff" d="M0 0h228v44H0z"/></clipPath><clipPath id="b"><path fill="#fff" d="M149 6h79v23h-79z"/></clipPath><clipPath id="c"><path fill="#fff" d="M0 0h137v44H0z"/></clipPath></defs></svg>