<svg xmlns="http://www.w3.org/2000/svg" width="137" height="50" fill="none" viewBox="0 0 137 50"><path fill="#8A7E95" d="M63.77 21V10.5h3.93q1.335 0 2.295.435.96.42 1.47 1.23.525.795.525 1.935 0 1.11-.525 1.92-.51.795-1.47 1.23t-2.295.435h-3.315l.495-.525V21zm1.11-3.75-.495-.54h3.285q1.575 0 2.385-.675.825-.69.825-1.935 0-1.26-.825-1.95-.81-.69-2.385-.69h-3.285l.495-.525zm12.454 3.825q-1.23 0-2.16-.51a3.83 3.83 0 0 1-1.455-1.425q-.525-.915-.525-2.085t.495-2.07q.51-.9 1.38-1.41.885-.525 1.98-.525 1.11 0 1.965.51.87.495 1.365 1.41.495.9.495 2.085 0 .075-.015.165v.165h-6.855v-.795h6.285l-.42.315q0-.855-.375-1.515-.36-.675-.99-1.05t-1.455-.375q-.81 0-1.455.375t-1.005 1.05-.36 1.545v.165q0 .9.39 1.59.405.675 1.11 1.065.72.375 1.635.375.72 0 1.335-.255.63-.255 1.08-.78l.6.69q-.525.63-1.32.96-.78.33-1.725.33m7.793.015q-.855 0-1.695-.24a4.4 4.4 0 0 1-1.485-.735l.345-.795q.57.42 1.32.645.75.21 1.485.21.735-.015 1.275-.21t.84-.54.3-.78q0-.63-.57-.975-.57-.36-1.56-.36h-1.35v-.78h1.275q.585 0 1.035-.15t.69-.435a.98.98 0 0 0 .255-.675q0-.42-.3-.72-.285-.3-.795-.45t-1.155-.15q-.585.015-1.215.18-.63.15-1.245.465l-.3-.825q.69-.36 1.365-.54.69-.195 1.38-.195.945-.03 1.695.225.765.255 1.215.735.45.465.45 1.125 0 .585-.36 1.02t-.96.675-1.365.24l.045-.285q1.35 0 2.1.525.765.525.765 1.425 0 .705-.465 1.245-.465.525-1.26.825-.78.3-1.755.3m5.898-.09v-7.875h1.065v6.255l5.265-6.255h.945V21h-1.065v-6.27L91.985 21zm15.727-.51v-6.435h-3.795l-.09 1.755q-.03.795-.105 1.56-.06.765-.225 1.41-.15.63-.435 1.035-.285.39-.735.45l-1.065-.195q.465.015.765-.33.3-.36.465-.975t.24-1.395q.075-.795.12-1.62l.105-2.625h5.82v7.365zm-6.78 2.415V20.07h9.075v2.835h-1.005V21h-7.065v1.905zm14.525-1.83q-1.23 0-2.16-.51a3.83 3.83 0 0 1-1.455-1.425q-.525-.915-.525-2.085t.495-2.07q.51-.9 1.38-1.41.885-.525 1.98-.525 1.11 0 1.965.51.87.495 1.365 1.41.495.9.495 2.085 0 .075-.015.165v.165h-6.855v-.795h6.285l-.42.315q0-.855-.375-1.515-.36-.675-.99-1.05t-1.455-.375q-.81 0-1.455.375t-1.005 1.05-.36 1.545v.165q0 .9.39 1.59.405.675 1.11 1.065.72.375 1.635.375.72 0 1.335-.255.63-.255 1.08-.78l.6.69q-.525.63-1.32.96-.78.33-1.725.33m5.898-.075v-7.875h1.065v3.48h4.965v-3.48h1.065V21h-1.065v-3.48h-4.965V21zm11.622 0v-7.23l.27.285h-3.255v-.93h7.035v.93h-3.255l.27-.285V21zM68.36 40.09q-1.185 0-2.19-.39a5.3 5.3 0 0 1-1.74-1.125 5.3 5.3 0 0 1-1.155-1.695 5.5 5.5 0 0 1-.405-2.13q0-1.155.405-2.13.42-.975 1.155-1.695.75-.72 1.755-1.11 1.005-.405 2.19-.405 1.14 0 2.145.39 1.005.375 1.695 1.14l-.705.705a3.8 3.8 0 0 0-1.425-.945q-.78-.3-1.68-.3-.945 0-1.755.33-.81.315-1.41.915-.6.585-.945 1.38-.33.78-.33 1.725t.33 1.74q.345.78.945 1.38.6.585 1.41.915a4.8 4.8 0 0 0 1.755.315q.9 0 1.68-.3t1.425-.96l.705.705q-.69.765-1.695 1.155t-2.16.39M80.027 40l-3.24-3.9.885-.525L81.287 40zm-5.775 0v-7.875h1.065V40zm.735-3.51v-.915h2.535v.915zm2.775-.315-.99-.15 3.135-3.9h1.155zm8.168 3.9q-1.14 0-2.055-.51a3.9 3.9 0 0 1-1.425-1.425q-.525-.915-.525-2.085 0-1.185.525-2.085t1.425-1.41 2.055-.51q1.17 0 2.07.51.915.51 1.425 1.41.525.9.525 2.085 0 1.17-.525 2.085A3.75 3.75 0 0 1 88 39.565q-.915.51-2.07.51m0-.945q.855 0 1.515-.375.66-.39 1.035-1.08.39-.705.39-1.62 0-.93-.39-1.62a2.65 2.65 0 0 0-1.035-1.065q-.66-.39-1.5-.39t-1.5.39q-.66.375-1.05 1.065t-.39 1.62q0 .915.39 1.62.39.69 1.05 1.08.66.375 1.485.375m4.812.855.075-.915q.105.015.195.045.105.015.18.015.48 0 .765-.36.3-.36.45-.96t.21-1.35q.06-.765.105-1.53l.135-2.805h5.775V40h-1.065v-7.26l.27.315h-4.29l.255-.33-.12 2.28q-.045 1.02-.165 1.95a7.8 7.8 0 0 1-.345 1.635q-.225.705-.63 1.11-.405.39-1.035.39-.18 0-.375-.03-.18-.03-.39-.075m16.693.015-3.24-3.9.885-.525L108.695 40zm-5.775 0v-7.875h1.065V40zm.735-3.51v-.915h2.535v.915zm2.775-.315-.99-.15 3.135-3.9h1.155zm8.167 3.9q-1.14 0-2.055-.51a3.9 3.9 0 0 1-1.425-1.425q-.525-.915-.525-2.085 0-1.185.525-2.085t1.425-1.41 2.055-.51q1.17 0 2.07.51.915.51 1.425 1.41.525.9.525 2.085 0 1.17-.525 2.085a3.75 3.75 0 0 1-1.425 1.425q-.915.51-2.07.51m0-.945q.855 0 1.515-.375.66-.39 1.035-1.08.39-.705.39-1.62 0-.93-.39-1.62a2.65 2.65 0 0 0-1.035-1.065q-.66-.39-1.5-.39t-1.5.39q-.66.375-1.05 1.065t-.39 1.62q0 .915.39 1.62.39.69 1.05 1.08.66.375 1.485.375m6.296.87v-7.875h3.48q1.335 0 2.1.51.78.51.78 1.5 0 .96-.735 1.485-.735.51-1.935.51l.21-.315q1.41 0 2.07.525t.66 1.515q0 1.02-.75 1.59-.735.555-2.295.555zm1.035-.84h2.505q1.005 0 1.515-.315.525-.33.525-1.05t-.465-1.05-1.47-.33h-2.61zm0-3.54h2.37q.915 0 1.395-.345.495-.345.495-1.005t-.495-.99q-.48-.33-1.395-.33h-2.37zm11.331 4.455q-1.14 0-2.055-.51a3.9 3.9 0 0 1-1.425-1.425q-.525-.915-.525-2.085 0-1.185.525-2.085t1.425-1.41 2.055-.51q1.17 0 2.07.51.915.51 1.425 1.41.525.9.525 2.085 0 1.17-.525 2.085a3.75 3.75 0 0 1-1.425 1.425q-.915.51-2.07.51m0-.945q.855 0 1.515-.375.66-.39 1.035-1.08.39-.705.39-1.62 0-.93-.39-1.62a2.65 2.65 0 0 0-1.035-1.065q-.66-.39-1.5-.39t-1.5.39q-.66.375-1.05 1.065t-.39 1.62q0 .915.39 1.62.39.69 1.05 1.08.66.375 1.485.375"/><path stroke="#8A7E95" d="M63 23.5h74m-74 19h73" opacity="0.5"/><g clip-path="url(#a)"><path fill="#B1EC52" d="M12.503 0A12.503 12.503 0 0 0 0 12.503V37.5a12.503 12.503 0 0 0 12.503 12.503H37.5A12.5 12.5 0 0 0 50.003 37.5V0z"/><path fill="#4D5759" d="M41.316 18.742h-6.004L29.6 24.996V12.503h-4.632v3.027a8 8 0 0 0-.49-.578c-1.684-1.784-4.112-2.684-7.216-2.684-3.589 0-5.63 1.606-6.71 2.953-1.343 1.673-1.94 3.956-1.526 5.816 1.074 4.816 5.543 5.586 8.825 6.012 2.592.337 5.071.808 5.006 3.117-.071 2.398-2.771 2.988-4.545 2.988-4.62 0-4.776-3.415-4.776-3.415H8.568c.071 1.282.46 3.34 2.039 5.108 1.73 1.935 4.322 2.916 7.706 2.916 2.596 0 4.96-.848 6.656-2.347v2.057h4.633v-5.898l1.64-1.794 4.68 7.692h5.393l-6.811-11.266zm-27.65 1.224c-.41-1.789 1.375-3.371 3.683-3.371 2.078 0 4.162.466 4.955 3.364h2.665v4.424c-3.323-2.731-10.526-1.018-11.303-4.417"/></g><defs><clipPath id="a"><path fill="#fff" d="M0 0h50v50H0z"/></clipPath></defs></svg>