<svg xmlns="http://www.w3.org/2000/svg" viewBox="0 0 502.66 502.66"><style><![CDATA[:root>svg{display:none}:root>svg:target{display:block}]]></style><svg xmlns="http://www.w3.org/2000/svg" id="TG" viewBox="0 0 28 28"><path d="M14.5 26C21.404 26 27 20.404 27 13.5S21.404 1 14.5 1 2 6.596 2 13.5 7.596 26 14.5 26"/><path d="M6.653 14.112c1.461-.805 3.093-1.477 4.617-2.152 2.622-1.106 5.254-2.193 7.913-3.204.517-.173 1.447-.341 1.538.425-.05 1.086-.255 2.164-.396 3.243-.357 2.373-.77 4.737-1.173 7.102-.14.787-1.126 1.195-1.757.691-1.518-1.025-3.047-2.04-4.544-3.088-.491-.499-.036-1.215.402-1.57 1.25-1.232 2.575-2.279 3.76-3.574.319-.772-.625-.121-.936.078-1.711 1.179-3.38 2.43-5.184 3.466-.921.507-1.995.074-2.916-.21-.826-.341-2.036-.686-1.324-1.207"/></svg><svg xmlns="http://www.w3.org/2000/svg" id="WA" viewBox="0 0 28 28"><g fill-rule="evenodd" clip-rule="evenodd"><path d="M8.66 25.241 2.012 27.36 0 28l2.827-8.36a13.24 13.24 0 0 1-1.606-6.327c0-3.552 1.41-6.919 3.927-9.417A13.4 13.4 0 0 1 14.614 0c3.554 0 6.94 1.39 9.462 3.898A13.24 13.24 0 0 1 28 13.317c0 3.55-1.411 6.917-3.926 9.416a13.4 13.4 0 0 1-9.464 3.896 13.3 13.3 0 0 1-5.951-1.387Z"/><path d="M12.61 9.973a73 73 0 0 1-.654-1.56l-.394-.95c-.324-.774-.683-.751-.957-.733l-.059.002q-.143-.001-.288-.012a6 6 0 0 0-.368-.016c-.16 0-.376.033-.605.14-.169.08-.344.199-.504.375l-.06.064c-.38.4-1.21 1.273-1.21 2.949 0 1.758 1.267 3.43 1.453 3.676l.001.003.002.002c.008.009.034.048.074.107.468.684 2.618 3.833 5.886 5.11 2.965 1.16 3.502 1.03 3.981.913a2 2 0 0 1 .248-.047c.388-.037 1.023-.302 1.557-.676.443-.31.83-.701.978-1.114.132-.369.207-.711.242-.993.05-.41.01-.732-.064-.856l-.001-.001c-.113-.187-.31-.28-.603-.418q-.08-.037-.16-.077a82 82 0 0 0-1.502-.73 15 15 0 0 0-.866-.389c-.192-.068-.359-.12-.537-.1-.203.023-.38.127-.544.376-.083.123-.228.31-.387.504-.25.308-.55.654-.678.799q-.08.095-.148.102c-.064.008-.152-.018-.274-.078a5 5 0 0 0-.247-.112 8.6 8.6 0 0 1-3.43-2.574 10 10 0 0 1-.87-1.253c-.094-.163.011-.269.108-.366.107-.108.23-.255.351-.401.056-.067.112-.134.18-.212v-.002c.165-.191.233-.33.325-.52l.05-.1.001-.001a.83.83 0 0 0 .087-.465 1 1 0 0 0-.115-.365Z"/></g></svg><svg xmlns="http://www.w3.org/2000/svg" id="YA" viewBox="0 0 28 28"><path d="M27 14c0 7.18-5.82 13-13 13S1 21.18 1 14 6.82 1 14 1s13 5.82 13 13"/><path d="M27 14.14v-.28c-5.757-.185-8.385-.324-10.493-2.367C14.464 9.385 14.316 6.757 14.14 1h-.278c-.186 5.757-.325 8.385-2.368 10.493C9.385 13.536 6.757 13.684 1 13.86v.278c5.757.186 8.385.325 10.493 2.368 2.043 2.108 2.191 4.736 2.368 10.493h.278c.186-5.757.325-8.385 2.368-10.493 2.108-2.043 4.736-2.191 10.493-2.368Z"/></svg><svg xmlns="http://www.w3.org/2000/svg" id="YT" viewBox="0 0 28 28"><path d="M14 27c7.18 0 13-5.82 13-13S21.18 1 14 1 1 6.82 1 14s5.82 13 13 13"/><path d="M21 11.709c0-.944-.87-1.709-1.943-1.709H9.942C8.87 10 8 10.765 8 11.709v4.582C8 17.235 8.87 18 9.942 18h9.115C20.13 18 21 17.235 21 16.291V11.71Zm-7.8 4.224V11.63l3.712 2.152-3.712 2.152Z"/></svg><svg xmlns="http://www.w3.org/2000/svg" id="arrow_bow" viewBox="0 0 23 14"><path fill-rule="evenodd" d="M.44.94a1.5 1.5 0 0 1 2.12 0l8.94 8.939 8.94-8.94a1.5 1.5 0 0 1 2.12 2.122l-10 10a1.5 1.5 0 0 1-2.12 0l-10-10a1.5 1.5 0 0 1 0-2.122Z" clip-rule="evenodd"/></svg><svg xmlns="http://www.w3.org/2000/svg" id="arrow_down" viewBox="0 0 9 6"><path fill-rule="evenodd" d="M.208.227a.67.67 0 0 1 1.005 0L4.5 3.81 7.787.227a.67.67 0 0 1 1.005 0 .825.825 0 0 1 0 1.095L4.5 6 .208 1.322a.825.825 0 0 1 0-1.095" clip-rule="evenodd"/></svg><svg xmlns="http://www.w3.org/2000/svg" id="arrow_down_left" viewBox="0 0 60 57"><path fill-rule="evenodd" d="M4.699 48.358a113 113 0 0 0 6.834 6.538h-.042c1.226 1.064-.572 2.84-1.781 1.776A113 113 0 0 1 .36 47.39a1.273 1.273 0 0 1 .26-1.977c4.62-2.375 6.742-2.764 10.87-5.913 1.278-.989 2.546 1.198 1.278 2.17-3.153 2.4-4.186 2.198-7.63 4.155 9.58 4.437 20.97 4.649 30.488-.242 4.742-2.43 9.514-7.498 11.182-12.893a16.58 16.58 0 0 1-13.142-1.15c-3.688-2.04-7.701-6.512-6.13-11.06 1.345-3.98 6.18-5.463 9.969-5.147a13.1 13.1 0 0 1 6.497 2.364 13.17 13.17 0 0 1 4.403 5.34 15.4 15.4 0 0 1 1.36 5.42c8.719-5.786 9.306-17.805 5.71-26.956-.59-1.5 1.82-2.14 2.401-.667 4.202 10.67 2.523 24.941-8.227 30.634-.95 6.912-6.464 13.036-12.76 16.272-10.055 5.183-21.968 5.11-32.19.618m42.688-18.58c.29-3.45-.896-6.866-4.359-9.655a10.41 10.41 0 0 0-9.362-1.974c-4.57 1.45-4.412 6.538-1.247 9.487 3.957 3.684 10.127 4.327 14.968 2.142" clip-rule="evenodd"/></svg><svg xmlns="http://www.w3.org/2000/svg" id="auth" viewBox="0 0 24 24"><path d="M12.79 2.063c2.69.426 4.516 2.897 4.08 5.52-.437 2.622-2.971 4.403-5.66 3.978-2.69-.426-4.516-2.897-4.08-5.52.437-2.623 2.97-4.404 5.66-3.978M21 21.15a.84.84 0 0 1-.256.6.9.9 0 0 1-.616.25H3.872a.9.9 0 0 1-.616-.25.84.84 0 0 1-.256-.6 8.67 8.67 0 0 1 2.636-6.207A9.12 9.12 0 0 1 12 12.37c2.387 0 4.676.925 6.364 2.572A8.67 8.67 0 0 1 21 21.149Z"/></svg><svg xmlns="http://www.w3.org/2000/svg" id="close-modal" viewBox="0 0 18 18"><path fill="currentColor" d="M17.7 1.75A1.025 1.025 0 0 0 16.25.3L9 7.55 1.75.3A1.025 1.025 0 1 0 .3 1.75L7.55 9 .3 16.25a1.025 1.025 0 1 0 1.45 1.45L9 10.45l7.25 7.25a1.025 1.025 0 1 0 1.45-1.45L10.45 9z"/></svg><svg xmlns="http://www.w3.org/2000/svg" id="cross" viewBox="0 0 16 16"><path d="M14.4 4 12 1.6l-4 4-4-4L1.6 4l4 4-4 4L4 14.4l4-4 4 4 2.4-2.4-4-4z"/></svg><svg xmlns="http://www.w3.org/2000/svg" id="disks" viewBox="0 0 70 70"><path d="M44.601 5.172A33.22 33.22 0 0 0 23.683 4.8a33.15 33.15 0 0 0-11.863 6.614A33 33 0 0 0 3.626 22.22a32.86 32.86 0 0 0-.703 26.493c1.73 4.224 4.194 6.513 7.482 9.689-2.566-3.48-3.317-3.566-5.024-7.83-1.707-4.262-2.611-9.22-2.458-13.837s1.237-8.82 3.225-13.01 5.375-7.975 8.862-11.034a33.8 33.8 0 0 1 11.957-6.776 33.3 33.3 0 0 1 13.596-1.418c1.363.142 2.712.368 4.038.676ZM23.368 53.82l1.868 1.137 1.972.949 2.11.7 2.161.485 2.244.235 2.257.038.33-.08.235-.19.163-.298.02-.537-.337-1.359-.352-1.36v-.002l-.001-.002-1.518-6.156-.39-.787-.469-.562-.601-.462-.633-.33-.694-.198-.774-.091-.772.064-.91.247-8.748 4.502-.429.356-.13.315.005.292.15.274 1.541 1.503z"/><path d="m18.755 26.415-.277.104-.232.255-1.102 1.957-.905 2.067-.673 2.098-.439 2.172-.161 2.176.056 2.174.301 2.145.524 2.06.169.274.25.15.34.045.523-.192 8.286-5.303.672-.649.439-.646.307-.713.176-.697.033-.699-.107-.763-.253-.683-.489-.73-4.595-4.387v-.001l-1.004-.977-1.018-.978-.474-.244zm8.049-3.291 3.154 2.432h.002l1.91 1.453.802.384.75.163.782.015.755-.109.708-.217.71-.385.622-.477.61-.709 1.212-2.194 2.003-3.647v-.002l.708-1.262.715-1.319.15-.507-.082-.32-.175-.216-.302-.13-2.205-.276-2.267-.054-2.288.164-2.251.387-2.215.664-2.13.849-2.052 1.055-1.914 1.261-.225.263-.104.276.052.318.32.407 1.118.869zm31.492 10.57-.252-2.116-.507-2.086-.745-2.029-.948-1.913-1.194-1.781-1.388-1.65-1.556-1.472-1.723-1.292-.318-.112-.295.018-.316.162-.311.443-1.167 2.692-.732 1.744v.002l-.896 2.053-.973 2.282-.177.88.024.742.187.73.277.63.41.555.546.535.627.382.853.286 2.468.294h.002l2.235.264h.002l1.884.24 2.926.342.537-.047.299-.191.16-.253zM42.89 47.864l.543 3.945.187 1.406.19 1.387.201.49.246.195.296.057.336-.07 2.055-1.022 1.944-1.242 1.803-1.412 1.684-1.579 1.468-1.739 1.28-1.901 1.087-1.98.867-2.033.04-.325-.1-.259-.243-.24-.518-.124-1.494-.034-8.144-.168-.922.17-.726.299-.689.42-.55.495-.47.594-.379.68-.233.73-.067.886z"/><path d="M57.84 40.555h.002l.552.019.481-2.454.218-2.486-.557-.066-1.313-.152-1.396-.155h-.001l-3.562-.433-4.85-.578q-.006 0-.011-.006l-.012-.006-.01.001-.005.001h-.007l-.996-.334-.007-.006q-.002-.005-.006-.006l-.013-.003-.016-.004-.768-.453-.007-.01q-.002-.006-.006-.01l-.012-.004-.014-.006-.647-.623-.003-.007a.01.01 0 0 0-.004-.008q-.003-.004-.008-.005-.005-.002-.009-.006l-.444-.602q-.004-.006-.003-.012.001-.008-.002-.011l-.009-.007q-.006-.002-.009-.008l-.306-.694v-.02l-.005-.007q-.004-.002-.006-.007l-.217-.87q-.002-.006.002-.013l.001-.005v-.006l-.005-.012q-.005-.005-.005-.012l-.01-.889q0-.007.004-.013l.003-.005.002-.005-.001-.005-.003-.006q-.004-.007-.002-.014l.213-1.017.003-.006.004-.005.006-.009v-.01q-.002-.008 0-.012l1.017-2.385v-.002l2.309-5.373v-.001l.563-1.28.52-1.22h.003v-.002l.223-.503-2.271-1.06-2.373-.806-.26.488-.001.001v.002L41.711 20.1l-3.349 6.073-.011.012-.011.01-.004.01q0 .005-.003.009l-.718.83-.019.016-.009.007-.002.004-.003.005-.728.582-.032.022-.01.006-.86.443-.03.014-.757.271h-.015l-.008.002-.008.003-.023.007-.813.097q-.005.001-.009-.002l-.006-.001-.01.003-.011.002-.926-.022-.011-.004q-.005-.004-.011-.004l-.012.002-.007.001h-.007l-.893-.205q-.003 0-.004-.002l-.004-.003-.006-.005-.015-.003a.03.03 0 0 1-.018-.004l-.944-.452-.006-.007q-.003-.005-.007-.007l-.012-.004q-.008-.001-.014-.005l-8.561-6.56-.002-.004-.004-.002-.41-.334-1.876 1.82-1.691 1.967.387.347.002.003.004.002 1.89 1.827 1.085 1.025v.002l4.779 4.576.005.01q0 .006.004.01.003.004.009.005.005.002.009.006l.581.837q.004.006.003.014l.001.011.01.01q.008.004.01.011l.296.814v.014l-.001.01.002.004.003.003q.004.004.005.009l.133.893a.02.02 0 0 1-.002.013q-.003.006-.002.01 0 .005.003.009l.003.004v.005l-.038.778q-.001.01-.005.017l-.004.011v.005l.001.003q.002.004.001.007l-.19.753q0 .006-.006.009l-.004.003-.002.004v.02l-.375.86a.02.02 0 0 1-.01.01l-.008.01-.001.008q0 .006-.003.01l-.523.767-.018.018-.011.009-.002.004-.001.003q0 .005-.005.008l-.8.737a.2.2 0 0 1-.033.026l-.001.003-7.317 4.686-1.225.778-1.133.728-.007.005-.498.296 1.12 2.17 1.323 2.044.513-.277h.004v-.002l1.2-.613 1.29-.667 1.422-.742h.003l6.309-3.227q.006-.002.013 0l.01-.001.007-.006q.004-.006.01-.008l1.041-.321q.009-.002.017 0l.012.002q.007-.002.013-.006a.03.03 0 0 1 .015-.007l.934-.058q.005 0 .01.003l.002.002.007.002.01-.003q.005-.004.011-.003l.93.096q.006.002.01.006l.008.005.01-.002q.005-.002.01-.001l.75.213.004.002.005.006.008.006h.01q.008 0 .014.002l.696.356q.005.003.007.008.002.006.007.008c.005.004.015 0 .02.006l.705.553c.007.005.005.013.01.018.006.006.016.005.021.01l.571.68q.005.008.005.015 0 .008.003.012l.01.008.004.003.006.007.427.901c.003.008-.002.015 0 .023q.002.004.007.008a.01.01 0 0 1 .006.008l1.595 6.417v.001l.35 1.448.644 2.544v.004l.001.004.104.498 2.562-.466 2.516-.715-.083-.516v-.002l-.001-.004-1.425-10.663q0-.008.003-.014l.004-.01-.004-.01-.004-.011.079-1.041q0-.006.005-.01l.003-.006.002-.005q0-.007-.002-.013t0-.013l.263-.883q.002-.007.009-.011.005-.004.008-.01l.001-.012q0-.008.002-.014l.45-.8.004-.004.003-.002.007-.006.002-.006v-.002q0-.005.002-.009l.497-.65q.005-.007.013-.01a.01.01 0 0 0 .01-.005l.006-.012.002-.005.004-.006.608-.527.01-.004q.006 0 .01-.003l.005-.007q.002-.005.007-.007l.814-.52q.008-.004.014-.003.007.002.013-.003l.008-.008a.02.02 0 0 1 .01-.008l.87-.337c.006-.003.012 0 .018 0h.006l.006-.004q.007-.006.015-.009l1.086-.196q.008 0 .014.003l.005.002h.006l.012-.004a.02.02 0 0 1 .012-.005l11.276.238Zm-15.624-5.18q-.014.002-.024.011l-.02.011-.02.002q-.015-.001-.027.004l-.536.295q-.006.004-.01.011l-.006.01c-.008.004-.019.002-.025.008q-.004.003-.005.008 0 .005-.004.009l-.007.003q-.006 0-.01.005l-.388.437c-.005.005-.001.012-.006.018l-.008.005q-.005 0-.008.006c-.005.01-.001.019-.005.026l-.01.01q-.007.004-.01.011l-.202.545c-.005.01.003.018 0 .027l-.006.011q-.005.006-.006.013 0 .006.003.01l.003.009-.003.01-.005.011.036.558q0 .007.006.01.004.004.004.008l-.001.01a.01.01 0 0 0-.002.01q.003.007.008.01l.008.009v.013q-.002.007 0 .012l.264.503c.005.009.017.01.023.018q.004.006.004.013t.004.012c.004.005.01.003.015.008l.004.007q0 .004.004.007l.431.344a.1.1 0 0 0 .039.016l.023.008q.006.002.011.008.007.009.016.01l.11.025.443.117c.006.002.01-.003.016-.002l.015.009a.04.04 0 0 0 .019-.004l.014-.004q.006 0 .012.004.007.004.014.002l.122-.014-.104.237-.502.862-.64.783-.741.695-.848.573-.238.116.003-.11-.003-.007-.004-.007c0-.008.005-.015.004-.023q0-.006-.007-.01-.004-.004-.006-.01v-.014q.002-.008 0-.012l-.22-.518q-.005-.012-.017-.018l-.014-.011-.007-.019a.04.04 0 0 0-.01-.022l-.41-.381-.01-.004q-.006 0-.012-.004l-.005-.008q-.002-.006-.007-.009l-.012-.002q-.008 0-.012-.002l-.008-.007q-.002-.006-.008-.007l-.538-.196h-.01l-.011.001-.01-.006-.007-.005-.015.003-.012.003-.011-.004a.03.03 0 0 0-.015-.005l-.597.029q-.008.001-.012.005l-.01.005-.012-.002q-.006-.003-.012 0a.02.02 0 0 0-.013.007l-.009.007h-.012q-.006-.001-.011.001l-.539.247-.008.007-.006.008-.011.002q-.006 0-.01.002l-.005.004c-.004.005-.004.013-.01.016q-.004.004-.01.005-.008.001-.01.005l-.436.425q-.006.009-.008.019l-.006.015-.013.01a.04.04 0 0 0-.015.014v.005l-.001.003-.004.004-.004.003-.238.53q-.006.013-.002.026.002.009 0 .019l-.009.018q-.008.011-.01.025l-.001.113-.007.459q0 .008.005.014a.02.02 0 0 1 .006.012l-.003.014q-.002.006-.002.013 0 .004.006.007l.005.007v.021l.036.08-.25-.007-.977-.135-.937-.3-.876-.439-.774-.545-.175-.172.117-.04a.3.3 0 0 0 .09-.052l.326-.297.104-.07a.03.03 0 0 0 .01-.014q.003-.007.008-.012l.016-.014c.018-.016.036-.03.047-.053l.26-.514q.002-.005 0-.009v-.006l.005-.005.006-.007q.002-.008 0-.015-.002-.008 0-.015l.006-.01q.005-.004.006-.01l.067-.569-.003-.009-.002-.009c0-.008.007-.016.006-.024s-.01-.012-.01-.018V39.3l.002-.014-.172-.531-.008-.01q-.005-.003-.007-.007c-.003-.006 0-.016-.003-.022q-.002-.004-.009-.007-.005-.002-.009-.006c-.004-.005-.001-.016-.007-.021l-.376-.414-.013-.006-.01-.005q-.004-.003-.005-.008 0-.007-.006-.01c-.006-.005-.015-.001-.023-.005q-.005-.002-.006-.007-.003-.006-.008-.008l-.532-.236a.03.03 0 0 0-.016-.001h-.013l-.011-.008q-.005-.005-.012-.007-.006 0-.01.002l-.009.001-.009-.003-.007-.003-.568-.015q-.012 0-.022.006l-.017.007-.018-.002a.04.04 0 0 0-.022-.001l-.139.042-.003.004-.002.002q-.003-.002-.007 0l-.427.156-.01.008q-.001.005-.007.006l-.012.002-.01.002c-.005.003-.005.009-.01.012s-.012.001-.015.005l-.117.085-.058-.23-.094-.96.06-.961.209-.961.365-.917.12-.218.062.086q.005.007.013.009.007 0 .01.005.004.005.005.011.002.008.006.012a.03.03 0 0 0 .015.005l.01.004.006.007q.002.005.006.007l.393.212v.001l.1.055q.024.01.049.013l.017.002.01.006q.005.005.012.005l.58.06.007-.002.008-.002c.003 0 .005.004.01.004q.013 0 .024-.006l.013-.005.01.002q.007.003.013.002l.594-.152a.3.3 0 0 0 .048-.019h.002l.014-.007.024-.016.478-.35.003-.007.01-.007.02-.016.003-.008.004-.008q.005-.007.011-.011l.013-.013.318-.51q.003-.005.002-.012c-.001-.007 0-.007.002-.01l.008-.01.01-.01-.001-.012v-.011q0-.004.005-.007.004-.003.005-.009l.1-.561-.002-.008-.003-.009q0-.006.004-.012l.003-.015q0-.005-.004-.009l-.004-.007.002-.012.002-.011-.122-.537q-.004-.013-.015-.02l-.012-.015q-.004-.01-.003-.019.001-.012-.007-.023l-.344-.456a.04.04 0 0 0-.017-.01q-.007-.002-.012-.006a.02.02 0 0 1-.007-.013.03.03 0 0 0-.01-.015l-.005-.001q-.004 0-.007-.002-.003-.001-.004-.005l-.004-.004-.084-.047.215-.133.923-.459.97-.3.998-.162.997-.002.262.033-.07.09q-.005.004-.005.012l-.003.01-.008.007-.01.01a.02.02 0 0 0-.002.013q.001.006-.001.012-.002.005-.007.009t-.007.01l-.12.441-.033.108q-.003.014.002.027l.003.02q0 .014-.006.023a.05.05 0 0 0-.006.028l.09.554q0 .006.006.01l.005.009v.012a.01.01 0 0 0 0 .011q.001.004.007.007l.006.006.002.011.001.01.3.472q.004.005.01.006l.007.005.005.017q.007.007.014.007l.01.005.007.01q.002.006.006.01l.473.32q.008.004.015.005l.012.003c.005.003.005.009.011.011q.005.002.011 0t.011 0l.01.002.01.007a.02.02 0 0 0 .013.007l.57.089c.008.001.015-.005.023-.004l.01.003a.01.01 0 0 0 .01.004l.014-.004.01-.003c.005 0 .008.004.013.003l.58-.106.01-.002q.007-.004.016-.006h.01l.045-.02.004-.003.524-.315.003-.003a.3.3 0 0 0 .07-.063l.351-.479c.004-.006 0-.013.005-.02l.01-.008.01-.012v-.023l.008-.01q.004-.002.005-.008l.026-.098.196.152.653.674.557.777.398.869.258.896.03.24-.099-.027h-.014a.02.02 0 0 1-.013.002l-.01-.005-.014-.006c-.008 0-.014.007-.021.007l-.01-.003q-.005-.004-.011-.003l-.597.067Z"/><path d="m39.137 34.447-.01-.006-.01-.005-.004-.01q-.001-.006-.005-.01l-.437-.38-.01-.003a.02.02 0 0 1-.013-.004c-.006-.004-.006-.015-.013-.018l-.5-.277-.002-.004-.025-.008-.02-.005-.016-.013q-.01-.01-.023-.014l-.585-.143-.012.001-.01.002c-.007-.001-.01-.009-.017-.009l-.616-.049-.014.004-.01.004-.011-.004q-.006-.004-.014-.003l-.62.08a.03.03 0 0 0-.014.007l-.01.006h-.012l-.013-.001-.603.206-.01.009-.008.008c-.008.003-.017-.001-.024.003l-.553.318q-.007.004-.01.01l-.006.01-.011.003a.02.02 0 0 0-.013.004l-.47.41q-.007.007-.007.014l-.005.01-.01.005q-.008.003-.012.008l-.38.495-.004.013q0 .006-.003.012l-.009.007-.01.01-.265.556q-.002.004 0 .01l-.001.009c-.003.006-.012.01-.014.017l-.168.576q-.002.01.001.017t.002.014-.006.013a.03.03 0 0 0-.006.016l-.004.607q0 .006.005.01.003.005.003.01a.01.01 0 0 1-.002.011q-.003.006-.002.01l.111.567q0 .005.006.008.005.004.006.008v.009q-.004.006 0 .012l.224.552q.003.008.011.012l.01.008.003.014q-.001.008.004.015l.368.47q.004.004.01.005.005.001.009.005.003.003.004.009a.01.01 0 0 0 .004.008l.436.38.014.005q.006 0 .011.003l.005.008q.002.005.006.007l.524.292q.011.005.022.006.008 0 .015.002c.007.003.009.011.016.013l.59.15q.007.002.013 0a.01.01 0 0 1 .01-.002q.006.001.01.005.005.005.01.004l.611.04c.01.001.017-.005.024-.006.008 0 .011.006.019.005l.625-.07.022-.007.016-.006h.008q.004.002.007 0l.593-.2.045-.02.553-.319a.2.2 0 0 0 .04-.027l.48-.417c.005-.003.003-.009.007-.013.01-.009.022-.015.03-.027l.374-.504.003-.01.002-.008q.003-.005.008-.008l.009-.01.27-.547q.004-.006.002-.012l.001-.01.007-.009q.005-.004.007-.01l.164-.584a.04.04 0 0 0-.003-.025l-.003-.02q0-.01.004-.02a.1.1 0 0 0 .002-.055l-.006-.018.024-.509q0-.006-.004-.01l-.003-.01q.001-.012.005-.023v-.007l-.112-.566q0-.006-.006-.01l-.006-.008c-.002-.007.003-.016 0-.023l-.234-.545q-.006-.01-.014-.013l-.005-.005q-.003-.005-.002-.012.002-.009-.004-.013z"/><path fill-rule="evenodd" d="m53.792 9.062-.007-.008L50.93 7.7h-.006l-.004-.005-.084-.035q-.005-.002-.01 0h-.01l-.007-.005-.003-.003-.005-.003-.109-.025-2.99-1.028h-.014l-.002-.001-.002-.002-.002-.002-.003-.002-3.086-.703-.154-.043-.012.002q-.006.002-.01 0-.006 0-.01-.004-.005-.005-.01-.005l-.147-.01-3.17-.383q-.003 0-.005.002l-.007.001-.005-.003-.005-.002-3.2-.062h-.004v.001h-.008l-.15.002q-.003 0-.004.002l-.004.001-.006-.001-.003-.001-.169.016-3.223.249-.007.002-.005.003-.006-.001-.007-.001-3.351.606-.006.004-.006.003h-.006q-.003-.002-.006-.001l-3.288.939q-.002 0-.005.003l-.006.005h-.013l-3.142 1.263-.02.004q-.009.004-.015.01l-.012.01q-.009.003-.017.002-.01-.001-.02.004l-.033.02-3.022 1.536q-.004.002-.006.005 0 .003-.003.004l-.006.002q-.004 0-.007.002l-2.838 1.832-.034.02q-.009.005-.011.014a.03.03 0 0 1-.01.012l-.016.008a.03.03 0 0 0-.017.008l-.013.015-2.67 2.078-.003.005q0 .003-.004.006l-.006.003q-.004 0-.007.002l-2.468 2.37-.002.004v.003l-.003.006-.005.002q-.004 0-.006.004l-2.195 2.582v.002l-.002.004-.002.006-.003.002-.002.001q-.003.001-.005.005l-1.838 2.66-.098.138-.001.006-.002.007-.005.004-.006.004-.069.123v.002l-1.547 2.792-.001.006v.005l-.004.004-.005.005-1.252 2.925-.064.131-.001.012v.01l-.007.01q-.006.003-.007.01l-.04.153-.931 3.013v.013q0 .002-.003.005l-.003.004-.6 3.094-.034.107q-.001.006.001.01l.002.008-.006.009-.005.008-.012.09.003.006-.003.004-.269 3.15q0 .003.002.005l.002.006-.002.005-.002.006.067 3.22q0 .005.003.006l.002.005q0 .004-.002.007l-.001.004.424 3.193v.002h.001q0 .002.002.003l.003.005v.006q-.002.003-.001.006l.774 3.11.004.004.001.002h.001l.001.002v.013l1.123 2.98q0 .004.003.005.003 0 .004.003v.012l1.36 2.702.06.142.01.009q.005.002.009.008l.002.011q-.001.008.004.013l.092.123 1.665 2.515.005.004.006.003v.004q0 .003.002.005l2.036 2.468.003.002.003.001.002.001q.003 0 .003.002l.001.002.001.004.002.005 2.314 2.215.002.001.002.001.003.001q.003 0 .003.002l.003.004q0 .003.002.005l2.565 1.962.006.002.006.002.003.005.003.004 2.772 1.676.004.001.003.001.006.002.004.003.003.004 2.869 1.335.087.042q.01.003.023.004l.002.001.001.002.001.001.006.005.124.036 2.989 1.02c.004.002.008-.003.012-.001l.004.002.002.002.004.003 3.086.703.154.043q.008.002.015-.001.008-.003.014-.002l.007.002q.003 0 .005.003.008.005.015.005l.13.002 3.168.383q.004 0 .007-.002h.01l.005.003 3.192.062.138.019h.012l.013-.004.018-.005.015.004q.008.002.017.002l.148-.03 3.218-.253q.004 0 .007-.002h.002l.006-.002q.004-.001.008.001l3.343-.6.017-.008h.002l.005.002 3.296-.944h.003l.002-.001.006-.003.003-.002.003-.002h.006l3.148-1.255.018-.004a.2.2 0 0 0 .06-.023l.002-.003h.003l.035-.02 3.007-1.54.005-.002.006-.003.005-.003.005-.003 2.852-1.83.035-.02a.3.3 0 0 0 .054-.042l.014-.014 2.664-2.088.003-.004.015-.011 2.46-2.366s0-.004.003-.006l.003-.003.004-.002.007-.007 2.203-2.587.001-.002v-.004l.002-.003c.003-.004.01-.005.011-.01l1.821-2.646.1-.111.005-.014.002-.007q0-.002.003-.005l.012-.012.003-.003.007-.008.002-.002.002-.004.062-.134 1.545-2.79v-.003l.001-.003v-.005l.001-.002h.001l.003-.003.002-.002.002-.003 1.252-2.924.062-.112c.006-.01 0-.02.005-.03.004-.009.015-.013.017-.023l.04-.154.932-3.012-.001-.007v-.006q0-.003.003-.005l.001-.001.001-.001v-.001l.001-.002.608-3.088.03-.124v-.008l-.002-.005v-.004l.003-.004.005-.015.006-.096.255-3.132-.003-.008.002-.005v-.004l.001-.003-.06-3.236q0-.003-.003-.005l-.002-.004v-.005l.002-.008-.415-3.197c0-.004-.006-.006-.006-.01v-.012l-.769-3.102-.001-.003-.002-.001-.002-.002-.002-.003c-.002-.004.002-.01 0-.013l-1.128-2.99-.004-.003-.003-.003v-.014l-1.355-2.692-.074-.148c-.002-.005-.007-.005-.01-.01v-.002l-.001-.007-.001-.003-.092-.138-1.67-2.522q0-.003-.005-.003l-.004-.003-.001-.005-.002-.006-2.03-2.459-.002-.001-.004-.001-.004-.002-.002-.002q-.003-.002-.002-.005l-.003-.006-2.317-2.222-.001-.001h-.002l-.002-.001h-.002l-.002-.001-.001-.002q-.003-.001-.003-.005l-.004-.006-2.572-1.956-.004-.002h-.002q-.004 0-.006-.002l-.003-.003v-.002l-.004-.005L53.8 9.063h-.007Zm3.502 15.669 1.018 2.043v.012q0 .002.004.003t.003.004l.795 2.148v.011q0 .003.003.004l.003.004.567 2.218v.008l-.001.007q0 .004.003.006l.002.004.28 2.301v.007l-.002.006.002.004.002.003.054 2.312v.004l-.002.003-.002.006.003.008-.19 2.334c0 .004-.005.009-.006.014l.003.01-.466 2.301c0 .004-.005.005-.006.008v.006l.001.003v.003l-.698 2.28c-.001.005-.007.006-.008.01v.012l-.925 2.196c-.002.005-.007.006-.01.012v.011l-1.175 2.102-.005.005-.006.006q0 .005-.002.008l-1.392 1.99-.003.003-.003.003-.005.004v.003l-.002.004-1.572 1.856-.015.012-.001.005-.002.003-1.775 1.685-.01.009-.004.002-.003.004-1.94 1.533-.006.004-.012.008-2.06 1.327-.01.006-.011.006-2.193 1.118-.006.003-.014.007-2.303.907h-.005l-.003.002-.013.005-2.354.688q-.003.001-.008-.001-.008.005-.017.006l-2.4.428h-.005l-.003-.001-.006.002-.008.002-2.426.206h-.003l-.002-.002h-.004l-.007.002-.008.001-2.415-.038-.005-.002-.005-.002c-.006-.001-.01.003-.015.002l-2.372-.3q-.004 0-.006-.003l-.004-.003-.008.002h-.005l-2.34-.533-.005-.003-.005-.003c-.004-.002-.007.002-.012 0l-2.234-.749q-.003 0-.003-.003l-.004-.004h-.007l-.009-.002-2.124-1.003-.003-.003v-.002h-.002l-.007-.003-.007-.001-1.983-1.203-.003-.004v-.002l-.002-.002-.007-.002-.005-.002-1.853-1.396-.002-.003v-.002l-.003-.005-.007-.003-.008-.004-1.645-1.598-.002-.005-.001-.004-.004-.003h-.002l-.004-.003-1.47-1.759q-.002 0-.002-.002v-.002q0-.003-.002-.005c-.002-.004-.008-.003-.01-.007l-1.268-1.9-.001-.006-.001-.006-.005-.004-.005-.005-1.023-2.051c-.002-.004.002-.008 0-.013l-.006-.005q-.002 0-.002-.002l-.79-2.14q.002-.005.001-.01-.001-.004-.004-.006l-.003-.003-.566-2.218q-.002-.004 0-.007.003-.004.001-.006l-.003-.006-.004-.006-.293-2.304.002-.006.001-.007-.002-.005-.002-.004-.054-2.311q0-.003.002-.005l.001-.006-.001-.006-.001-.001-.001-.004.195-2.324.003-.006.004-.007q0-.003-.002-.005v-.007l.465-2.301q0-.003.003-.005l.004-.005v-.003l-.001-.003-.001-.006.707-2.285.004-.004.004-.005v-.011l.925-2.197q.001-.004.005-.006l.005-.004v-.006l.001-.008 1.18-2.092.005-.003.005-.005.001-.005.001-.005 1.387-2 .006-.003.003-.002h.001q0-.003.002-.003l.002-.009 1.572-1.855.006-.003.004-.002.003-.002.002-.006.001-.004.002-.003 1.775-1.685q.002-.003.006-.003l.003-.001.001-.002q.003-.001.004-.005 0-.002.003-.005l1.94-1.532.005-.001q.003 0 .006-.003l.004-.004q0-.002.003-.005l2.065-1.34.007-.003.006-.001.005-.005.005-.005 2.189-1.104.01-.002.005-.004.005-.004 2.303-.907h.011q.003 0 .004-.003l.006-.004 2.354-.688h.007l.006.002.007-.004.002-.002.004-.001 2.399-.428h.006l.005.002.006-.003.005-.003 2.432-.196.005.001.006.002.005-.002.006-.002 2.41.028.004.001.002.002.006.003h.003l.003-.002.004-.002h.004l2.373.3q.003 0 .005.003l.004.003h.007l.007-.002 2.331.539q.003 0 .005.003l.004.003h.011l2.234.749q.002 0 .005.003 0 .003.005.005h.013l2.12.994.007.009h.009l.002.002 1.984 1.202.003.005v.002l.002.002.007.002h.004l1.866 1.4.003.006q0 .003.004.006l.003.002.003.001.007.003 1.645 1.597.002.005.002.006.005.003q.003 0 .005.002l1.466 1.75c.002.004 0 .008.003.01q.002.003.005.004.003 0 .005.003l1.272 1.908.002.005v.008q.002.006.005.008zM25.236 54.957l-1.868-1.137-1.702-1.317L20.125 51l-.15-.274-.006-.292.131-.315.429-.356 8.747-4.502.91-.247.773-.064.774.09.694.199.633.33.601.462.468.562.39.787 1.519 6.156v.003l.353 1.361.337 1.36-.02.536-.163.297-.234.19-.331.08-2.257-.037-2.244-.235-2.162-.484-2.11-.701zM18.478 26.52l.277-.104.347.015.474.244 1.018.978 1.003.977 4.596 4.388.488.73.254.683.107.763-.033.7-.176.696-.307.713-.44.646-.67.649-8.287 5.303-.523.192-.34-.044-.25-.151-.169-.274-.524-2.06-.302-2.145-.055-2.174.161-2.176.44-2.172.672-2.098.905-2.067 1.102-1.957zm11.48-.963-3.154-2.432-1.127-.864-1.119-.869-.319-.407-.052-.318.104-.276.225-.263 1.914-1.261 2.053-1.055 2.129-.85 2.215-.663 2.25-.387 2.29-.164 2.266.054 2.205.277.302.128.175.216.082.321-.15.507-.715 1.319-.707 1.262v.002L38.82 23.48l-1.212 2.194-.61.709-.622.477-.71.385-.708.217-.755.11-.781-.015-.75-.164-.804-.384-1.91-1.453Zm28.087 6.022.251 2.116-.06.334-.161.253-.299.19-.537.048-2.926-.342-1.884-.24h-.002l-2.235-.264h-.002l-2.468-.294-.853-.286-.627-.382-.546-.535-.41-.555-.277-.63-.187-.73-.024-.742.177-.88.973-2.282.895-2.052v-.001l.001-.002.732-1.744 1.167-2.692.31-.443.317-.162.295-.018.318.112 1.723 1.292 1.556 1.473 1.388 1.649 1.194 1.781.947 1.913.746 2.03zm-14.613 20.23-.543-3.945v-.001l-.308-2.373.067-.886.233-.73.379-.68.47-.594.55-.495.69-.42.725-.298.922-.17 8.144.167 1.494.034.518.125.243.24.1.258-.04.325-.867 2.033-1.087 1.98-1.28 1.901-1.468 1.739-1.684 1.579-1.803 1.412-1.944 1.242-2.055 1.022-.336.07-.296-.057-.246-.196-.2-.49-.19-1.386zm14.409-11.255h-.002l-11.277-.237a.02.02 0 0 0-.012.005l-.012.005-.006-.001-.005-.002-.014-.003-1.086.196c-.006 0-.01.006-.015.01l-.006.003H45.4c-.006 0-.012-.003-.018 0l-.87.337a.02.02 0 0 0-.01.009l-.008.008q-.007.003-.013.002-.008 0-.014.003l-.815.52q-.004.002-.006.007l-.006.007q-.003.004-.009.003a.01.01 0 0 0-.01.004l-.608.527-.004.006-.002.005-.005.012q-.005.004-.011.006-.008.002-.013.008l-.497.651q-.003.005-.002.009v.002l-.002.006-.007.006-.003.002-.004.004-.45.8q-.003.008-.002.014l-.001.012q-.003.006-.008.01l-.01.011-.263.883a.02.02 0 0 0 .002.013l.001.013q0 .003-.002.005l-.003.005q-.005.005-.005.011l-.079 1.04q0 .006.004.011l.004.01-.004.011q-.004.006-.003.014L43.07 56.2l.002.004-.001.002.083.516-2.516.715-2.562.467-.104-.499-.002-.004v-.004l-.643-2.544-.35-1.448-1.595-6.418q0-.005-.006-.008-.005-.004-.006-.008c-.003-.008.002-.015-.001-.023l-.427-.901-.006-.007-.004-.002-.01-.01-.003-.01q0-.009-.005-.015l-.57-.68c-.006-.007-.016-.005-.022-.01-.005-.006-.004-.014-.01-.02l-.704-.552c-.006-.005-.016-.002-.021-.006q-.005-.003-.007-.008-.002-.006-.007-.008l-.696-.356q-.008-.003-.014-.002h-.01l-.008-.006-.005-.006-.004-.002-.75-.213q-.005-.001-.01.001l-.01.002-.008-.005-.01-.006-.93-.096-.012.003-.009.003-.007-.002-.003-.002-.01-.003-.933.058a.03.03 0 0 0-.015.007q-.006.004-.013.006l-.012-.002q-.009-.002-.017 0l-1.04.321a.01.01 0 0 0-.01.008l-.008.006h-.01q-.007 0-.013.002l-6.309 3.225h-.003l-1.422.743-1.29.667-1.2.613v.002h-.004l-.512.277-1.323-2.045-1.12-2.17.497-.295.008-.005 1.132-.728 1.225-.778 7.317-4.686.001-.003q.018-.01.034-.026l.8-.737.004-.008v-.003l.003-.004.01-.01.02-.017.522-.767q.004-.004.003-.01 0-.005.002-.009.002-.005.008-.008.005-.004.009-.01l.374-.86a.01.01 0 0 0 .001-.011v-.01l.002-.004.004-.003.007-.009.19-.753q0-.004-.002-.007v-.008q0-.005.003-.011.004-.008.005-.017l.039-.778-.001-.005-.003-.004-.003-.008.002-.011a.02.02 0 0 0 .002-.013l-.133-.893q-.001-.005-.005-.009l-.003-.003-.002-.004v-.01l.001-.014-.295-.814q-.004-.007-.01-.011l-.01-.01-.002-.011q0-.008-.003-.014l-.581-.837q-.003-.004-.01-.005-.005-.002-.008-.006l-.005-.01-.004-.01-4.778-4.576-.001-.002-1.085-1.025-1.89-1.827-.004-.002-.002-.003-.387-.347 1.691-1.968 1.876-1.82.41.335.004.002.002.004 8.561 6.56q.007.004.014.005l.012.004.007.007.006.007.944.452q.008.003.018.004l.015.003q.003 0 .006.005l.004.003.004.002.893.205h.008l.006-.002.012-.001q.007 0 .01.004l.012.004.926.022.01-.002.011-.003.006.002.008.001.814-.097.023-.007q.004 0 .008-.003l.008-.003h.007q.004.002.008.001l.756-.271.03-.013.002-.001.86-.443.009-.006.032-.022.728-.582q.002-.001.003-.005l.002-.004.01-.007.018-.015.718-.831.003-.01.004-.008q.005-.007.01-.011l.012-.012 3.349-6.072 2.083-3.769v-.002h.002l.26-.49 2.372.807 2.27 1.06-.223.503v.002h-.001l-.52 1.22-.564 1.28-2.31 5.374v.002l-1.016 2.384q-.002.006 0 .012v.011l-.006.009-.004.005-.003.006-.213 1.017q-.002.008.002.014l.003.006v.01l-.004.005q-.004.006-.005.013l.01.89q0 .006.006.011l.005.012v.006q0 .003-.002.005-.003.008-.001.014l.218.87q.001.003.005.006l.005.006v.021l.306.694q.003.005.01.008l.008.007.002.01q0 .008.003.013l.444.602q.004.004.009.005.005.002.008.006.004.003.004.008 0 .004.003.007l.647.623q.007.005.014.006l.012.005q.004.003.006.008l.007.01.768.454.016.004.013.003q.004.001.006.006l.007.006.996.334h.012q.005-.003.01-.002.007 0 .012.006.005.005.012.006l4.849.578 3.562.433h.001l1.396.155 1.313.152.557.066-.218 2.486-.48 2.454-.553-.02Zm-15.65-5.168q.01-.008.024-.012l.597-.067.011.003.01.003c.007 0 .013-.008.021-.008q.008.001.014.007l.01.005q.007.001.013-.001l.014-.001.1.027-.032-.24-.257-.896-.398-.869-.557-.777-.653-.674-.197-.152-.025.098q-.001.005-.005.009l-.008.009v.023l-.01.012-.01.008c-.004.007-.001.014-.005.02l-.35.479a.3.3 0 0 1-.071.063l-.003.003-.524.315-.004.002-.045.021h-.01q-.009.002-.017.006l-.009.002-.58.106c-.005.001-.008-.003-.014-.003l-.009.003-.015.004q-.006 0-.01-.004l-.01-.003c-.007-.001-.014.005-.023.004l-.57-.09q-.007 0-.013-.006l-.01-.007-.009-.003h-.01q-.007.003-.012.002c-.006-.003-.006-.009-.011-.012l-.012-.003a.03.03 0 0 1-.015-.005l-.473-.32q-.005-.004-.006-.01-.002-.006-.006-.01l-.011-.005q-.008 0-.014-.007l-.005-.017-.008-.005q-.005-.002-.008-.006l-.3-.471q-.003-.005-.002-.01l-.002-.012-.006-.006-.008-.007v-.023q0-.005-.004-.009l-.007-.01-.089-.554a.05.05 0 0 1 .006-.028q.005-.01.006-.022l-.003-.02q-.005-.014-.002-.028l.033-.108.12-.44q.002-.007.007-.011t.007-.009l.001-.012.002-.013q.004-.006.01-.01l.008-.007.003-.01q-.001-.008.004-.012l.07-.09-.26-.033-.998.002-.998.161-.97.301-.923.459-.215.133.084.047q.003.001.004.005l.004.004.007.002.005.001a.03.03 0 0 1 .01.015.02.02 0 0 0 .007.013q.005.004.012.006a.04.04 0 0 1 .017.01l.345.456q.006.01.006.023 0 .01.003.019c.003.009.008.01.012.015q.011.007.015.02l.122.537-.002.01-.002.013q0 .004.004.007.004.004.004.01l-.003.014-.004.012q0 .005.003.009l.002.008-.1.561q-.001.006-.005.009l-.006.007v.01q.004.007.001.013l-.009.01-.008.01q-.003.004-.002.01a.02.02 0 0 1-.002.013l-.318.509-.013.013-.01.01q-.004.005-.005.009 0 .004-.004.008l-.02.016-.009.007q0 .004-.003.006l-.478.351-.024.016-.014.007h-.002q-.003 0-.004.002l-.044.017-.594.152-.012-.002-.01-.002-.014.005-.024.006c-.005 0-.007-.004-.01-.004s-.005 0-.008.002l-.007.002-.58-.06a.01.01 0 0 1-.011-.005l-.01-.006-.018-.002q-.025-.003-.049-.013l-.1-.055v-.001l-.393-.212q-.005-.002-.006-.007l-.006-.007-.01-.004a.03.03 0 0 1-.015-.005q-.004-.005-.006-.012l-.005-.011q-.003-.004-.01-.005-.008-.002-.013-.01l-.062-.085-.12.218-.365.917-.209.96-.06.961.095.962.057.23.117-.086c.003-.004.01-.001.015-.005.005-.003.005-.009.01-.012q.005-.003.01-.002l.012-.002q.005 0 .008-.006.004-.007.009-.008l.427-.157h.01l.003-.005.14-.042a.04.04 0 0 1 .021 0 .04.04 0 0 0 .018.003l.017-.007q.01-.006.023-.006l.567.015.007.003.01.003.008-.001a.01.01 0 0 1 .01-.002q.007.001.012.007l.011.007q.007.002.013 0l.016.002.532.236q.005.002.008.008.001.005.007.007c.007.004.016 0 .022.005q.005.004.006.01.001.005.005.008l.01.005q.008.001.013.006l.376.414c.006.005.003.016.007.021q.004.005.01.006.005.003.008.007c.004.006 0 .016.003.022q.001.005.007.008c.006.003.006.005.008.009l.171.531q.002.008 0 .014l-.002.013c.002.006.01.01.01.018.002.008-.005.016-.005.024l.002.01.003.008-.067.568q0 .008-.006.012l-.007.01.001.014q.002.008 0 .015l-.006.007-.004.005v.014l-.26.515a.2.2 0 0 1-.048.053l-.016.014q-.005.005-.008.012a.03.03 0 0 1-.01.013l-.104.072-.326.296a.3.3 0 0 1-.09.052l-.117.04.175.172.774.545.876.44.937.299.977.135.25.007-.036-.08v-.021q-.001-.004-.005-.007-.005-.002-.006-.008-.001-.008.002-.012l.003-.014q0-.008-.006-.012l-.005-.014.007-.46.002-.112q.001-.014.01-.025l.008-.018q.002-.01 0-.02-.004-.012.002-.025l.238-.53.004-.003.004-.004v-.008a.04.04 0 0 1 .017-.014l.012-.01.006-.015q.002-.01.008-.018l.435-.426q.005-.004.011-.005.007-.001.01-.005c.006-.003.006-.01.01-.016l.005-.004q.004-.003.01-.002c.006.001.007 0 .011-.002l.006-.008.008-.007.539-.247a.01.01 0 0 1 .01-.001h.013l.01-.007q.004-.006.012-.008.006-.002.012.001l.012.002.01-.005q.005-.004.012-.005l.597-.029q.008 0 .015.005l.01.004.013-.003.015-.003q.004.001.008.005l.009.006h.01q.005-.002.011 0l.538.195q.005 0 .008.007l.008.007.012.002.012.002c.006.002.005.005.007.009l.005.008q.006.004.012.004t.01.004l.41.38.01.023.007.019.014.011q.011.007.018.018l.22.518v.012a.02.02 0 0 0 0 .014q.001.006.005.01.006.004.007.01c0 .008-.004.015-.004.023q0 .004.004.007l.003.008-.003.109.238-.116.848-.573.74-.695.641-.782.502-.863.104-.237-.122.014q-.008.002-.014-.002l-.012-.004-.014.004a.04.04 0 0 1-.02.004l-.014-.009c-.005-.001-.01.004-.016.002l-.442-.117-.11-.025q-.01-.001-.017-.01-.005-.005-.011-.008l-.023-.008a.1.1 0 0 1-.039-.016l-.431-.344q-.004-.004-.004-.007l-.004-.007c-.005-.005-.011-.003-.015-.008q-.004-.005-.004-.012a.02.02 0 0 0-.004-.014c-.006-.006-.018-.008-.023-.017l-.264-.503q-.002-.005 0-.012v-.013l-.008-.008q-.005-.004-.008-.01 0-.007.002-.011l.001-.01q0-.004-.005-.008-.004-.003-.005-.01l-.035-.558q0-.006.004-.012l.003-.009-.003-.009-.003-.01q0-.007.006-.013l.007-.01c.002-.01-.006-.019-.001-.028l.202-.545a.02.02 0 0 1 .01-.01l.01-.011c.004-.007 0-.017.005-.026q.003-.005.008-.007.005 0 .008-.004c.005-.006.002-.013.006-.018l.388-.438.01-.004.007-.003.004-.009q.001-.005.005-.008c.006-.006.017-.004.025-.008l.006-.01q.004-.007.01-.01l.536-.296q.013-.006.027-.004l.02-.002zm-3.066-.945-.009-.005-.004-.01q-.001-.006-.005-.01l-.437-.38-.01-.003a.02.02 0 0 1-.013-.004c-.006-.004-.006-.015-.013-.018l-.5-.277-.002-.004-.025-.008-.02-.005-.016-.013q-.01-.01-.023-.014l-.585-.143-.012.001-.01.002c-.007-.001-.01-.009-.017-.009l-.616-.049-.014.004-.01.004-.011-.004q-.006-.004-.014-.003l-.62.08a.03.03 0 0 0-.014.007l-.01.006h-.012l-.013-.001-.603.206-.01.009-.008.008c-.008.003-.017-.001-.024.003l-.553.318q-.007.004-.01.01l-.006.01-.011.003a.02.02 0 0 0-.013.004l-.47.41q-.007.007-.007.014l-.005.01-.01.005q-.008.002-.012.008l-.38.495-.004.013q0 .006-.003.012l-.009.007-.01.01-.265.556q-.002.004 0 .01l-.001.009c-.003.006-.012.01-.014.017l-.168.576q-.002.01.001.017t.002.014-.006.013a.03.03 0 0 0-.006.016l-.004.607q0 .007.005.01.003.005.003.01a.01.01 0 0 1-.002.011q-.003.006-.002.01l.111.567q0 .005.006.008.005.004.006.008v.009q-.004.006 0 .012l.224.552q.003.008.011.012l.01.008.003.014q-.001.008.004.015l.368.47q.004.004.01.005.005.001.009.005.003.003.004.009a.01.01 0 0 0 .004.008l.436.38.014.005q.006 0 .011.003l.005.008q.002.005.006.007l.524.292q.011.005.022.006.008 0 .015.002c.007.003.009.011.016.013l.59.15q.007.002.013 0a.01.01 0 0 1 .01-.002q.006.001.01.005.005.005.01.004l.611.04c.01.001.017-.005.024-.006.008 0 .011.006.019.005l.625-.07.022-.007.016-.006h.008q.004.002.007 0l.593-.2.045-.02.553-.319a.2.2 0 0 0 .04-.027l.48-.417c.005-.003.003-.009.007-.013.01-.009.022-.015.03-.027l.374-.504.003-.01.002-.008q.003-.005.008-.008l.009-.01.27-.547q.004-.006.002-.012l.001-.01.007-.009q.005-.004.007-.01l.164-.584a.04.04 0 0 0-.003-.025l-.003-.02q0-.01.004-.02a.1.1 0 0 0 .002-.055l-.006-.018.024-.509q0-.006-.004-.01l-.003-.01q.001-.012.005-.023v-.007l-.112-.566q0-.006-.006-.01l-.006-.008c-.002-.007.003-.016 0-.023l-.234-.545q-.006-.01-.014-.013l-.005-.005q-.003-.005-.002-.012.002-.009-.004-.013l-.361-.473z" clip-rule="evenodd"/></svg><svg xmlns="http://www.w3.org/2000/svg" id="house" viewBox="0 0 70 70"><path d="m39.319 23.184 5.546 7.762-.57-8.186-5.185-2.573zm6.785 8.718-.643-9.228 4.893-3.39.644 9.227-4.894 3.39ZM39.621 19.11l5.185 2.574 4.894-3.39-5.185-2.574z"/><path fill-rule="evenodd" d="M21.27 17.808 45.313 1.154l23.762 33.262-24.041 16.653zm24.65 15.666 6.012-4.166a.6.6 0 0 0 .256-.538l-.74-10.605a.6.6 0 0 0-.327-.494l-6.4-3.177a.57.57 0 0 0-.582.043l-6.012 4.165a.6.6 0 0 0-.256.538l.293 4.2a.6.6 0 0 0 .11.31l6.846 9.583a.4.4 0 0 0 .102.092l.01.008.02.014q.022.016.039.033a.2.2 0 0 0 .046.038h.003l.003.001a.58.58 0 0 0 .45.022.4.4 0 0 0 .072-.04l.034-.02.006-.001.008-.002.008-.004Z" clip-rule="evenodd"/><path d="M36.444 6.06 24.8 12.382 8.855 23.43 20.5 17.108zm3.671 61.647-12.005-5.96-.295-4.246 12.036 6.42zm-.346-4.964-12.036-6.42-.178-2.546 12.008 6.004zm1.221.792.285 4.083 23.892-16.55-.264-3.793-7.558 5.139a.6.6 0 0 1-.194.226l-7.638 5.291a.56.56 0 0 1-.422.096l-8.1 5.508Zm7.59-6.37-7.67 5.215-.186-2.662 7.677-5.117zm8.764-5.959 7.479-5.086-.12-1.72-7.486 4.99zm-1.327-2.218-.018.011.021.032.196 2.813-6.52 4.516-.175-2.507.033-.021-.038-.058-.196-2.808.165-.092-.196-.354-.064-.912 6.52-4.516zm1.12-.747 7.486-4.99-.12-1.719-7.486 4.99zm-.2-2.867 7.486-4.99-.086-1.246-7.473 5.179zm-8.823 5.118-.007-.109-.82.568zm-3.481 1.933h-.004l-2.127-1.059-2.28 1.14.159 2.282zm-5.359 3.212-12.008-6.004.208 2.986 12.008 6.004zm-.081-1.159-12.007-6.003-.033-.469a.6.6 0 0 0-.328-.492l-8.293-4.115a.57.57 0 0 0-.583.043.6.6 0 0 0-.22.28L5.632 37.27l-.104-1.503 33.537 16.858zm-.21-3.013L5.446 34.607l-.136-1.949 33.537 16.858.136 1.95Zm1.163-.039 1.236-.617-1.325-.66zm2.721-1.36-.152.076-3.05-1.514a.57.57 0 0 0-.425-.033L4.449 31.106l-.018.036L.479 29.18l19.79-10.747zM5.713 38.447l.135 1.939 12.042 6.422-.135-1.939zm12.259 9.538L5.931 41.563l.213 3.058 12.067 6.788zm1.468 4.231.05-.088-.058-.032-.5-7.17 7.08 3.512.033.472L26 49l.053.026.236 3.394-.005.01-6.514 4.512zm-1.146.387L6.227 45.815l.366 5.253 12.01 5.96zm22.35 5.967-.192-2.756.033.06 7.706-4.281.13 1.86z"/></svg><svg xmlns="http://www.w3.org/2000/svg" xml:space="preserve" id="icon" viewBox="0 0 502.664 502.664"><path d="M153.821 358.226 0 274.337v-46.463l153.821-83.414v54.574L46.636 250.523l107.185 53.431zm26.273 29.358L282.103 115.08h32.227L212.084 387.584zm168.749-29.358v-54.272l107.164-52.999-107.164-52.59v-53.927l153.821 83.522v46.183z"/></svg><svg xmlns="http://www.w3.org/2000/svg" id="info" viewBox="0 0 24 24"><rect width="24" height="24" rx="12"/><path d="M13.195 9.106v9.56h-2.379v-9.56zm-2.527-2.492q0-.556.362-.919.362-.362.971-.362.6 0 .963.362.37.362.37.92 0 .556-.37.918-.361.363-.963.362-.61 0-.97-.362-.363-.362-.363-.919"/></svg><svg xmlns="http://www.w3.org/2000/svg" id="item-icon" viewBox="0 0 16 16"><path d="M6.25 14 16 4.562 13.352 2 6.25 8.873 2.647 5.396 0 7.958z"/></svg><svg xmlns="http://www.w3.org/2000/svg" id="left_label" viewBox="0 0 20 45"><g clip-path="url(#la)"><path d="M-28.684 30.361c-8.207-2.169-8.207-13.597 0-15.765l5.802-1.533c2.862-.757 5.098-2.951 5.869-5.76l1.562-5.695c2.21-8.055 13.853-8.055 16.063 0l1.562 5.694c.77 2.81 3.007 5.004 5.87 5.76l5.8 1.534c8.208 2.168 8.208 13.596 0 15.765l-5.8 1.533c-2.863.757-5.1 2.951-5.87 5.76L.612 43.35c-2.21 8.054-13.853 8.054-16.063 0l-1.562-5.694c-.77-2.81-3.007-5.004-5.87-5.76l-5.8-1.534Z"/></g><defs><clipPath id="la"><path d="M0 45V0h20v45z"/></clipPath></defs></svg><svg xmlns="http://www.w3.org/2000/svg" id="mail" viewBox="0 0 24 24"><path d="M21.188 3.563H2.813A2.813 2.813 0 0 0 0 6.374v11.25a2.81 2.81 0 0 0 2.813 2.813h18.375A2.81 2.81 0 0 0 24 17.625V6.375a2.81 2.81 0 0 0-2.813-2.813Zm1.687 14.062a1.687 1.687 0 0 1-1.688 1.688H2.813a1.687 1.687 0 0 1-1.687-1.688V6.375a1.687 1.687 0 0 1 1.688-1.688h18.375a1.687 1.687 0 0 1 1.687 1.688v11.25Z"/><path fill-rule="evenodd" d="M22.875 17.625a1.687 1.687 0 0 1-1.688 1.688H2.813a1.687 1.687 0 0 1-1.687-1.688V6.375a1.687 1.687 0 0 1 1.688-1.688h18.375a1.687 1.687 0 0 1 1.687 1.688v11.25Zm-1.15-11.804a.562.562 0 0 1 .049.929l-7.117 5.316 6.987 5.22a.563.563 0 0 1-.673.902l-7.253-5.412-1.02.762a1.31 1.31 0 0 1-1.58-.012l-.972-.75-7.168 5.412a.566.566 0 0 1-.677-.908l6.917-5.212-6.994-5.35a.562.562 0 1 1 .683-.894l8.895 6.802a.19.19 0 0 0 .225 0L21.1 5.854a.56.56 0 0 1 .624-.033Z" clip-rule="evenodd"/></svg><svg xmlns="http://www.w3.org/2000/svg" id="microwave" viewBox="0 0 70 70"><path d="m37.785 64.484-5.602-3.223.145 2.719 5.457 3.413z"/><path d="m31.084 65.406 7.9 4.593V40.305l-7.9-4.612zm7.058-12.784-.09.783c0 .004-.005.006-.005.011-.005.03-.01.06-.024.09l-.288.583c-.01.02-.03.03-.044.048-.007.01-.004.022-.013.031l-.334.336c-.002.003-.005 0-.008.004l-.016.018-.002.002-.111.09c-.004.002-.007 0-.01.004a.3.3 0 0 1-.086.047l-.556.179a.3.3 0 0 1-.09.014l-.03-.001-.666-.067c-.017-.002-.03-.01-.048-.014-.014-.004-.029-.004-.043-.01l-.711-.312c-.014-.007-.023-.018-.036-.026-.006-.003-.014-.002-.02-.006l-.71-.516c-.008-.005-.008-.017-.016-.024-.006-.006-.018-.003-.025-.011l-.665-.693c-.005-.004-.003-.012-.007-.018-.008-.01-.02-.013-.026-.022l-.577-.849c-.004-.006 0-.013-.004-.018-.005-.008-.014-.011-.018-.02l-.444-.918c-.006-.011-.006-.024-.01-.034l-.01-.015-.266-.938c-.003-.012 0-.021-.003-.033 0-.005-.006-.007-.006-.013l-.111-.873c-.002-.013.002-.025.002-.04 0-.013-.004-.026-.002-.041l.11-.783c.003-.015.011-.027.015-.041s.003-.026.009-.04l.266-.604a.3.3 0 0 1 .067-.093l.001-.004.445-.424.002-.001a.3.3 0 0 1 .109-.066l.133-.046h.005l.004-.002.426-.13a.3.3 0 0 1 .135-.017h.004l.662.067c.016.002.028.01.043.014.016.004.032.004.048.01l.71.312c.016.007.026.018.04.028.005.004.01 0 .016.005l.71.513c.01.007.008.02.017.027.008.006.02.004.028.012l.665.716c.004.004.002.009.006.014.008.01.019.016.026.027l.556.85c.002.003 0 .007.002.011.004.008.012.013.016.02l.444.894.007.024c.003.007.01.014.012.022l.288.939c.004.011 0 .022.004.032.002.01.008.018.008.028l.09.894c0 .012-.005.02-.005.032.002.01.007.02.005.032m-6.127-10.871.089-.783c0-.004.005-.006.005-.01a.3.3 0 0 1 .023-.088l.29-.604a.3.3 0 0 1 .06-.081l.004-.008.421-.402.004-.002a.3.3 0 0 1 .108-.066l.134-.046h.005l.004-.002.433-.13q.06-.023.129-.015l.643.067c.014.002.026.01.04.013.014.004.028.002.042.008l.71.29c.018.008.031.02.048.032.005.003.011 0 .015.004l.712.514c.01.008.008.02.017.028s.021.006.03.015l.643.716c.006.006.003.015.008.02.006.006.015.006.018.014l.556.827c.003.005 0 .009.003.014q.01.01.018.023l.445.917.006.025.013.023.266.918c.004.01 0 .018.004.028l.008.026.09.872q-.001.016-.005.032c0 .012.005.022.003.034l-.09.76c0 .007-.006.01-.007.017-.005.023-.006.048-.017.072l-.266.603c-.012.027-.036.042-.054.063-.01.01-.006.026-.017.036l-.334.313-.004.002-.011.01-.002.002-.111.09c-.004.003-.007.001-.01.005-.027.018-.054.037-.088.048l-.556.179a.3.3 0 0 1-.122.013l-.642-.067c-.018-.002-.03-.01-.047-.015-.014-.004-.03-.002-.045-.01l-.71-.313c-.015-.006-.024-.018-.036-.025-.006-.004-.014-.003-.018-.007l-.711-.514c-.01-.006-.008-.019-.016-.026s-.02-.004-.029-.012l-.643-.693-.005-.015q-.01-.007-.02-.018l-.041-.058-.098-.024q-.014-.006-.026-.014-.026-.009-.048-.022l-.022-.012c-.016-.01-.026-.023-.04-.036-.006-.008-.016-.01-.022-.018l-.311-.38c-.01-.013-.005-.028-.013-.042-.013-.02-.034-.032-.042-.056l-.044-.134-.002-.02a.3.3 0 0 1-.007-.058q-.001-.03.001-.06v-.02l.022-.1-.334-.712c-.004-.009-.003-.018-.006-.027l-.009-.012-.29-.94c-.003-.014-.001-.029-.003-.044-.001-.006-.007-.008-.008-.014l-.09-.85q.001-.017.005-.032c0-.015-.005-.025-.003-.036m-.47 17.279v-1.364l.003-.01q.001-.03.012-.058.005-.03.016-.059l.002-.01c.007-.014.018-.022.027-.034q.018-.028.04-.051a.2.2 0 0 1 .034-.025q-.005-.003-.009-.008-.026-.018-.047-.042l-.022-.028-.008-.008-.008-.02-.018-.042a.3.3 0 0 1-.015-.075l-.004-.024v-3.867c0-.008.005-.016.005-.024a.3.3 0 0 1 .012-.057.3.3 0 0 1 .021-.059c.004-.006.004-.014.008-.02.006-.01.016-.016.022-.023a.3.3 0 0 1 .042-.046.4.4 0 0 1 .099-.055.3.3 0 0 1 .06-.013c.011 0 .02-.006.032-.006l.023.004q.03.004.058.012l.057.022c.007.004.014.004.02.008l.176.11 6.21 3.597q.014.01.027.023a.3.3 0 0 1 .049.044.3.3 0 0 1 .03.046.3.3 0 0 1 .026.053q.009.03.012.058c.002.014.008.026.008.04v3.87l-.004.017a.4.4 0 0 1-.012.059.2.2 0 0 1-.02.057l-.005.018c-.004.008-.013.01-.017.018a.4.4 0 0 1-.06.065l.04.038.019.02.002.001v.006q.008.01.012.02a.2.2 0 0 1 .024.053c.008.019.01.04.014.06.001.012.007.024.007.038v1.408l-.003.018a.3.3 0 0 1-.012.06c-.006.019-.01.038-.02.057l-.005.017c-.006.009-.014.012-.019.018a.3.3 0 0 1-.076.078c-.012.006-.02.016-.032.02a.3.3 0 0 1-.134.036h-.001a.3.3 0 0 1-.137-.037c-.004-.002-.01 0-.014-.004l-6.395-3.735-.006-.007q-.01-.006-.018-.015l-.003-.004a.3.3 0 0 1-.046-.04.3.3 0 0 1-.032-.048l-.02-.029v-.002l-.004-.02a.3.3 0 0 1-.012-.06c-.004-.015-.01-.028-.01-.04Zm0 1.476.003-.016c0-.02.007-.04.012-.059q.008-.03.018-.057l.005-.016c.006-.012.018-.019.025-.03a.2.2 0 0 1 .04-.047.3.3 0 0 1 .05-.032.3.3 0 0 1 .049-.026.4.4 0 0 1 .063-.013c.013-.002.024-.008.037-.008q.008.001.014.004.03.002.06.012.03.007.056.018l.016.006.2.111.002.002h.002l6.194 3.6c.012.007.018.018.028.025a.3.3 0 0 1 .048.042q.017.022.03.047.016.025.025.052.01.03.013.06c.002.014.008.025.008.038v3.803l-.004.018a.3.3 0 0 1-.012.058.3.3 0 0 1-.019.058l-.006.017c-.004.007-.013.01-.017.018a.3.3 0 0 1-.08.078q-.014.012-.03.02a.3.3 0 0 1-.134.036h-.002a.3.3 0 0 1-.135-.036l-.014-.004-6.394-3.712q-.015-.012-.026-.024-.027-.02-.048-.043l-.026-.037q-.007-.005-.012-.012-.004-.007-.004-.016a.3.3 0 0 1-.025-.078q-.005-.019-.007-.039l-.002-.016-.002-3.802zm13.059 6.564 24.395-14.165L69 23.212 44.604 37.376zm5.658-25.417v-.425c0-.014.006-.024.008-.036a.3.3 0 0 1 .012-.062.3.3 0 0 1 .025-.052q.013-.026.032-.048a.2.2 0 0 1 .045-.04q.014-.014.029-.026l12.476-7.268.018-.006.045-.018.038-.011.035-.004.017-.003.026.005q.02-.001.037.004a.1.1 0 0 1 .035.011.2.2 0 0 1 .042.02c.009.004.018.004.024.01l.006.006q.015.01.026.02a.3.3 0 0 1 .033.037q.014.014.024.03l.008.008q.004.008.006.018.011.021.016.044.009.02.012.039l.004.034.003.018v.96q-.001.012-.004.022 0 .019-.004.038l-.012.038a.2.2 0 0 1-.016.038q-.001.01-.007.02-.004.005-.01.008l-.023.032a.3.3 0 0 1-.046.04l-.028.026-12.477 7.27c-.004.003-.01.001-.014.004a.3.3 0 0 1-.135.036h-.002a.3.3 0 0 1-.134-.035q-.018-.01-.032-.02a.3.3 0 0 1-.078-.078c-.005-.008-.013-.01-.018-.018l-.006-.018a.3.3 0 0 1-.018-.056q-.01-.03-.013-.06l-.003-.018zm0 1.476c0-.014.006-.023.008-.036a.3.3 0 0 1 .012-.062.3.3 0 0 1 .025-.051q.013-.027.032-.049a.3.3 0 0 1 .045-.04l.029-.026 12.476-7.268.018-.006a.2.2 0 0 1 .045-.018l.04-.011q.014-.004.032-.004l.018-.004c.008 0 .016.005.024.006q.02-.001.04.004l.032.01q.024.008.043.02c.008.004.018.004.024.009l.007.008q.014.01.024.02a.2.2 0 0 1 .034.036q.014.014.024.03l.008.008q.005.01.006.019.01.02.016.043.009.02.012.04l.004.033.003.018v.96q-.001.012-.004.02l-.005.04-.012.038-.016.04q-.001.01-.006.02-.006.004-.01.009l-.024.03a.2.2 0 0 1-.048.042c-.01.008-.016.018-.027.025l-.004.002-12.473 7.245-.014.004a.3.3 0 0 1-.134.035l-.002.001a.3.3 0 0 1-.135-.036l-.031-.02a.3.3 0 0 1-.078-.078c-.005-.007-.014-.01-.018-.018q-.002-.01-.006-.017a.4.4 0 0 1-.02-.058q-.009-.03-.01-.059l-.005-.018v-.936Zm0 2.302v-.423c0-.015.006-.026.008-.038a.3.3 0 0 1 .012-.06q.01-.028.025-.053.013-.025.032-.046a.2.2 0 0 1 .047-.043c.01-.007.018-.018.027-.024l12.476-7.247.018-.006.046-.017q.02-.008.04-.012l.03-.003.019-.003q.014.002.026.006.02 0 .04.003l.03.01.046.022.024.01.004.005.025.02q.022.021.042.048l.023.027.007.017q.013.027.019.058l.002.006.006.019.004.034.003.018v.938q-.001.012-.004.02 0 .02-.004.039l-.012.04-.016.039-.007.019-.01.01q-.01.016-.024.031-.02.023-.045.04c-.012.009-.018.019-.028.026L50.716 46.23c-.004.004-.01.002-.014.005a.3.3 0 0 1-.135.036h-.002a.3.3 0 0 1-.134-.035l-.032-.02a.3.3 0 0 1-.078-.078c-.005-.008-.014-.01-.018-.019l-.006-.018a.3.3 0 0 1-.018-.055.3.3 0 0 1-.013-.06c0-.007-.004-.012-.004-.018zm0 1.947v-.448c0-.014.006-.024.008-.038a.3.3 0 0 1 .012-.06.4.4 0 0 1 .025-.052q.013-.025.032-.047c.014-.017.03-.028.046-.042.01-.007.016-.018.028-.024l12.476-7.29.018-.007.037-.016q.02-.007.043-.012l.038-.004c.005 0 .01-.004.017-.004.006 0 .012.004.018.004a.2.2 0 0 1 .041.005.2.2 0 0 1 .077.03l.018.006c.006.002.007.007.012.01l.03.024q.018.014.031.032.014.014.023.029l.012.014.005.017.016.04.012.04.005.038.004.018v.96l-.004.018-.005.04-.012.04a.1.1 0 0 1-.016.038l-.005.017-.01.01-.026.035a.3.3 0 0 1-.046.04l-.028.026-12.477 7.268c-.004.004-.01.002-.014.004a.3.3 0 0 1-.135.036l-.002.001a.3.3 0 0 1-.134-.036l-.032-.02a.3.3 0 0 1-.078-.078c-.005-.008-.013-.01-.018-.018l-.006-.018a.3.3 0 0 1-.018-.056.3.3 0 0 1-.013-.06l-.003-.018zm0 1.9v-.47c0-.013.006-.025.008-.037a.3.3 0 0 1 .012-.06q.01-.027.025-.053.013-.024.032-.046a.2.2 0 0 1 .047-.042q.014-.014.027-.024l12.476-7.247.018-.006.039-.016a.2.2 0 0 1 .04-.01.1.1 0 0 1 .037-.006c.006 0 .013-.004.019-.004s.012.004.018.004q.02 0 .04.006l.037.01.038.016.018.006.013.012.03.023.031.031q.013.015.023.03.006.008.013.014l.006.018a.4.4 0 0 1 .027.078l.005.04.003.017v.94q-.001.012-.004.02a.2.2 0 0 1-.017.078.2.2 0 0 1-.017.04c-.003.007-.003.014-.008.02l-.008.008a.2.2 0 0 1-.07.072q-.013.014-.028.024l-12.477 7.247-.014.003a.3.3 0 0 1-.134.038h-.002a.3.3 0 0 1-.135-.036l-.031-.02a.3.3 0 0 1-.078-.079c-.005-.007-.014-.01-.018-.018l-.006-.017a.4.4 0 0 1-.019-.058q-.01-.03-.011-.058l-.005-.018zm0 1.924v-.491c0-.014.006-.024.008-.037a.3.3 0 0 1 .012-.061.3.3 0 0 1 .025-.052q.013-.026.032-.048a.2.2 0 0 1 .045-.04q.014-.014.029-.026l12.476-7.268.018-.006a.1.1 0 0 1 .03-.015l.044-.011q.021-.005.041-.007c.007 0 .013-.004.019-.004l.012.003q.019 0 .039.006a.2.2 0 0 1 .046.011q.017.006.032.014c.004.002.008 0 .013.003l.017.015q.02.012.038.026.014.012.026.026l.023.031.016.018.006.019.015.031.01.04a.2.2 0 0 1 .006.045l.004.018v.939l-.004.018-.005.039-.012.04a.2.2 0 0 1-.016.038l-.006.019-.01.01-.025.032a.3.3 0 0 1-.046.04l-.028.026-12.477 7.269c-.004.002-.01 0-.014.004a.3.3 0 0 1-.135.037h-.001a.3.3 0 0 1-.135-.036l-.032-.021a.3.3 0 0 1-.077-.077q-.01-.008-.018-.018-.005-.009-.006-.018a.3.3 0 0 1-.018-.056.3.3 0 0 1-.014-.06l-.003-.018zm0 1.857v-.448c0-.014.006-.023.008-.036a.3.3 0 0 1 .012-.062.3.3 0 0 1 .025-.051q.013-.027.032-.049a.3.3 0 0 1 .045-.04l.029-.025 12.476-7.269.018-.006.037-.016.035-.01a.2.2 0 0 1 .046-.006c.006 0 .01-.004.017-.004.006 0 .012.004.018.004q.018 0 .034.004.024.005.046.012.019.006.034.015l.017.005.015.013a.3.3 0 0 1 .06.054q.014.015.024.031l.014.016.006.018q.008.016.014.034l.012.041.006.04.003.019v.938l-.003.016a.4.4 0 0 1-.031.117l-.005.016-.011.012-.028.038a.4.4 0 0 1-.046.04l-.028.026-12.476 7.268-.015.004a.3.3 0 0 1-.134.038h-.002a.3.3 0 0 1-.135-.036q-.017-.01-.032-.022a.3.3 0 0 1-.077-.076c-.006-.007-.014-.01-.018-.018q-.004-.009-.006-.019a.3.3 0 0 1-.018-.055.3.3 0 0 1-.013-.06l-.004-.018v-.493zm0 1.923v-.493c0-.013.006-.023.008-.037a.3.3 0 0 1 .012-.06q.01-.027.025-.052.013-.026.032-.048.021-.024.047-.042.014-.014.027-.024l12.476-7.246.018-.006q.019-.009.039-.016a.2.2 0 0 1 .04-.01.1.1 0 0 1 .037-.006c.006 0 .013-.004.019-.004s.012.003.018.004q.02 0 .041.005l.038.01q.02.008.037.017l.018.006q.006.007.014.012l.029.023.031.031.024.03q.005.008.012.014l.006.018a.4.4 0 0 1 .027.078l.005.04.004.017v.939l-.004.02-.005.04-.012.037q-.006.02-.017.04l-.007.02q-.004.006-.01.009-.01.016-.023.03-.022.023-.045.04c-.012.009-.018.019-.029.026l-12.476 7.269c-.005.002-.01 0-.015.003a.3.3 0 0 1-.134.038h-.002a.3.3 0 0 1-.135-.036q-.017-.01-.031-.022a.3.3 0 0 1-.078-.076c-.005-.006-.014-.01-.018-.018q-.005-.009-.006-.018a.3.3 0 0 1-.018-.056.3.3 0 0 1-.013-.06c0-.006-.004-.012-.004-.018zm-14.93-22.105-3.948 2.291 7.901 4.613 3.96-2.297zM39.586 70l3.948-2.29V38.017l-3.948 2.288zM29.695 0 5.32 14.187l38.983 22.664 24.395-14.165zM4.277 14.83l-.047-.026-3.93 2.29 29.803 17.324.071-.036 3.868-2.258z"/><path d="m37.94 57.19-5.612-3.25-.145 4.82L38 62zM0 47.335l29.792 17.319V34.939L.001 17.62zm.707-14.29.111-1.857q.001-.005.006-.01v-.03l.333-1.701.008-.02.004-.024.532-1.498c.004-.01.012-.016.016-.025s.004-.019.01-.028l.755-1.275c.005-.01.018-.01.024-.018.006-.009.002-.021.01-.029l.933-1.052c.008-.01.021-.006.03-.014.01-.009.009-.022.019-.03l.465-.334.003-.007.289-.246c.004-.004.01 0 .014-.005.012-.008.018-.02.031-.026l.31-.179.024-.008.023-.014.244-.09c.01-.003.02-.001.03-.004.008-.002.016-.008.025-.01l.133-.021h.007q.005 0 .008-.003l.4-.045.032.002c.012 0 .022-.004.034-.002l.4.045c.005 0 .008.004.012.004h.015l.444.09c.012.002.02.009.03.012s.02.002.03.006l.466.2.01.007.012.004.466.246.005.004s.004 0 .006.002l15.186 8.835.002.002h.002l.445.268q.008.009.018.017c.003.002.007 0 .01.002l.466.358c.005.004.004.01.008.015.005.004.012.002.017.006l.421.402s0 .003.002.005l.004.001.445.448c.005.006.002.014.008.018.004.006.012.004.016.01l.4.514.002.009q.004.002.006.005l.356.514v.007q.006.005.01.011l.334.56.004.012.007.01.15.305.665 1.205.004.013.006.01.955 2.148.003.011q.002.006.006.01l.777 2.17.001.013c.001.006.006.009.006.014l.556 2.147v.014l.005.012.355 2.103v.018l.004.016.111 1.99-.002.018.002.018-.111 1.88c0 .005-.005.007-.006.012q.002.017 0 .032l-.355 1.7c0 .004-.006.006-.007.012-.002.01 0 .02-.005.031l-.556 1.5c-.002.006-.008.008-.012.015-.004.011-.005.022-.012.034l-.755 1.275c-.008.014-.022.02-.032.031-.006.007-.003.018-.009.024l-.977 1.029c-.008.008-.022.005-.031.013s-.009.021-.02.029l-.465.313c-.003.002-.007 0-.009.003l-.012.01-.174.098-.131.113c-.006.006-.016.004-.022.008s-.005.014-.012.018l-.31.201c-.007.005-.014.003-.02.006-.024.014-.046.028-.074.034l-.377.09-.026.004c-.004 0-.007.004-.01.004l-.4.044-.032.002-.032-.002-.421-.044c-.004 0-.008-.004-.012-.004l-.03-.004-.445-.112-.02-.01c-.009-.003-.018-.002-.025-.006l-.466-.201-.015-.01-.012-.003-.444-.246-.003-.004h-.002L7.162 48.377l-.004-.004h-.004l-.466-.29-.014-.015c-.002-.002-.006 0-.01-.003l-.466-.358c-.004-.004-.004-.01-.008-.014-.006-.005-.012-.003-.017-.007l-.421-.403c-.002-.003 0-.006-.004-.009-.002-.002-.005 0-.008-.003l-.421-.448c-.003-.002-.001-.007-.005-.01-.004-.006-.011-.007-.016-.014l-.377-.491v-.004l-.007-.006-.377-.537-.002-.009c-.002-.004-.008-.005-.01-.01l-.333-.56-.004-.01-.005-.006-.289-.56q0-.006-.003-.011c-.009-.018-.012-.04-.016-.058q-.01-.027-.014-.055l-.45-.806-.006-.018-.008-.008-.933-2.125-.004-.017q-.002-.005-.006-.009l-.732-2.17c-.002-.005 0-.01-.002-.014 0-.002-.004-.003-.004-.007l-.556-2.124q-.002-.011 0-.018c0-.005-.005-.006-.006-.01l-.333-2.08v-.022l-.004-.01-.111-1.968.002-.018z"/><path d="m1.748 37.05.547 2.094.726 2.15.922 2.103.48.855c.006.01.006.019.009.028q.008.02.014.042a.3.3 0 0 1 .013.064l.001.004.252.488.324.545.367.522.362.473.406.43.406.386.441.34.447.279 15.181 8.853.427.236.435.189.397.1.37.038.349-.038.31-.075.25-.162.138-.12c.005-.004.01-.002.015-.005q.016-.017.035-.03l.191-.107.426-.286.931-.981.723-1.22.539-1.456.344-1.65.109-1.842-.11-1.955-.35-2.073-.549-2.123-.767-2.142-.945-2.124-.66-1.196-.483-.862-.342-.495-.383-.492-.425-.427-.411-.392-.44-.338-.425-.256-15.175-8.83-.453-.24-.424-.182-.404-.082-.351-.04-.358.04-.018.003q-.013.015-.03.026l-.829.484-.429.308-.89 1.004-.725 1.225-.516 1.45-.324 1.654-.108 1.817.109 1.939zm33.198-4.884v.025c0 .014-.006.025-.007.037a.3.3 0 0 1-.012.06.3.3 0 0 1-.026.052.3.3 0 0 1-.08.089c-.01.007-.015.018-.025.024l-3.877 2.263.018.01 4.212-2.443zm1.814 10.159c.896 1.634.85 3.38-.1 3.9-.951.522-2.447-.38-3.342-2.014s-.85-3.38.1-3.9c.952-.522 2.448.38 3.343 2.014ZM36.762 50c.895 1.633.85 3.38-.101 3.9-.95.522-2.447-.38-3.342-2.014s-.85-3.38.101-3.9c.951-.522 2.447.38 3.342 2.014"/></svg><svg xmlns="http://www.w3.org/2000/svg" id="play" viewBox="0 0 70 70"><path d="M0 35C0 15.67 15.67 0 35 0h25c5.523 0 10 4.477 10 10v25c0 19.33-15.67 35-35 35S0 54.33 0 35"/><path d="M48 35.5 28 47V24z"/></svg><svg xmlns="http://www.w3.org/2000/svg" id="play_lit" viewBox="0 0 20 23"><path d="M20 11.5 0 23V0z"/></svg><svg xmlns="http://www.w3.org/2000/svg" id="plus" viewBox="0 0 30 30"><path fill-rule="evenodd" d="M13 0a1 1 0 0 0-1 1v11H1a1 1 0 0 0-1 1v4a1 1 0 0 0 1 1h11v11a1 1 0 0 0 1 1h4a1 1 0 0 0 1-1V18h11a1 1 0 0 0 1-1v-4a1 1 0 0 0-1-1H18V1a1 1 0 0 0-1-1z" clip-rule="evenodd"/></svg><svg xmlns="http://www.w3.org/2000/svg" id="slider-arrow" viewBox="0 0 7 10"><path d="M6.995 4.91a.86.86 0 0 0-.296-.532L2.217.358a1.4 1.4 0 0 0-.855-.354A1.5 1.5 0 0 0 .435.23C.18.398.023.64.002.898c-.02.26.096.513.324.705L4.116 5 .326 8.397c-.228.192-.344.446-.324.705.021.258.177.5.433.668.257.169.59.25.927.226a1.38 1.38 0 0 0 .855-.355l4.482-4.019c.22-.196.327-.453.296-.712"/></svg><svg xmlns="http://www.w3.org/2000/svg" id="sofa" viewBox="0 0 70 70"><path d="M29.979 66.097 4 51.481V30.738l25.979 14.939zm6.003-2.687-4.911 2.687v-20.42l4.911-3.117zm21.176-15.369-1.091.645-18.993 11.178V45.676l6.55-3.976 1.092-.645 12.552-7.416v14.402zM30.525 44.71 4.545 29.77l4.913-2.794 7.204 4.085 18.775 10.532z"/><path d="m21.683 32.672 11.243-6.234 1.092-.644 5.567-3.117 17.028 9.888-13.099 7.846-1.092.644-5.457 3.332V41.27zM39.04 4.299v17.518l-5.022 2.794-1.092.645-12.335 6.879-3.93-2.15.002-13.219zm-29.036 9.673 5.567 2.902V29.34l-5.567-3.116zM33.472 0l5.13 3.332-22.485 12.574-5.567-2.902zm27.07 28.373L40.13 16.658V11.07l25.433 14.187-5.02 3.117Z"/><path d="m59.996 49.653-1.746-.967V32.349L40.13 21.817v-3.976l19.867 11.392zM66 47.074l-4.912 2.687V29.34L66 26.223zM55.63 53.2c-.764.43-1.31.215-1.637 0l-.218-1.827 2.074-1.182zM25.504 69.752a1.48 1.48 0 0 1-1.637 0l-.655-6.234 2.73 1.505zm-15.5-8.814a1.48 1.48 0 0 1-1.637 0l-.655-6.125 2.62 1.504z"/></svg><svg xmlns="http://www.w3.org/2000/svg" id="sport" viewBox="0 0 70 70"><path d="M52.926 49.127a48.5 48.5 0 0 0 8.892 3.32A31.85 31.85 0 0 0 67 34.992c0-9.374-4.03-17.807-10.451-23.66 5.2 18.57-2.21 34.934-3.623 37.795M23.217 37.08a.65.65 0 0 1 .307-.069c5.178-1.99 9.721-2.529 11.108-2.652.458-1.209 1.889-5.41 2.309-11.435-3.886.302-21.72 2.532-33.39 17.967a31.8 31.8 0 0 0 3.68 10c1.783-3.542 4.201-6.342 6.886-8.535a.66.66 0 0 1 .239-.238c.034-.019.072-.02.108-.033 2.77-2.194 5.785-3.78 8.638-4.912.038-.033.07-.07.115-.093"/><path d="M37.016 21.57c.11-2.634.01-5.57-.436-8.726-3.192-.093-19.85.34-33.29 17.899a32 32 0 0 0-.29 4.25c0 1.375.096 2.728.265 4.058 12.17-15.165 30.119-17.219 33.752-17.481Zm-2.249 14.127c-1.235.107-5.42.589-10.26 2.374 2.045 3.612 10.932 17.39 29.781 22.46a32.2 32.2 0 0 0 6.726-6.91c-16.44-4.551-24.798-15.806-26.247-17.924"/><path d="M23.241 38.564c-2.545 1.04-5.203 2.455-7.669 4.364 1.932 3.329 10.936 17.248 29.1 22.58a31.9 31.9 0 0 0 8.209-3.968C33.99 56.04 25.154 41.99 23.24 38.563ZM37.81 11.951a.7.7 0 0 1 .053.315c0 .008-.006.015-.007.023.529 3.548.625 6.836.479 9.754.011.049.03.096.03.147a.7.7 0 0 1-.05.267c-.384 6.585-1.975 11.196-2.455 12.458.648.954 3.062 4.282 7.388 7.91.006-.014.005-.028.013-.042.098-.179 9.289-17.342 1.787-38.177-3-.992-6.194-1.551-9.513-1.606a50 50 0 0 1 2.274 8.951Z"/><path d="M36.373 11.496a48.5 48.5 0 0 0-2.263-8.487C19.244 3.417 6.916 13.958 3.781 27.98 16.96 12.251 32.556 11.437 36.373 11.496m-21.855 32.29c-2.556 2.187-4.84 4.95-6.463 8.463C13.745 61.12 23.682 67 35 67c2.503 0 4.935-.297 7.273-.84-16.981-5.77-25.633-18.775-27.755-22.373Zm29.922-.354a.7.7 0 0 1-.198.203 48 48 0 0 0 7.486 4.882c1.394-2.82 9.13-19.853 2.94-38.763A32 32 0 0 0 46.69 5.2c7.041 20.952-2.15 38.052-2.25 38.233Z"/></svg><svg xmlns="http://www.w3.org/2000/svg" id="technique" viewBox="0 0 70 70"><path d="m11.637 21.577-5.5 1.413 5.5 3.087z"/><path fill-rule="evenodd" d="m32.6 7 21.635 12.589c1.76 3.962 2.169 4.954 4.468 10.543.381.927.814 1.98 1.315 3.194l9.285 9.91-17.985 9.467-7.976-11.522 14.781-8.255-4.786-11.24-15.603 9.042 4.197 9.695-4.012.212-3.424-9.307-8.574-4.696v8.593l.079.048v13.275l-1.5-.913v-13.01l.175.1v-8.592l-10.767-6.294v8.692l.092.053v12.659l-.94-.572c.23-1.86-.298-4.199-1.645-6.394-2.31-3.765-6.053-5.627-8.375-4.196-1.152.71-1.732 2.061-1.744 3.747L0 32.978v-9.192l.848-.999.094-.063.056-.036.399-.25c4.55-3.051 9.068-5.477 13.31-7.493l.154-.078.144-.072 1.446-.8L32.6 7.003zM12.663 19.888l-8.574 3.098 8.574 4.995z" clip-rule="evenodd"/><path d="m15 41.852 8.5 5.174V34.05L15 29.16v12.693ZM15 28l8.5 5v-6L15 22z"/><path fill-rule="evenodd" d="m27 49.157 2.061 1.255c-.082-1.863.453-3.432 1.695-4.196 2.322-1.431 6.116.481 8.424 4.245 1.436 2.339 1.95 4.835 1.596 6.744L50.846 63l19.141-11.74c0-.786.003-1.641.007-2.503v-.004c.006-1.727.012-3.479-.006-4.746L51 54 37 42l.001-.002L27 35.884zm40.194-2.244c-.818 0-1.495 1.123-1.495 2.448 0 1.326.677 2.398 1.495 2.398s1.446-1.072 1.446-2.398-.628-2.448-1.446-2.448m-13.21 7.793c-.818 0-1.446 1.072-1.446 2.398s.628 2.398 1.446 2.398 1.495-1.072 1.495-2.398-.677-2.398-1.495-2.398" clip-rule="evenodd"/><path d="m38.367 41.855 10.39 8.906-6.476-9.355-4 .212zm31.62 2.121v-.01l-.01-.01zM5.008 33.65a1.27 1.27 0 0 0-.774.356c-.873.818-.62 2.79.603 4.435s2.935 2.347 3.808 1.529.578-2.825-.645-4.47c-.917-1.233-2.089-1.929-2.992-1.85"/><path fill-rule="evenodd" d="M4.785 31.128c1.669.081 3.638 1.45 4.985 3.647 1.797 2.929 1.807 6.23 0 7.343s-4.733-.369-6.53-3.297c-1.797-2.93-1.807-6.23 0-7.343.452-.278.99-.377 1.545-.35m.349 1.449a1.96 1.96 0 0 0-1.147.299c-1.377.848-1.42 3.312-.05 5.545s3.609 3.396 4.986 2.547 1.37-3.361 0-5.595c-1.028-1.674-2.517-2.734-3.79-2.796Z" clip-rule="evenodd"/><path d="M32.705 50.052c.32-.076.652-.076 1.002.02 1.048.288 2.122 1.29 2.716 2.618.79 1.77.403 3.465-.876 3.77-1.28.306-2.961-.91-3.751-2.68-.791-1.77-.37-3.423.91-3.728Z"/><path fill-rule="evenodd" d="M32.55 47.463c1.668.081 3.637 1.45 4.985 3.646 1.797 2.93 1.806 6.231 0 7.343-1.807 1.114-4.733-.368-6.53-3.297s-1.806-6.23 0-7.343c.451-.279.989-.376 1.545-.35Zm.348 1.448a1.96 1.96 0 0 0-1.146.3c-1.377.848-1.42 3.312-.05 5.545s3.608 3.396 4.985 2.547 1.37-3.362 0-5.595c-1.028-1.674-2.517-2.734-3.789-2.797" clip-rule="evenodd"/><path d="M27 28.5v6l9.5 6-2.5-8zM39.5 31 53 23.5l4 9.019L43 40z"/></svg><svg xmlns="http://www.w3.org/2000/svg" id="true" viewBox="0 0 24 24"><path d="m1.917 14 5.75 6L21.082 6"/></svg><svg xmlns="http://www.w3.org/2000/svg" id="phone" viewBox="0 0 15 16"><path d="M12.5 10.216a7.1 7.1 0 0 1-2.231-.356.64.64 0 0 0-.638.15l-1.375 1.375a9.4 9.4 0 0 1-4.118-4.119l1.375-1.381a.6.6 0 0 0 .156-.625 7.1 7.1 0 0 1-.356-2.231.627.627 0 0 0-.625-.625H2.5a.627.627 0 0 0-.625.625c0 5.868 4.756 10.625 10.625 10.625a.627.627 0 0 0 .625-.626v-2.187a.627.627 0 0 0-.625-.625m-.625-2.187h1.25A5.625 5.625 0 0 0 7.5 2.403v1.25a4.37 4.37 0 0 1 4.375 4.374m-2.5 0h1.25c0-1.726-1.4-3.125-3.125-3.125v1.25c1.037 0 1.875.837 1.875 1.874"/></svg></svg>