<svg width="20" height="20" viewBox="0 0 20 20" fill="none" xmlns="http://www.w3.org/2000/svg">
<path d="M1.18683 17.1868C0.737724 17.6359 0.737724 18.3641 1.18683 18.8132C1.63593 19.2623 2.36407 19.2623 2.81317 18.8132L2 18L1.18683 17.1868ZM19.15 2C19.15 1.36487 18.6351 0.85 18 0.85H7.65C7.01487 0.85 6.5 1.36487 6.5 2C6.5 2.63513 7.01487 3.15 7.65 3.15H16.85V12.35C16.85 12.9851 17.3649 13.5 18 13.5C18.6351 13.5 19.15 12.9851 19.15 12.35V2ZM2 18L2.81317 18.8132L18.8132 2.81317L18 2L17.1868 1.18683L1.18683 17.1868L2 18Z" fill="#734CA5"/>
</svg>
