<svg width="60" height="139" viewBox="0 0 60 139" fill="none" xmlns="http://www.w3.org/2000/svg">
          <path d="M-86.049 93.8708C-110.67 87.1655 -110.67 51.8323 -86.049 45.127L-68.6445 40.387C-60.0571 38.0482 -53.3493 31.2633 -51.0372 22.5772L-46.3511 4.97242C-39.7221 -19.9312 -4.79061 -19.9312 1.83842 4.97242L6.52456 22.5772C8.83669 31.2633 15.5445 38.0482 24.1318 40.387L41.5364 45.127C66.1569 51.8323 66.1569 87.1655 41.5364 93.8708L24.1318 98.6108C15.5445 100.95 8.83669 107.734 6.52457 116.421L1.83842 134.025C-4.7906 158.929 -39.722 158.929 -46.3511 134.025L-51.0372 116.421C-53.3493 107.734 -60.0571 100.95 -68.6445 98.6108L-86.049 93.8708Z" fill="#000"/>
        </svg>