<svg width="63" height="63" viewBox="0 0 63 63" fill="none" xmlns="http://www.w3.org/2000/svg">
<path d="M21.9479 6.96808C24.4495 -2.32164 37.6298 -2.3212 40.1308 6.96869L41.8987 13.5358C42.771 16.776 45.3019 19.3071 48.5421 20.1796L55.1091 21.948C64.3988 24.4496 64.3984 37.6299 55.1085 40.1309L48.5414 41.8988C45.3011 42.7711 42.7701 45.302 41.8976 48.5422L40.1292 55.1092C37.6276 64.3989 24.4473 64.3985 21.9463 55.1086L20.1784 48.5415C19.306 45.3013 16.7752 42.7702 13.535 41.8977L6.96797 40.1293C-2.32175 37.6277 -2.32131 24.4474 6.96857 21.9464L13.5357 20.1785C16.7759 19.3062 19.307 16.7753 20.1795 13.5351L21.9479 6.96808Z" fill="url(#paint0_linear_1618_1168)"/>
<defs>
<linearGradient id="paint0_linear_1618_1168" x1="51.0143" y1="10.1805" x2="6.18988" y2="57.488" gradientUnits="userSpaceOnUse">
<stop stop-color="#EB5884"/>
<stop offset="0.491918" stop-color="#A05ED5"/>
<stop offset="1" stop-color="#6124C5"/>
</linearGradient>
</defs>
</svg>
