<svg xmlns="http://www.w3.org/2000/svg" width="190" height="32" fill="none" viewBox="0 0 190 32"><g clip-path="url(#a)"><path fill="#A6A5B7" fill-rule="evenodd" d="M88.896 27.997c1.185-.54 1.22-1.345 1.22-1.885v-6.744H95v7.021c0 .912-.294 1.933-2.257 2.768-2.588 1.115-6.624 1.159-8.994 1.159-2.367 0-6.401-.044-8.994-1.159-1.958-.835-2.255-1.856-2.255-2.768v-7.02h4.883v6.743c0 .6.041 1.328 1.26 1.885 1.37.619 3.592.695 5.106.695 1.408 0 3.815-.076 5.147-.695m-85.63 2.319c-.834 0-1.778-.078-2.358-.28-.4-.143-.908-.439-.908-.907v-9.76h4.792v8.744c-.003.126-.008.308.325.436.145.048 2.478.125 3.238.125H20v1.64l9.576-9.726c.905-.91 1.888-1.22 4.17-1.22 2.179 0 3.266.31 4.174 1.22l9.578 9.728h-5.043l-2.612-2.735H27.617l-2.576 2.735zm29.784-8.629-.029.031-4.173 4.409h9.761l-4.135-4.409-.033-.035c-.15-.16-.39-.413-.694-.413-.305 0-.547.258-.697.417m18.828 8.629c-1.182 0-3.545-.047-3.545-1.128 0-.67.848-1.138 1.589-1.47l14.11-6.175c.222-.093.444-.22.444-.329 0-.063-.11-.202-.7-.202H49.33v-1.644h18.581c1.443 0 2.92.234 2.92 1.127 0 .688-.71 1.005-1.432 1.325l-.045.02-14.299 6.379-.003.001c-.183.079-.367.157-.367.282 0 .141.222.171.444.171h15.295v1.643zm46.673-10.51c-1.014.422-1.051.97-1.051 1.424v9.086h4.783v-8.523c0-.218 0-.422.506-.608.397-.158.762-.174 1.269-.174h7.753c.762 0 1.921 0 2.679.328.509.22.908.658.908 1.517 0 .377-.074 1.157-.579 1.503-.652.438-1.777.484-2.609.484h-4.782c-1.375 0-2.137.313-2.137.752v.249c0 .311.687.702 1.194.922l8.334 3.55h6.013l-9.634-3.863v-.079h3.261c2.892 0 4.128-.593 4.779-1.124 1.015-.815 1.087-1.675 1.087-2.47 0-.8-.072-1.66-1.269-2.411-1.483-.956-3.658-1-5.433-1h-12.03c-.937 0-2.132.06-3.042.437m28.117-.438H122.5v10.948h4.167zm10.919 1.64v9.308h4.88v-9.307h9.201v-1.64h-23.334v1.64z" clip-rule="evenodd"/><path fill="#A6A5B7" d="M190 0h-31.667v32H190z"/><path fill="#fff" fill-rule="evenodd" d="M166.308 21.92c0 .613.02 1.225.04 1.732l.065 1.611h.98l-.243-4.21h-1.309l-.474 1.399a35 35 0 0 0-.421 1.511h-.02a21 21 0 0 0-.374-1.505l-.435-1.405h-1.335l-.282 4.21h.927l.079-1.599c.022-.356.039-.77.055-1.176l.023-.568h.014c.105.55.258 1.15.4 1.644l.475 1.63h.783l.538-1.643c.173-.493.357-1.093.494-1.63zm2.53 1.563h1.739v-.775h-1.739v-.874h1.845v-.781h-2.914v4.21h3.01v-.78h-1.941zm5.34-2.43v.766h-1.995v.718a5 5 0 0 1 .552-.031c.46 0 .938.105 1.282.34.317.21.526.537.526.995 0 .408-.168.723-.431.94-.439.359-1.153.482-1.849.482-.505 0-.877-.03-1.107-.062v-4.148zm-2.004 3.481c.116.018.258.024.4.024.249 0 .499-.074.668-.216a.61.61 0 0 0 .22-.482.55.55 0 0 0-.241-.47c-.182-.13-.439-.187-.682-.187q-.172 0-.365.026zm4.058-1.051h1.52v-.775h-1.52v-.874h1.612v-.781h-2.548v4.21h2.634v-.78h-1.698zm5.461-2.43v4.149h-.883v-3.38h-.891v.986c0 1.064-.128 1.883-.722 2.252a1.54 1.54 0 0 1-.78.203l-.11-.758a.72.72 0 0 0 .448-.22c.238-.259.296-.788.296-1.416v-1.816zm2.041 1.446v-1.446h-.912V25.2c.205.031.541.062.991.062.63 0 1.307-.123 1.696-.531.198-.217.324-.513.324-.91 0-.927-.736-1.353-1.606-1.353-.174 0-.367.018-.493.03m.336 2.059c-.132 0-.238-.006-.341-.024v-1.318c.114-.012.22-.024.354-.024.437 0 .791.198.791.674 0 .47-.361.692-.804.692" clip-rule="evenodd"/></g><defs><clipPath id="a"><path fill="#fff" d="M0 0h190v32H0z"/></clipPath></defs></svg>