<svg xmlns="http://www.w3.org/2000/svg" width="125" height="32" fill="none" viewBox="0 0 125 32"><path fill="#A6A5B7" fill-rule="evenodd" d="M13.775 3.514.08 3.458.04 16.676 0 29.894h13.694c7.013 0 12.62-5.46 12.62-13.243.002-9.092-5.526-13.137-12.54-13.137m-.697 20.912H5.031s.967-4.327.967-7.744-.9-7.744-.9-7.744h8.056c4.046 0 7.51 2.379 7.51 7.724.004 4.916-3.54 7.764-7.586 7.764m26.018 0h3.008v5.478H30.45v-5.478h3.011V9.124l-4.516 2.834V6.292l4.516-2.834H39.1zm14.868-.072v5.554h-1.201v-3.322l-1.629 2.735h-.566l-1.633-2.68v3.263h-1.201v-5.55h1.06l2.075 3.445 2.037-3.445zm2.651 4.522h3.008v1.032h-4.28v-5.554h4.177v1.032h-2.9v1.206h2.566v.999h-2.57zm8.367-1.944q-.522-.42-1.524-.42h-1.532v-1.143h3.19v-1.015h-4.46v5.554h2.62q1.065 0 1.65-.461a1.54 1.54 0 0 0 .58-1.285 1.47 1.47 0 0 0-.527-1.22zm-1.027 1.825c-.223.142-.486.21-.75.194h-1.279v-1.487h1.279q1.01 0 1.011.73a.68.68 0 0 1-.26.573zm3.799.11h3.008V29.9h-4.279v-5.546h4.178v1.032H67.76v1.206h2.566v.999h-2.57zm4.721-4.513h4.255v5.554h-1.265v-4.51H73.57l-.039 1.166q-.015.729-.11 1.452-.067.556-.269 1.08a1.5 1.5 0 0 1-.497.674 1.33 1.33 0 0 1-.797.23q-.15 0-.3-.024t-.332-.062l.08-1.087q.111.03.23.031a.59.59 0 0 0 .504-.26c.141-.238.23-.503.261-.778q.088-.604.103-1.213zm9.535 0h1.2v5.554h-1.263v-3.61l-2.637 3.61h-1.207v-5.554h1.271v3.616zm-17.356-9.672a2.9 2.9 0 0 0-.956-.603 3.48 3.48 0 0 0-2.4 0c-.358.136-.687.34-.967.603-.273.258-.49.568-.64.913a3.07 3.07 0 0 0 0 2.284c.148.343.363.654.63.914.28.262.609.467.967.602.39.146.802.218 1.217.214a3.2 3.2 0 0 0 1.191-.214 2.9 2.9 0 0 0 .956-.594 2.77 2.77 0 0 0 .868-2.065 2.78 2.78 0 0 0-.868-2.054zm-.561 2.777a1.6 1.6 0 0 1-.364.564 1.65 1.65 0 0 1-.551.366 1.8 1.8 0 0 1-.679.126 1.9 1.9 0 0 1-.689-.127 1.62 1.62 0 0 1-.914-.929 2 2 0 0 1-.126-.72 2 2 0 0 1 .126-.724 1.7 1.7 0 0 1 .916-.927 1.93 1.93 0 0 1 1.374 0c.205.082.39.206.545.365.159.16.282.351.362.562.18.465.18.98 0 1.444m24.756-2.777a2.9 2.9 0 0 0-.955-.603 3.48 3.48 0 0 0-2.4 0c-.358.136-.687.34-.967.603-.272.258-.49.568-.639.913a3.05 3.05 0 0 0 0 2.284c.149.344.363.654.63.914.281.262.61.467.968.602.39.146.801.218 1.217.214.406.004.81-.068 1.191-.214.354-.134.678-.336.955-.594.273-.258.49-.569.639-.914.155-.363.233-.755.23-1.15a2.78 2.78 0 0 0-.869-2.055m-.56 2.777a1.6 1.6 0 0 1-.36.562 1.7 1.7 0 0 1-.555.367 1.8 1.8 0 0 1-.68.127 1.9 1.9 0 0 1-.688-.127 1.65 1.65 0 0 1-.55-.365 1.8 1.8 0 0 1-.365-.564 2 2 0 0 1-.125-.72 2 2 0 0 1 .125-.724 1.7 1.7 0 0 1 .372-.564c.156-.156.341-.28.545-.363a1.92 1.92 0 0 1 1.373 0c.206.08.391.204.544.363.16.16.283.352.364.564.18.465.18.98 0 1.444m7.185-3.498h-4.255l-.062 1.737q-.024.595-.08 1.102-.035.451-.156.889a1.45 1.45 0 0 1-.3.583.56.56 0 0 1-.427.198h-.215v2.199h1.184v-1.155h3.899v1.147h1.184v-2.195h-.774zm-1.263 4.505h-2.476a1 1 0 0 0 .13-.194q.157-.301.23-.634a7 7 0 0 0 .126-.84q.047-.46.071-.971l.023-.81h1.896zm6.806-4.506h1.199v5.554h-1.263v-3.61l-2.64 3.61h-1.207v-5.553h1.27v3.617zm2.008 0h4.79v1.048h-1.767v4.506h-1.263v-4.506h-1.762zm6.86 4.524h3.009v1.032h-4.28v-5.555h4.178v1.032h-2.901v1.197h2.56v1h-2.566zm4.719-4.522h4.255v5.552h-1.263v-4.506h-1.895l-.039 1.166q-.014.73-.11 1.453a4.5 4.5 0 0 1-.277 1.07 1.5 1.5 0 0 1-.497.675c-.234.16-.513.24-.797.23q-.15 0-.299-.024a7 7 0 0 1-.333-.062l.079-1.087a.8.8 0 0 0 .228.031.6.6 0 0 0 .507-.26c.141-.238.229-.503.259-.778q.088-.603.103-1.213zm9.853 2.277q-.546-.451-1.548-.453h-1.406V13.96h-1.271v5.553h2.495q1.066 0 1.666-.492.606-.491.607-1.444 0-.896-.543-1.341zm-1.028 2.078a1.13 1.13 0 0 1-.773.247h-1.161v-1.826h1.161c.273-.017.544.056.773.206a.75.75 0 0 1 .285.66.88.88 0 0 1-.285.713m-40.647-2.92a1.22 1.22 0 0 0-.538-1.063q-.534-.374-1.498-.373h-2.577v5.553h2.724q1.05 0 1.595-.412a1.36 1.36 0 0 0 .553-1.15 1.25 1.25 0 0 0-.514-1.08 1.7 1.7 0 0 0-.52-.252q.141-.069.268-.16a1.25 1.25 0 0 0 .507-1.063m-3.338-.484h1.191a.96.96 0 0 1 .63.175.58.58 0 0 1 .213.5.62.62 0 0 1-.212.507 1 1 0 0 1-.63.167h-1.192zm2.075 3.476c-.2.128-.435.188-.671.172h-1.404v-1.399h1.404a1.1 1.1 0 0 1 .671.175.58.58 0 0 1 .228.515.63.63 0 0 1-.228.54zm-4.59-1.182a1.33 1.33 0 0 1 .018 1.467 1.7 1.7 0 0 1-.569.525 2.9 2.9 0 0 1-.83.317c-.326.07-.66.1-.994.087a4.8 4.8 0 0 1-1.05-.151 4 4 0 0 1-1.01-.428l.387-.921a3.15 3.15 0 0 0 1.555.46c.24.009.48-.018.712-.08.19-.044.365-.133.513-.26a.57.57 0 0 0 .193-.445.5.5 0 0 0-.261-.466 1.33 1.33 0 0 0-.694-.158h-1.354v-.964H74.8a.98.98 0 0 0 .6-.16.5.5 0 0 0 .166-.194.5.5 0 0 0 .06-.248.49.49 0 0 0-.157-.39 1 1 0 0 0-.423-.213 2.2 2.2 0 0 0-.608-.062 3 3 0 0 0-.704.11 3.4 3.4 0 0 0-.694.286l-.387-.991a3.9 3.9 0 0 1 1.13-.389 4 4 0 0 1 1.16-.054c.349.025.69.11 1.01.252.277.116.523.295.717.525.181.218.276.494.27.778a1.26 1.26 0 0 1-.206.705 1.33 1.33 0 0 1-.58.473h-.012q.083.028.16.066c.257.107.476.285.633.515zm-6.576 2.307v-3.61l-2.64 3.61h-1.206v-5.553h1.27v3.617l2.636-3.617h1.202v5.553zm-14.921-1.532h1.114c.437.011.87-.07 1.274-.237.338-.147.627-.39.83-.698a2.12 2.12 0 0 0 0-2.15 1.85 1.85 0 0 0-.83-.69 3 3 0 0 0-1.278-.247h-2.385v5.554h1.279zm0-2.974h1.046a1.32 1.32 0 0 1 .884.253.9.9 0 0 1 .277.715.9.9 0 0 1-.293.708 1.32 1.32 0 0 1-.883.252H55.42zm-6.418 4.506h-1.272v-5.553h5.028v5.553h-1.263v-4.506h-2.493zm30.118-10.39h-1.207V3.571h1.271v3.617l2.636-3.617h1.2v5.553h-1.263v-3.61zM78.942 2h.877a.6.6 0 0 0 .166.435.73.73 0 0 0 .49.142.72.72 0 0 0 .481-.142.58.58 0 0 0 .172-.435h.88a1.14 1.14 0 0 1-.386.896q-.372.317-1.16.317-.79 0-1.161-.317A1.15 1.15 0 0 1 78.943 2m24.514 7.124h-1.207V3.571h1.271v3.617l2.636-3.617h1.199v5.553h-1.263v-3.61zM103.266 2h.876q-.004.121.038.235a.6.6 0 0 0 .129.2.73.73 0 0 0 .489.142.72.72 0 0 0 .482-.142.57.57 0 0 0 .172-.435h.876a1.14 1.14 0 0 1-.387.896q-.37.317-1.16.317t-1.161-.317a1.2 1.2 0 0 1-.276-.409 1.2 1.2 0 0 1-.078-.487m-3.657 3.514-2.638 3.61h-1.207V3.571h1.27v3.617l2.639-3.617h1.199v5.553h-1.263zm-8.218 3.61h-1.27V3.571h1.27v2.245h.92l1.45-2.245h1.353l-1.808 2.682 1.855 2.871H93.71l-1.44-2.237h-.881zm-7.14-1.627a2.9 2.9 0 0 1-.221-1.15 2.9 2.9 0 0 1 .22-1.151c.148-.347.365-.66.638-.918.274-.256.596-.455.948-.583.383-.149.79-.223 1.201-.22.445-.007.886.08 1.296.253.381.16.717.41.979.731l-.822.762a1.9 1.9 0 0 0-.63-.484 1.7 1.7 0 0 0-.759-.167 1.9 1.9 0 0 0-.712.128 1.6 1.6 0 0 0-.56.364 1.8 1.8 0 0 0-.372.563 2 2 0 0 0-.126.721c-.004.247.039.493.126.724.083.21.206.403.362.567.16.16.35.283.56.364.228.087.47.13.712.128.262.002.52-.052.759-.16a1.9 1.9 0 0 0 .63-.499l.822.75a2.56 2.56 0 0 1-.979.739 3.2 3.2 0 0 1-1.303.255 3.4 3.4 0 0 1-1.192-.208 2.82 2.82 0 0 1-1.578-1.509M72.644 9.124H71.44V3.571h1.27v3.617l2.64-3.617h1.2v5.553h-1.264v-3.61zm-5.516-.11a2.82 2.82 0 0 1-1.574-1.512 2.9 2.9 0 0 1-.22-1.152 2.9 2.9 0 0 1 .22-1.15 2.77 2.77 0 0 1 1.586-1.507 3.3 3.3 0 0 1 1.193-.214c.445-.008.886.076 1.296.25.381.158.717.41.979.73l-.82.762a1.9 1.9 0 0 0-.633-.484 1.7 1.7 0 0 0-.758-.167 2 2 0 0 0-.712.128c-.21.08-.4.204-.559.364a1.7 1.7 0 0 0-.371.563 2.1 2.1 0 0 0 0 1.445c.085.21.212.402.371.563.16.16.35.284.56.364.227.087.468.13.711.128.261.002.52-.052.758-.16.244-.12.46-.29.633-.499l.818.754a2.55 2.55 0 0 1-.979.739 3.2 3.2 0 0 1-1.303.255 3.4 3.4 0 0 1-1.192-.2zm-7.19-1.517a2.9 2.9 0 0 1-.221-1.15 2.9 2.9 0 0 1 .22-1.151 2.77 2.77 0 0 1 1.586-1.507 3.3 3.3 0 0 1 1.194-.214c.447-.008.891.078 1.303.253.377.161.709.412.967.731l-.82.762a1.9 1.9 0 0 0-.632-.484 1.7 1.7 0 0 0-.757-.167 1.9 1.9 0 0 0-.711.128 1.6 1.6 0 0 0-.561.364 1.7 1.7 0 0 0-.371.563 2.1 2.1 0 0 0 0 1.445c.084.212.21.405.37.567.16.16.351.284.562.364.227.087.468.13.712.128.26.002.518-.052.756-.16.243-.12.459-.29.632-.499l.82.75a2.55 2.55 0 0 1-.978.739 3.2 3.2 0 0 1-1.302.255 3.4 3.4 0 0 1-1.193-.208 2.82 2.82 0 0 1-1.572-1.508zm-6.022.906c.28.263.609.468.967.603.389.145.8.217 1.215.213a3.3 3.3 0 0 0 1.193-.213c.353-.133.677-.334.954-.591a2.77 2.77 0 0 0 .868-2.065 2.78 2.78 0 0 0-.868-2.054 2.8 2.8 0 0 0-.954-.603 3.47 3.47 0 0 0-2.4 0c-.359.135-.687.34-.967.603-.272.258-.49.568-.64.913a2.9 2.9 0 0 0-.22 1.143c-.005.392.07.78.22 1.141.149.344.364.654.632.914zm.569-2.778a1.68 1.68 0 0 1 .915-.927c.442-.169.93-.169 1.373 0 .206.08.392.205.545.365.16.16.283.352.364.562.092.23.137.476.133.723.004.247-.041.492-.133.722a1.62 1.62 0 0 1-.917.929 1.8 1.8 0 0 1-.679.126 1.9 1.9 0 0 1-.686-.126 1.7 1.7 0 0 1-.55-.362 1.8 1.8 0 0 1-.361-.564 2.1 2.1 0 0 1 0-1.444zM49.02 7.592h1.114c.439.012.875-.069 1.28-.237a1.85 1.85 0 0 0 1.12-1.769 1.94 1.94 0 0 0-.292-1.078 1.85 1.85 0 0 0-.83-.69 3 3 0 0 0-1.278-.247h-2.392v5.553h1.28zm0-2.974h1.043c.315-.025.63.066.884.255a.9.9 0 0 1 .292.715.88.88 0 0 1-.292.706 1.32 1.32 0 0 1-.884.255h-1.04z" clip-rule="evenodd"/></svg>