<svg xmlns="http://www.w3.org/2000/svg" width="110" height="32" fill="none" viewBox="0 0 110 32"><g fill="#A6A5B7" clip-path="url(#a)"><path d="M5.659 13.535h14.49l5.553 5.822h6.769l-5.659-5.822c3.385-.21 5.13-1.837 5.13-4.67V5.142c0-3.043-2.062-4.616-5.923-4.616H.106L.053 19.357h5.553v-5.822zm0-8.709h19.25q.872 0 1.269.315.317.236.317.787v2.098c0 .84-.423 1.207-1.375 1.207H5.711V4.826zM99 .472H77.846v18.885H99c5.923 0 10.736-3.777 10.736-8.445V8.918c0-4.669-4.813-8.446-10.736-8.446m5.183 10.492c0 2.256-2.327 4.04-5.183 4.04H83.4V4.878H99c2.856 0 5.183 1.836 5.183 4.04zM38.976 5.193v9.39c0 3.095 2.063 4.774 5.976 4.774h25.914v-4.354H45.85c-.952 0-1.375-.367-1.375-1.154V5.928c0-.787.423-1.102 1.48-1.102 8.304 0 16.607 0 24.857.053V.524h-25.86c-3.86-.052-5.976 1.574-5.976 4.67"/><path d="M67.64 11.803V8.026H47.754v3.777zM31.043 28.328h-2.856c-1.375 0-1.64-.262-1.64-.997 0-.787.265-1.154 1.429-1.154h3.12c1.27 0 1.64.472 1.64 1.154h.687c0-1.206-.74-1.783-2.168-1.783h-3.28c-1.427 0-2.115.524-2.115 1.783 0 1.05.423 1.626 2.116 1.626h3.226c1.216 0 1.533.315 1.533 1.154 0 .84-.476 1.155-1.48 1.155h-3.068c-1.269 0-1.64-.472-1.64-1.154h-.687c0 1.259.794 1.836 2.116 1.836h3.332c1.48 0 2.115-.525 2.115-1.784 0-1.364-.74-1.836-2.38-1.836m12.27-2.833H40.51c-1.798 0-2.38.63-2.38 2.308v1.994c0 1.626.634 2.203 2.38 2.203h2.803c1.692 0 2.326-.367 2.326-2.203v-1.994c0-1.888-.793-2.308-2.326-2.308m1.639 4.25c0 1.258-.317 1.573-1.64 1.573H40.51c-1.27 0-1.745-.315-1.745-1.574v-2.046c0-1.259.528-1.573 1.745-1.573h2.803c1.269 0 1.639.314 1.639 1.573zm6.135-4.197h-.635v6.4h5.5v-.63h-4.865zm16.5 4.459c0 .891-.424 1.311-1.64 1.311h-2.856c-1.375 0-1.745-.42-1.745-1.311v-4.46h-.687v4.197c0 1.732.74 2.204 2.38 2.204h2.802c1.481 0 2.327-.42 2.327-2.204v-4.196h-.687v4.459zm5.077-3.777h3.12v5.718h.687V26.23h3.12v-.682h-6.927zm12.48-.682h-.687v6.4h.687zm10.419-.053H92.76c-1.798 0-2.38.63-2.38 2.308v1.994c0 1.626.635 2.203 2.38 2.203h2.803c1.692 0 2.326-.367 2.326-2.203v-1.994c0-1.888-.74-2.308-2.326-2.308m1.692 4.25c0 1.258-.317 1.573-1.64 1.573h-2.802c-1.27 0-1.746-.315-1.746-1.574v-2.046c0-1.259.53-1.573 1.746-1.573h2.802c1.27 0 1.64.314 1.64 1.573zm11.793 1.573-4.971-5.77h-1.481v6.4h.688v-5.876h.37l5.077 5.876h1.005v-6.4h-.688z"/></g><defs><clipPath id="a"><path fill="#fff" d="M0 0h110v32H0z"/></clipPath></defs></svg>