<svg xmlns="http://www.w3.org/2000/svg" width="190" height="32" fill="none" viewBox="0 0 190 32"><path fill="#A6A5B7" d="M9.756 25.6q-3.658 0-6.167-1.548Q1.079 22.468 0 19.647l4.809-2.752q1.463 3.337 5.122 3.337 3.31 0 3.31-1.961 0-1.101-1.08-1.652-1.116-.654-3.973-1.41-2.926-.792-4.947-2.271-2.23-1.79-2.23-5.058-.001-3.338 2.404-5.334Q5.854.551 9.199.551q2.997 0 5.296 1.41 2.3 1.377 3.624 4.026l-4.704 2.718Q12.091 5.918 9.2 5.918q-1.22 0-1.917.516-.696.516-.696 1.308 0 .86.836 1.548.906.688 3.554 1.446l2.265.722q.87.275 2.02.93 1.255.619 1.882 1.341 1.674 1.79 1.673 4.473 0 3.406-2.509 5.437-2.508 1.96-6.55 1.961M31.127 7.914v4.955h-3.589v6.09q0 .997.801 1.308.802.274 2.788.172v4.68q-4.948.515-6.9-.93-1.916-1.48-1.916-5.23v-6.09h-2.787V7.914h2.787V4.645l5.227-1.548v4.817zM48.66 22.985Q46.01 25.6 42.108 25.6q-3.903 0-6.551-2.615-2.683-2.65-2.683-6.469 0-3.785 2.683-6.434t6.55-2.65q3.87 0 6.551 2.65 2.684 2.649 2.683 6.434 0 3.82-2.683 6.469M38.1 16.516q0 1.79 1.15 2.925t2.857 1.135 2.857-1.135 1.15-2.925-1.15-2.925q-1.151-1.135-2.857-1.135-1.708 0-2.858 1.135t-1.15 2.925m31.113 6.469q-2.648 2.615-6.55 2.615-3.903 0-6.551-2.615-2.683-2.65-2.683-6.469 0-3.785 2.683-6.434t6.55-2.65q3.869 0 6.551 2.65t2.683 6.434q0 3.82-2.683 6.469m-10.558-6.469q0 1.79 1.15 2.925 1.151 1.135 2.857 1.135 1.708 0 2.858-1.135t1.15-2.925-1.15-2.925-2.858-1.135-2.857 1.135-1.15 2.925m21.424 8.602h-5.227V0h5.227zm24.557-11.939h12.196v1.445q0 4.713-3.276 7.845-3.275 3.096-8.676 3.097-5.575 0-9.234-3.613-3.623-3.682-3.623-8.878t3.623-8.843Q99.305.585 104.81.585q3.345 0 6.202 1.617 2.892 1.618 4.355 4.198l-2.787 1.617q-1.046-1.96-3.171-3.131-2.126-1.204-4.634-1.204-4.217 0-6.865 2.718-2.682 2.718-2.683 6.675t2.683 6.676q2.718 2.683 7.004 2.683 3.59 0 5.854-1.72 2.3-1.755 2.822-4.645h-8.955zm18.854-5.265v2.89q1.499-3.2 5.436-3.2v3.132q-2.23-.105-3.833 1.17-1.603 1.272-1.603 4.094v9.118h-3.031V7.914zm22.154 15.036q-2.649 2.616-6.516 2.616t-6.516-2.615q-2.648-2.616-2.648-6.435t2.648-6.434 6.516-2.615 6.516 2.615q2.682 2.649 2.683 6.434t-2.683 6.435m-6.516-.31q2.613 0 4.39-1.754t1.777-4.37-1.777-4.37-4.39-1.755q-2.578 0-4.356 1.755-1.777 1.755-1.777 4.37t1.777 4.37q1.778 1.755 4.356 1.755m24.794-5.61V7.914h3.031v17.204h-3.031v-2.477q-1.812 2.925-5.645 2.925-3.066 0-4.913-1.893-1.847-1.926-1.847-5.196V7.914h3.031v10.391q0 2.065 1.15 3.235t3.171 1.17q2.335 0 3.694-1.411 1.359-1.445 1.359-4.267m17.263-9.565q3.659 0 6.238 2.65 2.578 2.648 2.578 6.4 0 3.783-2.578 6.434-2.544 2.615-6.238 2.615-4.32 0-6.585-3.407V32h-3.032V7.914h3.032v2.96q2.265-3.408 6.585-3.407m-.383 15.208q2.613 0 4.39-1.755 1.778-1.822 1.778-4.404 0-2.615-1.778-4.37-1.777-1.79-4.39-1.789-2.647 0-4.425 1.79-1.777 1.755-1.777 4.37 0 2.58 1.777 4.403 1.777 1.755 4.425 1.755"/></svg>