<svg xmlns="http://www.w3.org/2000/svg" width="210" height="32" fill="none" viewBox="0 0 210 32"><path fill="#A6A5B7" d="M14.382 2.129h116.657l-11.361 26.105c-.576 1.349-1.696 1.895-3.048 1.895H.04L11.432 3.912c.455-1.103 1.519-1.783 2.949-1.783m120.899 0h73.759l-11.27 26.105c-.583 1.349-1.683 1.895-3.037 1.895h-73.693l11.325-26.217c.451-1.103 1.507-1.783 2.916-1.783"/><path fill="#F7F7F8" d="m202.308 7.324-.333.01-.199.729h.343c.244-.011.555-.045.643-.364.067-.284-.199-.375-.454-.375m.144-.274c.388 0 .743.24.654.672-.078.318-.31.546-.632.569l.233.967h-.41l-.189-.933h-.399l-.255.955h-.41l.598-2.218zm1.33 1.127c0-.24-.055-.478-.144-.694a1.6 1.6 0 0 0-.377-.57 1.7 1.7 0 0 0-.576-.386 1.9 1.9 0 0 0-.677-.125 1.9 1.9 0 0 0-.665.148 1.5 1.5 0 0 0-.543.387c-.167.17-.3.375-.388.603a2 2 0 0 0-.122.682 1.77 1.77 0 0 0 .532 1.24c.166.171.355.296.577.387.21.091.432.125.654.125.233 0 .454-.045.665-.147a1.7 1.7 0 0 0 .577-.399c.166-.159.288-.352.365-.569.089-.216.122-.443.122-.682m-1.785-2.048a2.02 2.02 0 0 1 1.442.592c.188.193.332.41.443.66.1.25.155.5.155.773a1.9 1.9 0 0 1-.133.796c-.088.25-.232.467-.421.66-.2.205-.41.364-.665.467-.233.114-.488.17-.754.17a1.8 1.8 0 0 1-.765-.147 2 2 0 0 1-.654-.444c-.2-.194-.344-.41-.455-.66-.1-.25-.155-.5-.155-.774a1.8 1.8 0 0 1 .144-.796q.15-.375.432-.683c.178-.205.388-.352.621-.455.233-.102.488-.148.765-.16m-59.03.933a478 478 0 0 0-5.777 13.414c2.617.034 5.256 0 7.872-.057a96 96 0 0 0-2.04 4.71c-4.513-.08-9.07-.08-13.66 0a591 591 0 0 0 7.795-18.067c1.929.034 3.858.034 5.81 0m16.121 0a817 817 0 0 0-7.795 18.067 490 490 0 0 0-5.787 0A633 633 0 0 0 153.3 7.062q2.895.068 5.788 0m21.399 0a799 799 0 0 0-7.794 18.067 253 253 0 0 0-5.888 0 183 183 0 0 0-1.896-8.954c-.078-.307-.188-.91-.188-1.251-.078.34-.322.944-.455 1.251a346 346 0 0 0-3.803 8.954c-1.929-.023-3.87-.023-5.81 0a1019 1019 0 0 0 7.795-18.067c1.951.045 3.891.045 5.832 0 .621 2.98 1.297 5.962 2.018 8.942.066.273.177.797.177 1.104.089-.33.277-.82.399-1.104a263 263 0 0 0 3.803-8.942c1.952.034 3.892.034 5.81 0m4.435 10.91c-.366.797-.676 1.616-1.02 2.447 3.26.034 6.52.034 9.768 0q-1.063 2.355-2.029 4.71c-5.2-.057-10.389-.057-15.589 0a681 681 0 0 0 7.806-18.067 492 492 0 0 0 15.334 0q-1.065 2.355-2.029 4.71a296 296 0 0 0-9.535 0c-.344.75-.71 1.536-1.031 2.275 2.738.046 5.532.012 8.271-.022-.599 1.32-1.175 2.65-1.719 3.97-2.738-.022-5.488-.056-8.227-.022M40.916 13.865q3.21.018 6.42 0a311 311 0 0 0-4.79 11.264q-3.21-.051-6.42 0a544 544 0 0 0 4.79-11.264"/><path fill="#F7F7F8" d="M56.483 7.04a196 196 0 0 0-2.14 5.05 4687 4687 0 0 0-33.496 0c-1.197.012-1.496 1.741-.731 1.753 2.672.034 5.355.034 8.027 0 3.581 0 5.012 2.605 3.703 5.677-1.596 3.743-4.013 5.586-8.105 5.586a633 633 0 0 0-14.702 0 110 110 0 0 0 2.151-5.051c4.49.045 8.981.045 13.483 0 1.386-.035 1.74-1.73.731-1.753a537 537 0 0 0-8.548 0c-3.859 0-3.992-3.39-2.85-6.063 1.386-3.266 4.092-5.2 7.64-5.2q17.443.051 34.837 0m13.294 6.804c.244-.58.466-1.16.699-1.752q-2.91-.034-5.821 0c-1.275 0-2.296.58-2.772 1.809a484 484 0 0 0-4.757 11.206c-2.14-.034-4.28-.023-6.42 0a452 452 0 0 0 5.045-11.957c1.53-3.789 4.07-6.11 8.582-6.11 4.9.046 9.813.046 14.713 0a1050 1050 0 0 0-7.683 18.067 302 302 0 0 0-6.409 0c.931-2.139 1.874-4.29 2.772-6.428-2.04-.034-4.125-.034-6.165 0 .577-1.343 1.153-2.674 1.697-4.005.288-.637.71-.83 1.397-.83 1.707.011 3.437.011 5.122 0m10.678 11.263a447 447 0 0 1 5.521-13.015c2.805-.023 5.61-.035 8.416 0 1.053.022.499 1.774-.532 1.752-2.484.045-4.801.045-7.285 0q.313 5.632.443 11.263c2.351-.034 4.702-.034 7.063 0-.31-1.854-.576-3.709-.787-5.575-.033-.261-.078-.66-.21-.944.21.148.587.16.809.148 3.226-.125 5.222-1.639 6.597-4.073 1.807-3.174.976-7.623-3.803-7.623-5.489.057-9.48.057-14.98 0a1049 1049 0 0 1-7.672 18.067q3.194-.034 6.42 0m27.73-11.241q3.21.051 6.419 0a617 617 0 0 0-4.789 11.264q-3.21-.018-6.42 0a408 408 0 0 0 4.79-11.264m-3.193-6.803q9.38.051 18.76 0a195 195 0 0 0-2.14 5.051c-6.254-.08-12.518-.08-18.771 0a121 121 0 0 0 2.151-5.051"/></svg>