<svg xmlns="http://www.w3.org/2000/svg" width="124" height="32" fill="none" viewBox="0 0 124 32"><path fill="#A6A5B7" fill-rule="evenodd" d="M26.69 31.266h6.403V9.394H26.69zM29.86 0c-2.03 0-3.693 1.526-3.693 3.464 0 1.967 1.662 3.494 3.694 3.494 2.063 0 3.664-1.586 3.664-3.494C33.525 1.526 31.924 0 29.86 0m-6.37 3.493h-7.142L6.71 15.941V3.493H0v27.773h6.711V17.732l9.79 13.534h7.757L13.422 16.264zm21.887-.704h-6.403v18.789c0 7.633 2.802 9.688 8.928 9.688h3.048v-4.932h-.955c-3.571 0-4.556-.705-4.618-5.108v-6.87h6.034V9.394h-6.034zm50.24 16.264v12.213h6.404v-10.54c0-3.288.184-6.253 5.51-6.253h1.724V9.394h-3.571c-6.865 0-9.974 3.112-10.066 9.66M55.63 11.949v19.318h6.403v-16.91h6.126V9.394H62.03V9.16c0-3.2 2.278-3.788 5.818-3.788h1.693V.646h-1.477c-6.988 0-12.437.734-12.437 11.302m30.168 8.573c0-3.552-.892-6.9-4.833-6.9-4.217 0-4.833 3.436-4.833 6.46 0 3.552.893 6.899 4.833 6.899 4.218 0 4.833-3.435 4.833-6.459m6.527-.352C92.415 27.215 88.783 32 80.963 32c-7.727 0-11.328-4.638-11.36-11.538-.092-7.046 3.54-11.831 11.36-11.831 7.727 0 11.329 4.639 11.36 11.538m25.643-5.813v6.87c.062 4.403 1.047 5.108 4.618 5.108h.954v4.932h-3.047c-6.126 0-8.928-2.055-8.928-9.688V2.788h6.403v6.606H124v4.962z" clip-rule="evenodd"/></svg>