<svg xmlns="http://www.w3.org/2000/svg" width="157" height="32" fill="none" viewBox="0 0 157 32"><path fill="#A6A5B7" d="M97.892 29.98c-5.939 0-10.656-3.533-12.296-9.227-1.104-3.818-.954-7.469.452-10.835 1.89-4.521 5.27-7.15 10.038-7.804a16 16 0 0 1 1.957-.134c2.794 0 5.504.804 8.265 2.479.602.368 1.187.77 1.756 1.155.268.185.536.369.803.536l-2.108 2.663a20 20 0 0 0-.987-.636c-.736-.47-1.439-.921-2.191-1.307-1.824-.97-3.698-1.457-5.571-1.457-.837 0-1.69.101-2.527.285-3.011.687-5.136 2.596-6.324 5.677-1.054 2.73-1.137 5.577-.25 8.49 1.288 4.204 4.383 6.582 8.732 6.7h.302c2.643 0 5.119-.872 7.829-2.764.218-.15.435-.301.653-.469l.317-.234 2.125 2.73c-.284.184-.569.384-.853.569a38 38 0 0 1-1.924 1.239c-2.192 1.306-4.484 2.076-6.826 2.278-.468.033-.92.066-1.372.066m52.175 0h-3.383V5.473h-6.817V1.98h17v3.458h-6.8zm-18.64-.017h3.44V1.98c-1.028 0-2.023 0-3.035.018-.101 0-.219.12-.304.222-2.495 3.323-4.974 6.628-7.469 9.95-2.85 3.802-5.717 7.62-8.566 11.423-.051.068-.102.137-.22.257V2.015h-3.406v27.948c.101 0 .203.017.304.017h2.546a.55.55 0 0 0 .489-.24c5.278-7.055 10.572-14.093 15.85-21.15.102-.136.203-.273.371-.479zM48.49 20.824H37.653c-.278 0-.408.086-.523.36a1850 1850 0 0 1-3.509 8.471c-.163.308-.44.308-.44.308h-3.314s.114-.308.163-.445c3.379-8.163 6.758-16.327 10.12-24.491.375-.907.767-1.831 1.126-2.738.147-.309.44-.309.44-.309h2.253s.326 0 .457.309c1.91 4.603 3.82 9.225 5.712 13.828C52 20.62 53.876 25.12 55.737 29.638c.049.103.13.342.13.342h-3.493s-.114 0-.244-.273c-.147-.326-.262-.634-.408-.959-.278-.838-2.97-7.308-3.232-7.924m-1.42-3.509c-1.387-3.354-2.758-6.674-4.162-10.063-1.404 3.389-2.775 6.709-4.162 10.063zM.871 29.93c1.107-2.572 2.197-5.108 3.287-7.628 2.75-6.358 5.5-12.716 8.25-19.058.147-.36.293-.72.456-1.045.049-.103.212-.206.31-.206a56 56 0 0 1 2.391 0c.114 0 .277.12.326.24 2.44 5.622 4.865 11.243 7.29 16.865 1.513 3.496 3.01 6.975 4.523 10.454.05.12.098.24.163.428h-2.815c-.65 0-.927-.17-1.188-.788-3.108-7.267-6.248-14.533-9.373-21.8a1.3 1.3 0 0 0-.13-.257c-.618 1.44-1.22 2.845-1.839 4.25-2.62 6.084-5.256 12.186-7.892 18.287-.13.291-.341.291-.341.291H1.002s-.163 0-.13-.034m65.108.051h-8.113V13.874c0-4.453 1.226-7.894 3.544-9.918 1.83-1.602 4.249-2.243 6.987-1.872 2.065.287 3.745 1.248 4.853 2.817 1.428 2.007 1.63 4.537 1.562 6.29 1.411.17 3.275.676 4.736 2.025 1.529 1.4 2.318 3.356 2.318 5.819-.017 6.848-5.945 10.947-15.888 10.947m-4.687-3.457h4.67c3.745 0 12.444-.726 12.444-7.506 0-1.467-.386-2.53-1.175-3.255-1.529-1.417-4.165-1.215-4.182-1.215l-2.284.203.436-2.26c.185-.979.42-3.913-.772-5.6-.554-.776-1.377-1.231-2.503-1.383-1.763-.236-3.19.118-4.266 1.062-1.545 1.35-2.368 3.88-2.368 7.32z"/></svg>