<svg xmlns="http://www.w3.org/2000/svg" width="108" height="90" fill="none" viewBox="0 0 108 90"><path fill="url(#a)" d="M106.696 11.452 73.179.204h-1.117l-36.683 11.06L2.421.205C1.862-.17 1.303.017.745.392.372.767 0 1.329 0 1.892v74.986c0 .75.559 1.5 1.304 1.687L34.82 89.813c.186 0 .372.187.559.187h.558L72.62 78.752l32.958 11.06c.187 0 .373.188.559.188.372 0 .745-.187 1.117-.375.559-.375.745-.937.745-1.5V13.14c0-.75-.559-1.5-1.304-1.687m-73.179 74.05L3.724 75.565V4.516l29.793 9.936zM67.034 65.63c0 .75-.558 1.5-1.303 1.687l-22.345 7.498c-.186.188-.372.188-.559.188-.372 0-.744-.188-1.117-.375-.372-.375-.745-.938-.745-1.5V54.382c0-.75.559-1.5 1.304-1.687l22.345-7.498c.558-.188 1.117-.188 1.676.187s.744.938.744 1.5zm0-29.995c0 .75-.558 1.5-1.303 1.687l-22.345 7.499c-.186.187-.372.187-.559.187-.372 0-.744-.187-1.117-.375-.372-.375-.745-.937-.745-1.5V24.389c0-.75.559-1.5 1.304-1.687l22.345-7.498c.558-.188 1.117-.188 1.676.187s.744.937.744 1.5zM104.276 85.5l-29.793-9.935V4.516l29.793 9.936z"/><path fill="url(#b)" fill-rule="evenodd" d="m104.276 85.501-29.793-9.935V4.516l29.793 9.936zm-6.332-10.685-18.62-7.499c-.931-.375-1.304-1.5-1.118-2.25.373-1.124 1.49-1.499 2.421-1.124l18.62 7.499c1.118.375 1.49 1.5 1.118 2.437-.186.75-.931 1.124-1.676 1.124-.372 0-.558-.187-.745-.187m0-9.374-18.62-7.498c-.931-.375-1.304-1.5-1.118-2.25.373-1.125 1.49-1.5 2.421-1.125l18.62 7.499c1.118.375 1.49 1.5 1.118 2.437-.186.75-.931 1.125-1.676 1.125-.372 0-.558-.188-.745-.188m0-9.372-18.62-7.5c-.931-.374-1.304-1.499-1.118-2.249.373-1.124 1.49-1.5 2.421-1.124l18.62 7.498c1.118.375 1.49 1.5 1.118 2.437-.186.75-.931 1.125-1.676 1.125-.372 0-.558-.187-.745-.187m0-11.248-18.62-7.499c-.745-.187-1.118-.937-1.118-1.687V16.889c0-.562.373-1.124.931-1.5.373-.374 1.118-.374 1.676-.187l18.621 7.499c.745.187 1.117.937 1.117 1.687v18.746c0 .563-.186 1.125-.745 1.5-.372.188-.744.375-1.117.375-.372 0-.558-.187-.745-.187" clip-rule="evenodd"/><path fill="url(#c)" fill-rule="evenodd" d="M33.517 85.501 3.724 75.566V4.516l29.793 9.936zm-23.463-70.3 18.621 7.5c.931.374 1.303 1.499 1.117 2.624-.186.75-.93 1.124-1.676 1.124-.372 0-.558-.187-.744-.187L8.75 18.763c-1.117-.375-1.49-1.5-1.117-2.437.372-1.124 1.49-1.5 2.42-1.124m0 9.374 18.621 7.499c.931.375 1.303 1.5 1.117 2.624-.186.75-.93 1.125-1.676 1.125-.372 0-.558-.187-.744-.187l-18.621-7.5c-1.117-.375-1.49-1.5-1.117-2.437.372-1.125 1.49-1.5 2.42-1.125m0 9.373 18.621 7.499c.931.375 1.303 1.5 1.117 2.624-.186.75-.93 1.125-1.676 1.125-.372 0-.558-.188-.744-.188L8.75 37.51c-1.117-.375-1.49-1.5-1.117-2.437.372-1.125 1.49-1.5 2.42-1.125m0 11.248 18.621 7.499c.745.187 1.117.937 1.117 1.687v18.746c0 .563-.186 1.125-.745 1.5-.372.187-.744.375-1.117.375-.372 0-.558-.188-.745-.188l-18.62-7.498c-.745-.188-1.118-.938-1.118-1.687V46.883c0-.562.373-1.125.931-1.5.373-.375 1.118-.375 1.676-.187" clip-rule="evenodd"/><defs><linearGradient id="a" x1="98.28" x2="19.0658" y1="1.38829e-06" y2="104.458" gradientUnits="userSpaceOnUse"><stop stop-color="#EB5858"/><stop offset="0.491918" stop-color="#A05ED4"/><stop offset="1" stop-color="#6124C5"/></linearGradient><linearGradient id="b" x1="98.28" x2="19.0658" y1="1.38829e-06" y2="104.458" gradientUnits="userSpaceOnUse"><stop stop-color="#EB5858"/><stop offset="0.491918" stop-color="#A05ED4"/><stop offset="1" stop-color="#6124C5"/></linearGradient><linearGradient id="c" x1="98.28" x2="19.0658" y1="1.38829e-06" y2="104.458" gradientUnits="userSpaceOnUse"><stop stop-color="#EB5858"/><stop offset="0.491918" stop-color="#A05ED4"/><stop offset="1" stop-color="#6124C5"/></linearGradient></defs></svg>