<svg xmlns="http://www.w3.org/2000/svg" width="86" height="90" fill="none" viewBox="0 0 86 90"><path fill="url(#a)" d="M23.213 24.772c.22-.36.533-.743.8-1.078 1.604-2.004 3.15-4.12 4.767-6.094.446.01.946.066 1.398.09l5.739.272c.59.021 1.392.027 1.958.104-.86 1.038-4.992 6.76-5.483 7.098-1.041-.19-2.688-.113-3.799-.154l-3.142-.146c-.768-.041-1.464-.093-2.238-.092"/><path fill="url(#b)" d="M23.272 26.108c.425.007.918.083 1.345.145 2.556.37 4.92-.03 7.455.367.215.392.68 1.518.886 1.924l2.398 5.21c.276.525.538 1.109.754 1.64-1.34-.218-8.052-.861-8.593-1.115 0 0-1.245-2.391-1.763-3.377l-1.443-2.804c-.348-.688-.651-1.318-1.04-1.99"/><path fill="url(#c)" d="M38.894 18.943c-.271.326-.535.748-.767 1.11-1.385 2.175-3.23 3.7-4.582 5.875.157.417.71 1.503.885 1.923l2.317 5.033c.218.551.624 1.419.887 1.929.708-1.155 4.545-6.758 4.706-7.333 0 0-1.007-2.5-1.419-3.535l-1.19-2.919c-.297-.712-.579-1.352-.837-2.083"/><path fill="url(#d)" d="M46.633 20.587c1.834.56 12.046 7.494 14.403 8.853.403.232.715.53.8 1.012-.857.605-4.125 1.616-5.31 2.008.815 1.251 4.102 5.74 4.489 6.878l-.195.29c-.884.627-1.72 1.144-2.64 1.714-1.517-2.15-3.173-4.918-4.602-7.176-.828.865-3.436 4.375-4.375 4.355-.552-.539-.636-2.059-.713-2.867-.476-4.999-1.496-10.074-1.857-15.068"/><path fill="url(#e)" d="M33.167 78.25a5.87 5.87 0 0 1 5.639 1.83 5.82 5.82 0 0 1 1.14 5.802 5.85 5.85 0 0 1-4.527 3.817c-3.135.538-6.127-1.516-6.738-4.627-.612-3.112 1.38-6.14 4.486-6.822"/><path fill="url(#f)" d="M33.736 82.26a1.85 1.85 0 0 1 1.864.308 1.838 1.838 0 0 1-.66 3.169 1.85 1.85 0 0 1-2.278-1.162 1.84 1.84 0 0 1 1.074-2.316"/><path fill="url(#g)" d="M68.004 78.43c3.168-.585 6.214 1.492 6.815 4.647s-1.469 6.201-4.631 6.814c-3.182.618-6.261-1.462-6.866-4.637s1.494-6.235 4.682-6.824"/><path fill="url(#h)" d="M68.405 82.465a1.85 1.85 0 0 1 1.84.284 1.836 1.836 0 0 1-.54 3.159 1.847 1.847 0 0 1-2.35-1.083 1.84 1.84 0 0 1 1.05-2.36"/><path fill="url(#i)" fill-rule="evenodd" d="M68.148 10.85a1.75 1.75 0 0 0-2.037 1.405L63.885 24.3a1.75 1.75 0 0 0 1.4 2.036l13.75 2.526a1.75 1.75 0 0 0 2.037-1.405L83.3 15.412a1.75 1.75 0 0 0-1.401-2.037zm3.08 5.574a1.084 1.084 0 0 1 1.164-.756c.167.02.327.08.467.173.399.265 1.236.851 2.27 1.733q1.093.924 2.071 1.97a1.08 1.08 0 0 1 .07 1.386 1.1 1.1 0 0 1-.385.317q-1.287.629-2.638 1.102-1.347.488-2.742.815a1.077 1.077 0 0 1-1.316-1.124q.105-1.428.368-2.836c.247-1.334.529-2.322.67-2.78" clip-rule="evenodd"/><path fill="url(#j)" d="M46.271 6.994c.096.31.425.483.735.388l1.76-.54a1.92 1.92 0 0 1-1.364 1.82 1.94 1.94 0 0 1-2.416-1.274 1.92 1.92 0 0 1 .744-2.148z"/><path fill="url(#k)" d="M46.855 4.895a1.94 1.94 0 0 1 1.565.826l-1.197.367z"/><path fill="url(#l)" fill-rule="evenodd" d="M54.702.09a2.02 2.02 0 0 1 2.52 1.33l3.261 10.568A2.01 2.01 0 0 1 59.15 14.5l-11.634 3.567a2.02 2.02 0 0 1-2.52-1.33l-3.26-10.568a2.01 2.01 0 0 1 1.334-2.513zm-4.984 11.806a.586.586 0 0 0-.39.733l.742 2.401a.588.588 0 0 0 1.124-.344l-.741-2.402a.59.59 0 0 0-.735-.388m1.668-3.14a.586.586 0 0 0-.39.732l1.483 4.804a.589.589 0 0 0 1.124-.345l-1.482-4.804a.59.59 0 0 0-.735-.388m2.595-.139a.586.586 0 0 0-.39.733l1.297 4.203a.588.588 0 0 0 1.125-.345l-1.297-4.203a.59.59 0 0 0-.735-.388m2.038-1.94a.586.586 0 0 0-.389.733l1.667 5.404a.589.589 0 0 0 1.125-.345l-1.668-5.404a.59.59 0 0 0-.735-.388M45.92 3.86a3.1 3.1 0 0 0-1.833 1.512 3.1 3.1 0 0 0-.224 2.361 3.1 3.1 0 0 0 1.517 1.828 3.12 3.12 0 0 0 4.202-1.288 3.09 3.09 0 0 0-1.293-4.19 3.12 3.12 0 0 0-2.369-.223" clip-rule="evenodd"/><path fill="url(#m)" fill-rule="evenodd" d="M2.762 18.936c4.49.036 8.98.055 13.47.01 1.271 0 2.596.884 2.998 2.128 1.016 3.144 1.83 6.51 2.69 9.704l23.953.276 1.512 8.711s.428.625.84.838c.468.24 1.336.168 1.345.167l4.033-3.35 4.033 6.198 5.714-3.685-4.201-6.3 5.041-2.72 13.94.14c2.011.007 8.514-.809 7.818 2.58-.515 2.506-1.476 5.364-2.218 7.854l-4.285 14.768c-.468 1.707-1.538 7.615-3.466 7.762-12.674.969-25.488.779-38.192 1.491-2.41.261-5.486-.128-7.824.348-4.005.813-3.949 4.993-.655 6.938 3.66.229 8.7.108 12.445.126l23.439.114c3.189.026 6.472.003 9.654.012 3.487.01 3.12 3.86.714 3.98-2.063.104-4.64.023-6.753.013l-29.708-.142c-1.62-.007-9.962.138-11.125-.368-6.133-2.668-6.87-9.528-1.408-13.848-3.508-13.26-7.52-26.5-10.931-39.738-2.337-.028-13.782.395-15.015-.604-.36-.291-.57-.803-.611-1.254-.052-.581.124-1.207.563-1.614.604-.56 1.421-.512 2.19-.535m71.36 17.583a1.176 1.176 0 0 0-1.39.912L68.5 57.917a1.176 1.176 0 0 0 2.304.473l4.23-20.486a1.173 1.173 0 0 0-.914-1.385m-11.076 8.952a1.176 1.176 0 0 0-1.31 1.022L60.34 57.9a1.176 1.176 0 0 0 2.335.284l1.396-11.409a1.173 1.173 0 0 0-1.025-1.305M52.97 43.318c-.65 0-1.176.525-1.176 1.173v13.402c0 .647.527 1.172 1.176 1.172.65 0 1.177-.525 1.177-1.172V44.49c0-.648-.527-1.173-1.177-1.173m-9.094.815a1.176 1.176 0 0 0-2.328.345l2.007 13.428a1.176 1.176 0 0 0 2.327-.346zm-12.689-6.017a1.177 1.177 0 0 0-2.265.635l5.413 19.186A1.177 1.177 0 0 0 36.6 57.3z" clip-rule="evenodd"/><defs><linearGradient id="a" x1="78.26" x2="-3.90645" y1="1.38829e-06" y2="86.2798" gradientUnits="userSpaceOnUse"><stop stop-color="#EB5858"/><stop offset="0.491918" stop-color="#A05ED4"/><stop offset="1" stop-color="#6124C5"/></linearGradient><linearGradient id="b" x1="78.26" x2="-3.90645" y1="1.38829e-06" y2="86.2798" gradientUnits="userSpaceOnUse"><stop stop-color="#EB5858"/><stop offset="0.491918" stop-color="#A05ED4"/><stop offset="1" stop-color="#6124C5"/></linearGradient><linearGradient id="c" x1="78.26" x2="-3.90645" y1="1.38829e-06" y2="86.2798" gradientUnits="userSpaceOnUse"><stop stop-color="#EB5858"/><stop offset="0.491918" stop-color="#A05ED4"/><stop offset="1" stop-color="#6124C5"/></linearGradient><linearGradient id="d" x1="78.26" x2="-3.90645" y1="1.38829e-06" y2="86.2798" gradientUnits="userSpaceOnUse"><stop stop-color="#EB5858"/><stop offset="0.491918" stop-color="#A05ED4"/><stop offset="1" stop-color="#6124C5"/></linearGradient><linearGradient id="e" x1="78.26" x2="-3.90645" y1="1.38829e-06" y2="86.2798" gradientUnits="userSpaceOnUse"><stop stop-color="#EB5858"/><stop offset="0.491918" stop-color="#A05ED4"/><stop offset="1" stop-color="#6124C5"/></linearGradient><linearGradient id="f" x1="78.26" x2="-3.90645" y1="1.38829e-06" y2="86.2798" gradientUnits="userSpaceOnUse"><stop stop-color="#EB5858"/><stop offset="0.491918" stop-color="#A05ED4"/><stop offset="1" stop-color="#6124C5"/></linearGradient><linearGradient id="g" x1="78.26" x2="-3.90645" y1="1.38829e-06" y2="86.2798" gradientUnits="userSpaceOnUse"><stop stop-color="#EB5858"/><stop offset="0.491918" stop-color="#A05ED4"/><stop offset="1" stop-color="#6124C5"/></linearGradient><linearGradient id="h" x1="78.26" x2="-3.90645" y1="1.38829e-06" y2="86.2798" gradientUnits="userSpaceOnUse"><stop stop-color="#EB5858"/><stop offset="0.491918" stop-color="#A05ED4"/><stop offset="1" stop-color="#6124C5"/></linearGradient><linearGradient id="i" x1="78.26" x2="-3.90645" y1="1.38829e-06" y2="86.2798" gradientUnits="userSpaceOnUse"><stop stop-color="#EB5858"/><stop offset="0.491918" stop-color="#A05ED4"/><stop offset="1" stop-color="#6124C5"/></linearGradient><linearGradient id="j" x1="78.26" x2="-3.90645" y1="1.38829e-06" y2="86.2798" gradientUnits="userSpaceOnUse"><stop stop-color="#EB5858"/><stop offset="0.491918" stop-color="#A05ED4"/><stop offset="1" stop-color="#6124C5"/></linearGradient><linearGradient id="k" x1="78.26" x2="-3.90645" y1="1.38829e-06" y2="86.2798" gradientUnits="userSpaceOnUse"><stop stop-color="#EB5858"/><stop offset="0.491918" stop-color="#A05ED4"/><stop offset="1" stop-color="#6124C5"/></linearGradient><linearGradient id="l" x1="78.26" x2="-3.90645" y1="1.38829e-06" y2="86.2798" gradientUnits="userSpaceOnUse"><stop stop-color="#EB5858"/><stop offset="0.491918" stop-color="#A05ED4"/><stop offset="1" stop-color="#6124C5"/></linearGradient><linearGradient id="m" x1="78.26" x2="-3.90645" y1="1.38829e-06" y2="86.2798" gradientUnits="userSpaceOnUse"><stop stop-color="#EB5858"/><stop offset="0.491918" stop-color="#A05ED4"/><stop offset="1" stop-color="#6124C5"/></linearGradient></defs></svg>