<svg xmlns="http://www.w3.org/2000/svg" width="117" height="90" fill="none" viewBox="0 0 117 90"><path fill="url(#a)" d="M31.087 82.24c.003 2.383.172 4.298-1.582 6.147-3.246 3.175-8.737 1.401-9.497-3.044-.173-1.01-.136-2.153-.136-3.18V64.135h11.212z"/><path fill="url(#b)" d="M88.094 70.086c.809-.057 1.178.226 1.734.785l7.79 7.834c.704.72 2.484 2.276 2.836 3.22.349.94-.402 2.084-1.467 2.31-1.71.033-3.143-2.111-4.346-3.301-2.549-2.523-5.082-5.05-7.567-7.635-1.135-1.182-.748-2.928 1.02-3.213"/><path fill="url(#c)" d="M74.657 11.876c1.429-.14 2.21.728 2.212 2.115l-.003 55.017c-.005 1.141-.277 3.914-2.152 3.293-4.915-1.628-9.874-3.148-14.82-4.69l-19.473-6.092c-1.148-.35-2.541-.82-3.693-1.032-.05-.646-.004-2.001-.003-2.695l.003-5.57c1.43.548 2.929 1.218 4.35 1.814l6.885 2.834c2.798 1.08 4.533-2.006.991-3.57a257 257 0 0 0-12.226-5.003c-.064-.886-.003-2.732-.003-3.703l.003-7.648c4.168-1.544 9.232-3.799 13.21-5.782 1.5-.638.967-4.412-2.198-2.965-3.637 1.662-7.402 3.163-11.012 4.857V25.16c1.87-.734 3.513-1.28 5.384-1.933l19.654-6.877c3.886-1.353 8.968-3.543 12.891-4.474"/><path fill="url(#d)" fill-rule="evenodd" d="M18.276 25.63c1.417-.064 3.392-.002 4.839-.002l9.687.002c.058 3.827 0 7.8 0 11.64v23.217l-10.227.001c-1.677.003-3.398.243-4.93-.44-3.924-1.75-3.155-5.967-3.153-9.574v-17.27c0-3.496-.38-6.598 3.784-7.574m1.597 23.995c-1.856.21-2.314 2.329-.979 3.397.639.51 2.733.36 3.594.36l5.057-.005c2.115-.405 2.211-3.623-.134-3.71a76 76 0 0 0-2.865-.046zm8.63-8.872c-1.302-.927-6.939-.316-8.726-.498-1.785.512-2.447 2.785-.647 3.614.26.12 7.336.255 8.648.095 1.594-.189 2.011-2.296.726-3.21m-.762-9.395c-.739-.129-2.09-.069-2.882-.07l-4.986.005c-2.345.314-2.347 3.405-.025 3.581.89.067 1.798.045 2.69.045l5.007-.004c2.25-.275 2.178-3.213.196-3.557" clip-rule="evenodd"/><path fill="url(#e)" d="M100.169 50.936c1.415-.128 7.124 2.051 8.72 2.569l4.319 1.417c.642.214 1.958.593 2.509.935 1.43.887 1.116 2.823-.563 3.312-1.162.046-2.576-.58-3.688-.952l-9.543-3.107c-.582-.195-2.127-.635-2.545-.939-1.437-1.045-.86-2.86.791-3.235"/><path fill="url(#f)" d="M80.769 28.394c1.81.231 4.563 1.767 5.927 3.015 6.174 5.65 6.424 14.364.886 20.514-2.136 2.018-3.916 3.226-6.813 3.833-.032-.605-.002-1.468-.002-2.094V30.74c-.001-.454-.06-2.03.002-2.345"/><path fill="url(#g)" d="M8.26 33.056c.837-.009 1.69 0 2.527 0v17.88c-2.375.463-4.812.13-6.794-1.31-1.743-.52-3.69-4.043-3.904-5.776-.67-5.401 2.505-10.236 8.171-10.794"/><path fill="url(#h)" d="M115.154 25.16c1.898-.349 1.883 1.501 1.832 2.818-1.012.907-3.342 1.29-4.672 1.714l-6.255 1.97c-1.226.392-3.771 1.32-4.951 1.394-1.796.238-2.398-1.736-1.557-2.854.474-.63 3.05-1.3 3.843-1.54l8.992-2.761c.739-.225 2.051-.67 2.768-.742"/><path fill="url(#i)" d="M98.987.033c.878-.169 1.589.32 1.853 1.16.474 1.507-1.007 2.42-1.984 3.35L95.368 7.86c-1.382 1.312-5.76 6.04-7.274 6.362-1.6.168-2.595-1.726-1.602-2.934.515-.626 1.273-1.275 1.868-1.844l3.937-3.737C93.648 4.42 97.426.206 98.987.032"/><defs><linearGradient id="a" x1="106.47" x2="29.1745" y1="1.38829e-06" y2="110.422" gradientUnits="userSpaceOnUse"><stop stop-color="#EB5858"/><stop offset="0.491918" stop-color="#A05ED4"/><stop offset="1" stop-color="#6124C5"/></linearGradient><linearGradient id="b" x1="106.47" x2="29.1745" y1="1.38829e-06" y2="110.422" gradientUnits="userSpaceOnUse"><stop stop-color="#EB5858"/><stop offset="0.491918" stop-color="#A05ED4"/><stop offset="1" stop-color="#6124C5"/></linearGradient><linearGradient id="c" x1="106.47" x2="29.1745" y1="1.38829e-06" y2="110.422" gradientUnits="userSpaceOnUse"><stop stop-color="#EB5858"/><stop offset="0.491918" stop-color="#A05ED4"/><stop offset="1" stop-color="#6124C5"/></linearGradient><linearGradient id="d" x1="106.47" x2="29.1745" y1="1.38829e-06" y2="110.422" gradientUnits="userSpaceOnUse"><stop stop-color="#EB5858"/><stop offset="0.491918" stop-color="#A05ED4"/><stop offset="1" stop-color="#6124C5"/></linearGradient><linearGradient id="e" x1="106.47" x2="29.1745" y1="1.38829e-06" y2="110.422" gradientUnits="userSpaceOnUse"><stop stop-color="#EB5858"/><stop offset="0.491918" stop-color="#A05ED4"/><stop offset="1" stop-color="#6124C5"/></linearGradient><linearGradient id="f" x1="106.47" x2="29.1745" y1="1.38829e-06" y2="110.422" gradientUnits="userSpaceOnUse"><stop stop-color="#EB5858"/><stop offset="0.491918" stop-color="#A05ED4"/><stop offset="1" stop-color="#6124C5"/></linearGradient><linearGradient id="g" x1="106.47" x2="29.1745" y1="1.38829e-06" y2="110.422" gradientUnits="userSpaceOnUse"><stop stop-color="#EB5858"/><stop offset="0.491918" stop-color="#A05ED4"/><stop offset="1" stop-color="#6124C5"/></linearGradient><linearGradient id="h" x1="106.47" x2="29.1745" y1="1.38829e-06" y2="110.422" gradientUnits="userSpaceOnUse"><stop stop-color="#EB5858"/><stop offset="0.491918" stop-color="#A05ED4"/><stop offset="1" stop-color="#6124C5"/></linearGradient><linearGradient id="i" x1="106.47" x2="29.1745" y1="1.38829e-06" y2="110.422" gradientUnits="userSpaceOnUse"><stop stop-color="#EB5858"/><stop offset="0.491918" stop-color="#A05ED4"/><stop offset="1" stop-color="#6124C5"/></linearGradient></defs></svg>