<svg width="137" height="50" viewBox="0 0 137 50" fill="none" xmlns="http://www.w3.org/2000/svg">
<path d="M63.77 21V10.5H67.7C68.59 10.5 69.355 10.645 69.995 10.935C70.635 11.215 71.125 11.625 71.465 12.165C71.815 12.695 71.99 13.34 71.99 14.1C71.99 14.84 71.815 15.48 71.465 16.02C71.125 16.55 70.635 16.96 69.995 17.25C69.355 17.54 68.59 17.685 67.7 17.685H64.385L64.88 17.16V21H63.77ZM64.88 17.25L64.385 16.71H67.67C68.72 16.71 69.515 16.485 70.055 16.035C70.605 15.575 70.88 14.93 70.88 14.1C70.88 13.26 70.605 12.61 70.055 12.15C69.515 11.69 68.72 11.46 67.67 11.46H64.385L64.88 10.935V17.25ZM77.3343 21.075C76.5143 21.075 75.7943 20.905 75.1743 20.565C74.5543 20.215 74.0693 19.74 73.7193 19.14C73.3693 18.53 73.1943 17.835 73.1943 17.055C73.1943 16.275 73.3593 15.585 73.6893 14.985C74.0293 14.385 74.4893 13.915 75.0693 13.575C75.6593 13.225 76.3193 13.05 77.0493 13.05C77.7893 13.05 78.4443 13.22 79.0143 13.56C79.5943 13.89 80.0493 14.36 80.3793 14.97C80.7093 15.57 80.8743 16.265 80.8743 17.055C80.8743 17.105 80.8693 17.16 80.8593 17.22C80.8593 17.27 80.8593 17.325 80.8593 17.385H74.0043V16.59H80.2893L79.8693 16.905C79.8693 16.335 79.7443 15.83 79.4943 15.39C79.2543 14.94 78.9243 14.59 78.5043 14.34C78.0843 14.09 77.5993 13.965 77.0493 13.965C76.5093 13.965 76.0243 14.09 75.5943 14.34C75.1643 14.59 74.8293 14.94 74.5893 15.39C74.3493 15.84 74.2293 16.355 74.2293 16.935V17.1C74.2293 17.7 74.3593 18.23 74.6193 18.69C74.8893 19.14 75.2593 19.495 75.7293 19.755C76.2093 20.005 76.7543 20.13 77.3643 20.13C77.8443 20.13 78.2893 20.045 78.6993 19.875C79.1193 19.705 79.4793 19.445 79.7793 19.095L80.3793 19.785C80.0293 20.205 79.5893 20.525 79.0593 20.745C78.5393 20.965 77.9643 21.075 77.3343 21.075ZM85.1271 21.09C84.5571 21.09 83.9921 21.01 83.4321 20.85C82.8721 20.69 82.3771 20.445 81.9471 20.115L82.2921 19.32C82.6721 19.6 83.1121 19.815 83.6121 19.965C84.1121 20.105 84.6071 20.175 85.0971 20.175C85.5871 20.165 86.0121 20.095 86.3721 19.965C86.7321 19.835 87.0121 19.655 87.2121 19.425C87.4121 19.195 87.5121 18.935 87.5121 18.645C87.5121 18.225 87.3221 17.9 86.9421 17.67C86.5621 17.43 86.0421 17.31 85.3821 17.31H84.0321V16.53H85.3071C85.6971 16.53 86.0421 16.48 86.3421 16.38C86.6421 16.28 86.8721 16.135 87.0321 15.945C87.2021 15.755 87.2871 15.53 87.2871 15.27C87.2871 14.99 87.1871 14.75 86.9871 14.55C86.7971 14.35 86.5321 14.2 86.1921 14.1C85.8521 14 85.4671 13.95 85.0371 13.95C84.6471 13.96 84.2421 14.02 83.8221 14.13C83.4021 14.23 82.9871 14.385 82.5771 14.595L82.2771 13.77C82.7371 13.53 83.1921 13.35 83.6421 13.23C84.1021 13.1 84.5621 13.035 85.0221 13.035C85.6521 13.015 86.2171 13.09 86.7171 13.26C87.2271 13.43 87.6321 13.675 87.9321 13.995C88.2321 14.305 88.3821 14.68 88.3821 15.12C88.3821 15.51 88.2621 15.85 88.0221 16.14C87.7821 16.43 87.4621 16.655 87.0621 16.815C86.6621 16.975 86.2071 17.055 85.6971 17.055L85.7421 16.77C86.6421 16.77 87.3421 16.945 87.8421 17.295C88.3521 17.645 88.6071 18.12 88.6071 18.72C88.6071 19.19 88.4521 19.605 88.1421 19.965C87.8321 20.315 87.4121 20.59 86.8821 20.79C86.3621 20.99 85.7771 21.09 85.1271 21.09ZM91.0248 21V13.125H92.0898V19.38L97.3548 13.125H98.2998V21H97.2348V14.73L91.9848 21H91.0248ZM106.752 20.49V14.055H102.957L102.867 15.81C102.847 16.34 102.812 16.86 102.762 17.37C102.722 17.88 102.647 18.35 102.537 18.78C102.437 19.2 102.292 19.545 102.102 19.815C101.912 20.075 101.667 20.225 101.367 20.265L100.302 20.07C100.612 20.08 100.867 19.97 101.067 19.74C101.267 19.5 101.422 19.175 101.532 18.765C101.642 18.355 101.722 17.89 101.772 17.37C101.822 16.84 101.862 16.3 101.892 15.75L101.997 13.125H107.817V20.49H106.752ZM99.9719 22.905V20.07H109.047V22.905H108.042V21H100.977V22.905H99.9719ZM114.497 21.075C113.677 21.075 112.957 20.905 112.337 20.565C111.717 20.215 111.232 19.74 110.882 19.14C110.532 18.53 110.357 17.835 110.357 17.055C110.357 16.275 110.522 15.585 110.852 14.985C111.192 14.385 111.652 13.915 112.232 13.575C112.822 13.225 113.482 13.05 114.212 13.05C114.952 13.05 115.607 13.22 116.177 13.56C116.757 13.89 117.212 14.36 117.542 14.97C117.872 15.57 118.037 16.265 118.037 17.055C118.037 17.105 118.032 17.16 118.022 17.22C118.022 17.27 118.022 17.325 118.022 17.385H111.167V16.59H117.452L117.032 16.905C117.032 16.335 116.907 15.83 116.657 15.39C116.417 14.94 116.087 14.59 115.667 14.34C115.247 14.09 114.762 13.965 114.212 13.965C113.672 13.965 113.187 14.09 112.757 14.34C112.327 14.59 111.992 14.94 111.752 15.39C111.512 15.84 111.392 16.355 111.392 16.935V17.1C111.392 17.7 111.522 18.23 111.782 18.69C112.052 19.14 112.422 19.495 112.892 19.755C113.372 20.005 113.917 20.13 114.527 20.13C115.007 20.13 115.452 20.045 115.862 19.875C116.282 19.705 116.642 19.445 116.942 19.095L117.542 19.785C117.192 20.205 116.752 20.525 116.222 20.745C115.702 20.965 115.127 21.075 114.497 21.075ZM120.395 21V13.125H121.46V16.605H126.425V13.125H127.49V21H126.425V17.52H121.46V21H120.395ZM132.017 21V13.77L132.287 14.055H129.032V13.125H136.067V14.055H132.812L133.082 13.77V21H132.017ZM68.36 40.09C67.57 40.09 66.84 39.96 66.17 39.7C65.5 39.43 64.92 39.055 64.43 38.575C63.94 38.095 63.555 37.53 63.275 36.88C63.005 36.23 62.87 35.52 62.87 34.75C62.87 33.98 63.005 33.27 63.275 32.62C63.555 31.97 63.94 31.405 64.43 30.925C64.93 30.445 65.515 30.075 66.185 29.815C66.855 29.545 67.585 29.41 68.375 29.41C69.135 29.41 69.85 29.54 70.52 29.8C71.19 30.05 71.755 30.43 72.215 30.94L71.51 31.645C71.08 31.205 70.605 30.89 70.085 30.7C69.565 30.5 69.005 30.4 68.405 30.4C67.775 30.4 67.19 30.51 66.65 30.73C66.11 30.94 65.64 31.245 65.24 31.645C64.84 32.035 64.525 32.495 64.295 33.025C64.075 33.545 63.965 34.12 63.965 34.75C63.965 35.38 64.075 35.96 64.295 36.49C64.525 37.01 64.84 37.47 65.24 37.87C65.64 38.26 66.11 38.565 66.65 38.785C67.19 38.995 67.775 39.1 68.405 39.1C69.005 39.1 69.565 39 70.085 38.8C70.605 38.6 71.08 38.28 71.51 37.84L72.215 38.545C71.755 39.055 71.19 39.44 70.52 39.7C69.85 39.96 69.13 40.09 68.36 40.09ZM80.0273 40L76.7873 36.1L77.6723 35.575L81.2873 40H80.0273ZM74.2523 40V32.125H75.3173V40H74.2523ZM74.9873 36.49V35.575H77.5223V36.49H74.9873ZM77.7623 36.175L76.7723 36.025L79.9073 32.125H81.0623L77.7623 36.175ZM85.9298 40.075C85.1698 40.075 84.4848 39.905 83.8748 39.565C83.2748 39.215 82.7998 38.74 82.4498 38.14C82.0998 37.53 81.9248 36.835 81.9248 36.055C81.9248 35.265 82.0998 34.57 82.4498 33.97C82.7998 33.37 83.2748 32.9 83.8748 32.56C84.4748 32.22 85.1598 32.05 85.9298 32.05C86.7098 32.05 87.3998 32.22 87.9998 32.56C88.6098 32.9 89.0848 33.37 89.4248 33.97C89.7748 34.57 89.9498 35.265 89.9498 36.055C89.9498 36.835 89.7748 37.53 89.4248 38.14C89.0848 38.74 88.6098 39.215 87.9998 39.565C87.3898 39.905 86.6998 40.075 85.9298 40.075ZM85.9298 39.13C86.4998 39.13 87.0048 39.005 87.4448 38.755C87.8848 38.495 88.2298 38.135 88.4798 37.675C88.7398 37.205 88.8698 36.665 88.8698 36.055C88.8698 35.435 88.7398 34.895 88.4798 34.435C88.2298 33.975 87.8848 33.62 87.4448 33.37C87.0048 33.11 86.5048 32.98 85.9448 32.98C85.3848 32.98 84.8848 33.11 84.4448 33.37C84.0048 33.62 83.6548 33.975 83.3948 34.435C83.1348 34.895 83.0048 35.435 83.0048 36.055C83.0048 36.665 83.1348 37.205 83.3948 37.675C83.6548 38.135 84.0048 38.495 84.4448 38.755C84.8848 39.005 85.3798 39.13 85.9298 39.13ZM90.742 39.985L90.817 39.07C90.887 39.08 90.952 39.095 91.012 39.115C91.082 39.125 91.142 39.13 91.192 39.13C91.512 39.13 91.767 39.01 91.957 38.77C92.157 38.53 92.307 38.21 92.407 37.81C92.507 37.41 92.577 36.96 92.617 36.46C92.657 35.95 92.692 35.44 92.722 34.93L92.857 32.125H98.632V40H97.567V32.74L97.837 33.055H93.547L93.802 32.725L93.682 35.005C93.652 35.685 93.597 36.335 93.517 36.955C93.447 37.575 93.332 38.12 93.172 38.59C93.022 39.06 92.812 39.43 92.542 39.7C92.272 39.96 91.927 40.09 91.507 40.09C91.387 40.09 91.262 40.08 91.132 40.06C91.012 40.04 90.882 40.015 90.742 39.985ZM107.435 40L104.195 36.1L105.08 35.575L108.695 40H107.435ZM101.66 40V32.125H102.725V40H101.66ZM102.395 36.49V35.575H104.93V36.49H102.395ZM105.17 36.175L104.18 36.025L107.315 32.125H108.47L105.17 36.175ZM113.337 40.075C112.577 40.075 111.892 39.905 111.282 39.565C110.682 39.215 110.207 38.74 109.857 38.14C109.507 37.53 109.332 36.835 109.332 36.055C109.332 35.265 109.507 34.57 109.857 33.97C110.207 33.37 110.682 32.9 111.282 32.56C111.882 32.22 112.567 32.05 113.337 32.05C114.117 32.05 114.807 32.22 115.407 32.56C116.017 32.9 116.492 33.37 116.832 33.97C117.182 34.57 117.357 35.265 117.357 36.055C117.357 36.835 117.182 37.53 116.832 38.14C116.492 38.74 116.017 39.215 115.407 39.565C114.797 39.905 114.107 40.075 113.337 40.075ZM113.337 39.13C113.907 39.13 114.412 39.005 114.852 38.755C115.292 38.495 115.637 38.135 115.887 37.675C116.147 37.205 116.277 36.665 116.277 36.055C116.277 35.435 116.147 34.895 115.887 34.435C115.637 33.975 115.292 33.62 114.852 33.37C114.412 33.11 113.912 32.98 113.352 32.98C112.792 32.98 112.292 33.11 111.852 33.37C111.412 33.62 111.062 33.975 110.802 34.435C110.542 34.895 110.412 35.435 110.412 36.055C110.412 36.665 110.542 37.205 110.802 37.675C111.062 38.135 111.412 38.495 111.852 38.755C112.292 39.005 112.787 39.13 113.337 39.13ZM119.633 40V32.125H123.113C124.003 32.125 124.703 32.295 125.213 32.635C125.733 32.975 125.993 33.475 125.993 34.135C125.993 34.775 125.748 35.27 125.258 35.62C124.768 35.96 124.123 36.13 123.323 36.13L123.533 35.815C124.473 35.815 125.163 35.99 125.603 36.34C126.043 36.69 126.263 37.195 126.263 37.855C126.263 38.535 126.013 39.065 125.513 39.445C125.023 39.815 124.258 40 123.218 40H119.633ZM120.668 39.16H123.173C123.843 39.16 124.348 39.055 124.688 38.845C125.038 38.625 125.213 38.275 125.213 37.795C125.213 37.315 125.058 36.965 124.748 36.745C124.438 36.525 123.948 36.415 123.278 36.415H120.668V39.16ZM120.668 35.62H123.038C123.648 35.62 124.113 35.505 124.433 35.275C124.763 35.045 124.928 34.71 124.928 34.27C124.928 33.83 124.763 33.5 124.433 33.28C124.113 33.06 123.648 32.95 123.038 32.95H120.668V35.62ZM131.999 40.075C131.239 40.075 130.554 39.905 129.944 39.565C129.344 39.215 128.869 38.74 128.519 38.14C128.169 37.53 127.994 36.835 127.994 36.055C127.994 35.265 128.169 34.57 128.519 33.97C128.869 33.37 129.344 32.9 129.944 32.56C130.544 32.22 131.229 32.05 131.999 32.05C132.779 32.05 133.469 32.22 134.069 32.56C134.679 32.9 135.154 33.37 135.494 33.97C135.844 34.57 136.019 35.265 136.019 36.055C136.019 36.835 135.844 37.53 135.494 38.14C135.154 38.74 134.679 39.215 134.069 39.565C133.459 39.905 132.769 40.075 131.999 40.075ZM131.999 39.13C132.569 39.13 133.074 39.005 133.514 38.755C133.954 38.495 134.299 38.135 134.549 37.675C134.809 37.205 134.939 36.665 134.939 36.055C134.939 35.435 134.809 34.895 134.549 34.435C134.299 33.975 133.954 33.62 133.514 33.37C133.074 33.11 132.574 32.98 132.014 32.98C131.454 32.98 130.954 33.11 130.514 33.37C130.074 33.62 129.724 33.975 129.464 34.435C129.204 34.895 129.074 35.435 129.074 36.055C129.074 36.665 129.204 37.205 129.464 37.675C129.724 38.135 130.074 38.495 130.514 38.755C130.954 39.005 131.449 39.13 131.999 39.13Z" fill="#8A7E95"/>
<line opacity="0.5" x1="63" y1="23.5" x2="137" y2="23.5" stroke="#8A7E95"/>
<line opacity="0.5" x1="63" y1="42.5" x2="136" y2="42.5" stroke="#8A7E95"/>
<g clip-path="url(#clip0_1654_106)">
<path d="M12.5028 0C9.18687 0 6.00673 1.31726 3.66199 3.66199C1.31726 6.00673 0 9.18687 0 12.5028L0 37.5C0 40.816 1.31726 43.9961 3.66199 46.3408C6.00673 48.6856 9.18687 50.0028 12.5028 50.0028H37.5C40.816 50.0028 43.9961 48.6856 46.3408 46.3408C48.6856 43.9961 50.0028 40.816 50.0028 37.5V0H12.5028Z" fill="#B1EC52"/>
<path d="M41.3159 18.7415H35.3117L29.6007 24.9957V12.5028H24.969V15.5303C24.8178 15.3347 24.6582 15.1411 24.4794 14.9518C22.7947 13.1682 20.3669 12.2676 17.2631 12.2676C13.674 12.2676 11.6333 13.8739 10.5526 15.2209C9.21045 16.8943 8.61286 19.1766 9.0275 21.0372C10.1005 25.8533 14.5697 26.6225 17.8522 27.0492C20.4439 27.3861 22.9233 27.8566 22.8576 30.1664C22.787 32.5638 20.0865 33.1537 18.3128 33.1537C13.6931 33.1537 13.537 29.739 13.537 29.739H8.56836C8.639 31.0211 9.02892 33.0795 10.607 34.8468C12.3362 36.7816 14.9286 37.7627 18.3128 37.7627C20.9094 37.7627 23.2737 36.9151 24.969 35.4155V37.4731H29.6021V31.5749L31.2416 29.7807L35.922 37.4731H41.3145L34.5036 26.2065L41.3159 18.7415ZM13.6656 19.9656C13.2566 18.1771 15.0409 16.5948 17.3486 16.5948C19.4275 16.5948 21.5113 17.061 22.3038 19.9593H24.969V24.3826C21.6462 21.6518 14.4433 23.3654 13.6656 19.9656Z" fill="#4D5759"/>
</g>
<defs>
<clipPath id="clip0_1654_106">
<rect width="50" height="50" fill="white"/>
</clipPath>
</defs>
</svg>
