<svg xmlns="http://www.w3.org/2000/svg" width="60" height="139" fill="none" viewBox="0 0 60 139"><path fill="#000" d="M-86.049 93.87c-24.621-6.705-24.621-42.038 0-48.743l17.405-4.74c8.587-2.339 15.295-9.124 17.607-17.81l4.686-17.605c6.629-24.903 41.56-24.903 48.19 0l4.686 17.605c2.312 8.686 9.02 15.471 17.607 17.81l17.404 4.74c24.62 6.705 24.62 42.038 0 48.744l-17.404 4.74c-8.588 2.339-15.295 9.123-17.607 17.81l-4.687 17.604c-6.629 24.904-41.56 24.904-48.19 0l-4.685-17.604c-2.312-8.687-9.02-15.471-17.607-17.81z"/></svg>