<svg xmlns="http://www.w3.org/2000/svg" width="63" height="63" fill="none" viewBox="0 0 63 63"><path fill="url(#a)" d="M21.948 6.968c2.502-9.29 15.682-9.29 18.183 0l1.768 6.568a9.41 9.41 0 0 0 6.643 6.644l6.567 1.768c9.29 2.502 9.29 15.682 0 18.183l-6.568 1.768a9.41 9.41 0 0 0-6.643 6.643l-1.769 6.567c-2.501 9.29-15.682 9.29-18.183 0l-1.768-6.568a9.41 9.41 0 0 0-6.643-6.643l-6.567-1.769c-9.29-2.501-9.29-15.682 0-18.183l6.568-1.768a9.41 9.41 0 0 0 6.644-6.643z"/><defs><linearGradient id="a" x1="51.0143" x2="6.18988" y1="10.1805" y2="57.488" gradientUnits="userSpaceOnUse"><stop stop-color="#EB5884"/><stop offset="0.491918" stop-color="#A05ED5"/><stop offset="1" stop-color="#6124C5"/></linearGradient></defs></svg>